<?xml version="1.0" standalone="no"?>
<!DOCTYPE svg PUBLIC "-//W3C//DTD SVG 1.1//EN" "http://www.w3.org/Graphics/SVG/1.1/DTD/svg11.dtd" >
<svg xmlns="http://www.w3.org/2000/svg" xmlns:xlink="http://www.w3.org/1999/xlink" version="1.1">
<metadata>
Created by FontForge 20170731 at Tue Nov 24 12:50:59 2020
 By Aleksey,,,
Copyright 2014 The Nunito Project Authors (https://github.com/googlefonts/nunito)
</metadata>
<defs>
<font id="NunitoHeavy-Regular" horiz-adv-x="0" >
  <font-face 
    font-family="Nunito Heavy"
    font-weight="1000"
    font-stretch="normal"
    units-per-em="1000"
    panose-1="0 0 0 0 0 0 0 0 0 0"
    ascent="800"
    descent="-200"
    x-height="494"
    cap-height="705"
    bbox="-424 -296.095 1411 1071"
    underline-thickness="60"
    underline-position="-180"
    unicode-range="U+000D-FB02"
  />
<missing-glyph horiz-adv-x="500" 
d="M50 -180v885h400v-885h-400zM100 -130h300v785h-300v-785z" />
    <glyph glyph-name="fi" unicode="fi" horiz-adv-x="709" 
d="M566 562q-108 0 -108 97t108 97q52 0 80 -25t28 -72t-28 -72t-80 -25zM195 -10q-50 0 -77 27t-27 78v247h-14q-77 0 -77 76t77 76h15q7 100 62 150.5t159 62.5l27 3q38 4 61 -9t31.5 -34.5t5 -44.5t-17 -39t-35.5 -18l-14 -1q-42 -3 -57 -17.5t-15 -41.5v-11h262
q50 0 77 -29t27 -84v-278q0 -55 -26.5 -84t-77.5 -29q-50 0 -77 29t-27 84v239h-158v-247q0 -105 -104 -105z" />
    <glyph glyph-name="fl" unicode="fl" horiz-adv-x="787" 
d="M195 -10q-50 0 -77 27t-27 78v247h-14q-77 0 -77 76t77 76h15q7 100 64.5 150.5t166.5 62.5l27 3q38 4 61 -9t31.5 -34.5t5 -44.5t-17 -39t-35.5 -18l-14 -1q-48 -4 -65 -18t-17 -41v-11h42q77 0 77 -76t-77 -76h-42v-247q0 -105 -104 -105zM666 -12q-104 0 -151.5 54
t-47.5 165v403q0 51 27 78t77 27t77 -27t27 -78v-398q0 -31 12 -45t27 -14q7 0 15 2t17 2q20 0 30 -15t10 -62q0 -40 -16 -59.5t-48 -26.5l-24.5 -3.5t-31.5 -2.5z" />
    <glyph glyph-name=".notdef" horiz-adv-x="500" 
d="M50 -180v885h400v-885h-400zM100 -130h300v785h-300v-785z" />
    <glyph glyph-name=".null" 
 />
    <glyph glyph-name="nonmarkingreturn" horiz-adv-x="333" 
 />
    <glyph glyph-name="NULL" 
 />
    <glyph glyph-name="NULL" 
 />
    <glyph glyph-name="CR" unicode="&#xd;" horiz-adv-x="295" 
 />
    <glyph glyph-name="space" unicode=" " horiz-adv-x="295" 
 />
    <glyph glyph-name="exclam" unicode="!" horiz-adv-x="285" 
d="M143 247q-31 0 -49.5 19.5t-23.5 54.5l-37 257q-9 60 20.5 98.5t89.5 38.5t89 -38.5t20 -98.5l-37 -257q-5 -35 -23 -54.5t-49 -19.5zM143 -6q-52 0 -82 30.5t-30 79.5t30 79t82 30q53 0 82 -30t29 -79t-29 -79.5t-82 -30.5z" />
    <glyph glyph-name="quotedbl" unicode="&#x22;" horiz-adv-x="553" 
d="M142 379q-31 0 -53.5 21.5t-27.5 57.5l-20 138q-7 50 22.5 84.5t78.5 34.5t79 -34.5t22 -84.5l-21 -138q-5 -35 -27 -57t-53 -22zM412 379q-31 0 -53.5 21.5t-27.5 57.5l-20 138q-7 50 22.5 84.5t78.5 34.5t79 -34.5t22 -84.5l-21 -138q-5 -35 -27 -57t-53 -22z" />
    <glyph glyph-name="numbersign" unicode="#" horiz-adv-x="600" 
d="M136 -10q-36 0 -49 20t-7 53l17 91q-46 9 -46 59q0 60 67 60h2l33 167h-12q-67 0 -67 61q0 60 67 60h35l19 94q12 60 73 60q32 0 47 -19.5t8 -53.5l-16 -81h64l19 94q12 60 73 60q33 0 48 -19.5t8 -53.5l-16 -83q46 -9 46 -58q0 -61 -67 -61h-3l-33 -167h13q67 0 67 -60
q0 -61 -67 -61h-36l-20 -102q-12 -60 -72 -60q-33 0 -48 19.5t-8 53.5l17 89h-64l-20 -102q-12 -60 -72 -60zM252 273h64l32 167h-64z" />
    <glyph glyph-name="dollar" unicode="$" horiz-adv-x="600" 
d="M309 -125q-34 0 -57 23.5t-23 57.5v39q-53 6 -91 16.5t-61 20.5q-31 13 -43.5 37.5t-10 51.5t18.5 49t42.5 30.5t60.5 -5.5q16 -7 53.5 -17.5t95.5 -10.5q56 0 76 12.5t20 28.5q0 14 -13.5 24.5t-51.5 18.5l-117 26q-185 41 -185 203q0 84 56 143t150 80v46q0 35 23 58
t57 23q35 0 57.5 -23t22.5 -58v-40q29 -4 58 -12t53 -19q27 -13 39.5 -37t10.5 -49.5t-16.5 -46t-40.5 -28.5t-63 5q-20 7 -44 11.5t-64 4.5q-47 0 -71 -14t-24 -35q0 -12 13.5 -21.5t52.5 -18.5l116 -26q186 -42 186 -199q0 -86 -57 -145t-149 -78v-45q0 -34 -22.5 -57.5
t-57.5 -23.5z" />
    <glyph glyph-name="percent" unicode="%" horiz-adv-x="974" 
d="M382 24q-15 -26 -37.5 -34.5t-44.5 -3t-38 22t-20 40t12 50.5l338 582q16 27 38 35.5t44.5 2.5t38 -22.5t19.5 -40t-12 -50.5zM215 286q-92 0 -143 60t-51 157q0 98 51.5 156t142.5 58q92 0 143 -59.5t51 -154.5q0 -97 -51 -157t-143 -60zM215 410q16 0 23.5 19.5
t7.5 73.5t-8 72t-23 18q-16 0 -23.5 -17t-7.5 -73t7.5 -74.5t23.5 -18.5zM759 -12q-92 0 -143 60t-51 157q0 98 51.5 156t142.5 58q92 0 143 -59.5t51 -154.5q0 -97 -51 -157t-143 -60zM759 112q16 0 23.5 19.5t7.5 73.5t-8 72t-23 18q-16 0 -23.5 -17t-7.5 -73t7.5 -74.5
t23.5 -18.5z" />
    <glyph glyph-name="ampersand" unicode="&#x26;" horiz-adv-x="788" 
d="M326 -12q-84 0 -147 26.5t-97.5 74t-34.5 110.5q0 65 35 111t89 74q-29 29 -44 66t-15 75q0 57 29.5 100.5t82.5 67.5t124 24q94 0 149 -48t55 -128q0 -56 -28.5 -101t-81.5 -75l83 -75q9 19 16 40t13 43q10 39 31 59t60 20q42 0 64 -23.5t14 -66.5q-10 -52 -29 -98.5
t-46 -85.5l60 -54q33 -29 33.5 -60.5t-23.5 -52.5t-66 -21q-37 0 -60 15t-51 40l-9 8q-46 -30 -98.5 -47.5t-107.5 -17.5zM348 585q-23 0 -36 -14.5t-13 -39.5q0 -33 39 -71q32 15 45 33t13 42q0 50 -48 50zM341 143q38 0 72 19l-133 121q-27 -28 -27 -69q0 -33 23.5 -52
t64.5 -19z" />
    <glyph glyph-name="quotesingle" unicode="'" horiz-adv-x="283" 
d="M142 379q-31 0 -53.5 21.5t-27.5 57.5l-20 138q-7 50 22.5 84.5t78.5 34.5t79 -34.5t22 -84.5l-21 -138q-5 -35 -27 -57t-53 -22z" />
    <glyph glyph-name="parenleft" unicode="(" horiz-adv-x="434" 
d="M225 -151q-71 98 -100 201.5t-29 212.5t29 213t100 201q20 27 50 34t57.5 -4.5t40.5 -41t-2 -75.5q-19 -59 -30.5 -111.5t-16.5 -104.5t-5 -111t5 -111t16.5 -104t30.5 -112q15 -47 2 -76t-41 -40t-58 -4t-49 33z" />
    <glyph glyph-name="parenright" unicode=")" horiz-adv-x="434" 
d="M209 -151q-19 -26 -49 -33t-58 4t-41 40t2 76q19 60 30.5 112t16.5 104t5 111t-5 111t-16 104.5t-31 111.5q-15 46 -2 75.5t40.5 41t58 4.5t49.5 -34q71 -97 100 -201t29 -213t-28.5 -213t-100.5 -201z" />
    <glyph glyph-name="asterisk" unicode="*" horiz-adv-x="457" 
d="M122 340q-28 17 -32 42t15 52l17 24l-26 -2q-33 -3 -53 13t-20 48t20 48t53 13l26 -3l-16 24q-19 29 -14.5 54t32.5 41q28 17 52 6.5t36 -42.5l17 -42l16 42q12 32 36.5 42t52.5 -7q29 -17 33 -42.5t-16 -52.5l-16 -23l26 2q33 3 53 -12.5t20 -47.5t-20 -48t-53 -13
l-27 2l17 -24q20 -27 16 -52t-33 -42q-28 -16 -51.5 -6.5t-36.5 41.5l-18 45l-18 -44q-13 -32 -36.5 -42t-51.5 6z" />
    <glyph glyph-name="plus" unicode="+" horiz-adv-x="600" 
d="M300 30q-71 0 -71 72v117h-114q-69 0 -69 68t69 68h114v111q0 72 71 72t71 -72v-111h114q69 0 69 -68t-69 -68h-114v-117q0 -72 -71 -72z" />
    <glyph glyph-name="comma" unicode="," horiz-adv-x="285" 
d="M173 -128q-19 -24 -41 -27t-37.5 9t-17.5 33t18 45q14 16 22.5 32t14.5 31q-46 4 -73.5 33t-27.5 76q0 49 30 79t82 30q53 0 82.5 -35.5t29.5 -98.5q0 -31 -5.5 -62t-23 -66t-53.5 -79z" />
    <glyph glyph-name="hyphen" unicode="-" horiz-adv-x="452" 
d="M131 189q-34 0 -57.5 23t-23.5 57q0 35 23.5 57.5t57.5 22.5h190q35 0 58 -22.5t23 -57.5q0 -34 -23 -57t-58 -23h-190z" />
    <glyph glyph-name="period" unicode="." horiz-adv-x="285" 
d="M143 -6q-52 0 -82 30.5t-30 79.5t30 79t82 30q53 0 82 -30t29 -79t-29 -79.5t-82 -30.5z" />
    <glyph glyph-name="slash" unicode="/" horiz-adv-x="370" 
d="M152 -18q-10 -30 -31 -44t-45 -13.5t-44.5 13t-30 36t0.5 54.5l216 678q10 30 31 44t45 13.5t44.5 -13t30 -35.5t-0.5 -55z" />
    <glyph glyph-name="zero" unicode="0" horiz-adv-x="600" 
d="M300 -12q-133 0 -204.5 96.5t-71.5 271.5q0 176 71.5 268.5t204.5 92.5q134 0 205 -92.5t71 -268.5q0 -175 -71 -271.5t-205 -96.5zM300 158q37 0 55 46.5t18 151.5t-18 148t-55 43t-55 -43t-18 -148t18 -151.5t55 -46.5z" />
    <glyph glyph-name="one" unicode="1" horiz-adv-x="600" 
d="M158 0q-88 0 -88 87t88 87h77v302l-47 -29q-31 -19 -57.5 -15t-44.5 23t-24 45.5t4.5 53.5t41.5 46l139 87q23 15 48.5 21.5t55.5 6.5q48 0 73.5 -24t25.5 -67v-450h67q88 0 88 -87t-88 -87h-359z" />
    <glyph glyph-name="two" unicode="2" horiz-adv-x="600" 
d="M150 0q-50 0 -73 24t-23 71q0 34 14.5 59t37.5 49l159 165q36 38 50.5 62.5t14.5 49.5q0 31 -21.5 46.5t-61.5 15.5q-18 0 -41 -5t-52 -17q-31 -13 -56.5 -6t-41.5 27t-19.5 45.5t9 50t44.5 39.5q47 23 94.5 32t94.5 9q128 0 194.5 -54.5t66.5 -156.5q0 -64 -28 -122
t-98 -124l-90 -86h163q88 0 88 -87t-88 -87h-337z" />
    <glyph glyph-name="three" unicode="3" horiz-adv-x="600" 
d="M275 -12q-50 0 -96.5 8t-80.5 21q-38 15 -54 40t-14.5 52.5t17.5 49.5t43 30.5t61 -4.5q35 -13 62.5 -17.5t53.5 -4.5q92 0 92 56q0 51 -76 51h-48q-91 0 -91 84t91 84h27q35 0 55 13t20 38q0 53 -79 53q-22 0 -49 -5t-58 -16q-30 -11 -54.5 -2.5t-39.5 29.5t-17.5 46.5
t10.5 49t46 37.5q41 17 89 26.5t95 9.5q123 0 192 -52.5t69 -146.5q0 -52 -26 -91.5t-73 -58.5q57 -17 89 -62t32 -108q0 -98 -77 -154t-211 -56z" />
    <glyph glyph-name="four" unicode="4" horiz-adv-x="600" 
d="M402 -10q-49 0 -76 27t-27 79v13h-175q-51 0 -79.5 24t-28.5 72q0 28 10 52.5t33 58.5l227 332q24 35 53 51t70 16q45 0 70 -27t25 -79v-342h10q87 0 87 -79t-87 -79h-10v-13q0 -51 -26 -78.5t-76 -27.5zM299 267v152l-101 -152h101z" />
    <glyph glyph-name="five" unicode="5" horiz-adv-x="600" 
d="M289 -12q-46 0 -97.5 9.5t-95.5 29.5q-32 15 -45 40.5t-9.5 52.5t19.5 48.5t42 29t58 -7.5q31 -14 64.5 -20.5t58.5 -6.5q44 0 67.5 16.5t23.5 47.5t-22.5 47.5t-60.5 16.5q-13 0 -32.5 -3.5t-42.5 -14.5q-13 -6 -34.5 -13t-43.5 -7q-81 0 -81 74v288q0 44 23.5 67
t66.5 23h305q44 0 67 -22.5t23 -64.5t-23 -64.5t-67 -22.5h-195v-88q41 17 92 17q68 0 119.5 -28.5t80.5 -79.5t29 -119q0 -74 -35 -129.5t-100 -85.5t-155 -30z" />
    <glyph glyph-name="six" unicode="6" horiz-adv-x="600" 
d="M329 -12q-143 0 -221 94.5t-78 266.5q0 115 40.5 197.5t115.5 126.5t180 44q81 0 156 -33q28 -12 40 -35.5t10 -50t-16.5 -47.5t-39 -30t-57.5 3q-27 10 -51 14t-44 4q-134 0 -134 -151q21 38 59.5 58.5t87.5 20.5q57 0 102.5 -30.5t72.5 -82.5t27 -119q0 -73 -32 -129.5
t-88 -88.5t-130 -32zM318 150q30 0 48 21.5t18 57.5t-18 57.5t-48 21.5t-48 -21.5t-18 -57.5t18 -57.5t48 -21.5z" />
    <glyph glyph-name="seven" unicode="7" horiz-adv-x="600" 
d="M180 -10q-41 0 -65 18t-27 48.5t17 66.5l229 408h-223q-90 0 -90 87t90 87h369q44 0 72 -23.5t28 -66.5q0 -37 -11 -64.5t-28 -58.5l-239 -435q-19 -35 -48 -51t-74 -16z" />
    <glyph glyph-name="eight" unicode="8" horiz-adv-x="600" 
d="M300 -12q-131 0 -206.5 55t-75.5 152q0 61 29 105t76 65q-39 23 -62.5 64t-23.5 93q0 91 71 143t192 52q122 0 192.5 -52t70.5 -143q0 -54 -23.5 -95.5t-61.5 -62.5q47 -21 75.5 -65.5t28.5 -103.5q0 -97 -75.5 -152t-206.5 -55zM300 436q33 0 51 16.5t18 44.5
q0 27 -18 43.5t-51 16.5t-51 -16.5t-18 -43.5q0 -28 18 -44.5t51 -16.5zM300 148q43 0 66 16.5t23 47.5t-23 47.5t-66 16.5t-66 -16.5t-23 -47.5t23 -47.5t66 -16.5z" />
    <glyph glyph-name="nine" unicode="9" horiz-adv-x="600" 
d="M234 -12q-81 0 -156 33q-28 12 -40 35.5t-10 50t16.5 47.5t39 30t57.5 -3q27 -10 51 -14t44 -4q134 0 134 151q-21 -38 -59.5 -58.5t-87.5 -20.5q-56 0 -102 30.5t-73 83t-27 118.5q0 73 32 129.5t88.5 88.5t129.5 32q143 0 221 -94t78 -267q0 -115 -40 -197.5
t-115.5 -126.5t-180.5 -44zM282 397q30 0 48 21.5t18 57.5t-18 57.5t-48 21.5t-48 -21.5t-18 -57.5t18 -57.5t48 -21.5z" />
    <glyph glyph-name="colon" unicode=":" horiz-adv-x="285" 
d="M143 281q-52 0 -82 30.5t-30 79.5t30 79t82 30q53 0 82 -30t29 -79t-29 -79.5t-82 -30.5zM143 -6q-52 0 -82 30.5t-30 79.5t30 79t82 30q53 0 82 -30t29 -79t-29 -79.5t-82 -30.5z" />
    <glyph glyph-name="semicolon" unicode=";" horiz-adv-x="285" 
d="M143 281q-52 0 -82 30.5t-30 79.5t30 79t82 30q53 0 82 -30t29 -79t-29 -79.5t-82 -30.5zM173 -128q-19 -24 -41 -27t-37.5 9t-17.5 33t18 45q14 16 22.5 32t14.5 31q-46 4 -73.5 33t-27.5 76q0 49 30 79t82 30q53 0 82.5 -35.5t29.5 -98.5q0 -31 -5.5 -62t-23 -66
t-53.5 -79z" />
    <glyph glyph-name="less" unicode="&#x3c;" horiz-adv-x="600" 
d="M469 56l-352 132q-71 27 -71 100q0 72 71 99l352 131q27 10 47.5 2.5t32.5 -25.5t13.5 -39.5t-9.5 -40.5t-37 -29l-274 -99l274 -100q26 -10 37 -29t9.5 -40.5t-13.5 -39t-32.5 -25t-47.5 2.5z" />
    <glyph glyph-name="equal" unicode="=" horiz-adv-x="600" 
d="M115 319q-69 0 -69 68t69 68h370q69 0 69 -68t-69 -68h-370zM115 119q-69 0 -69 68t69 68h370q69 0 69 -68t-69 -68h-370z" />
    <glyph glyph-name="greater" unicode="&#x3e;" horiz-adv-x="600" 
d="M131 56q-27 -10 -47.5 -2.5t-32.5 25t-13.5 39t9.5 40.5t37 29l274 100l-274 99q-26 10 -37 29t-9.5 40.5t13.5 39.5t32.5 25.5t47.5 -2.5l352 -131q71 -27 71 -99q0 -73 -71 -100z" />
    <glyph glyph-name="question" unicode="?" horiz-adv-x="489" 
d="M249 249q-30 0 -47 19.5t-17 52.5q0 35 14 66t45 62q36 36 36 59q0 34 -52 34q-56 0 -101 -22q-34 -17 -60 -9.5t-40.5 29.5t-14.5 50.5t17.5 55t54.5 41.5q41 17 83.5 23.5t77.5 6.5q73 0 128 -23t86 -64t31 -95q0 -45 -21 -82t-74 -72q-31 -20 -47 -35t-23 -28t-12 -28
q-6 -18 -20.5 -29.5t-43.5 -11.5zM246 -6q-52 0 -82 30.5t-30 79.5t30 79t82 30q53 0 82 -30t29 -79t-29 -79.5t-82 -30.5z" />
    <glyph glyph-name="at" unicode="@" horiz-adv-x="957" 
d="M488 -168q-98 0 -180 31t-142 88t-92.5 135t-32.5 172q0 140 58 243t164 159.5t248 56.5q124 0 214.5 -46.5t140.5 -131.5t50 -202q0 -85 -25 -148t-70.5 -97t-105.5 -34q-101 0 -140 79q-26 -40 -61.5 -59.5t-77.5 -19.5q-85 0 -131.5 53.5t-46.5 144.5q0 72 27 128.5
t74.5 89t108.5 32.5q79 0 113 -61q17 49 75 49q37 0 54 -20.5t10 -57.5l-23 -129q-4 -22 -6 -38.5t-2 -29.5q0 -27 9 -38t27 -11q32 0 53 46.5t21 120.5q0 134 -73.5 199.5t-214.5 65.5q-104 0 -180 -41.5t-117 -118.5t-41 -184q0 -96 39 -166t109.5 -107.5t166.5 -37.5
q52 0 99 10t88 29q30 14 49.5 3.5t25.5 -32.5t-3.5 -45.5t-36.5 -36.5q-43 -20 -100 -31.5t-122 -11.5zM471 178q39 0 62 37t23 101q0 32 -13.5 50t-42.5 18q-40 0 -64 -34t-24 -92q0 -80 59 -80z" />
    <glyph glyph-name="A" unicode="A" horiz-adv-x="773" 
d="M105 -10q-36 0 -60.5 17t-31 46.5t10.5 66.5l241 508q21 45 51.5 66t70.5 21t70 -21t51 -66l241 -508q18 -38 12.5 -67.5t-29 -46t-58.5 -16.5q-46 0 -71 21t-45 68l-22 52h-299l-22 -52q-20 -47 -42 -68t-68 -21zM385 483l-78 -188h159l-79 188h-2z" />
    <glyph glyph-name="B" unicode="B" horiz-adv-x="710" 
d="M168 0q-54 0 -82.5 28.5t-28.5 82.5v483q0 54 28.5 82.5t82.5 28.5h247q116 0 179 -49.5t63 -132.5q0 -54 -26.5 -94.5t-73.5 -60.5q119 -40 119 -166q0 -92 -68 -147t-184 -55h-256zM262 436h113q42 0 60 13.5t18 43.5t-18 43t-60 13h-113v-113zM262 156h132
q42 0 60.5 15.5t18.5 46.5t-18.5 46.5t-60.5 15.5h-132v-124z" />
    <glyph glyph-name="C" unicode="C" horiz-adv-x="692" 
d="M429 -12q-121 0 -208 45.5t-133.5 127.5t-46.5 192t46.5 191.5t133.5 127t208 45.5q41 0 88.5 -9t83.5 -26q33 -16 46 -42t10 -54t-18 -50.5t-39 -32t-53 2.5t-55 18t-55 6q-85 0 -127 -45.5t-42 -131.5q0 -87 42 -132.5t127 -45.5q20 0 46 4.5t52 14.5q34 14 61 5.5
t43.5 -30.5t20 -50t-9 -53.5t-43.5 -40.5q-32 -16 -81.5 -26.5t-96.5 -10.5z" />
    <glyph glyph-name="D" unicode="D" horiz-adv-x="800" 
d="M168 0q-54 0 -82.5 28.5t-28.5 82.5v483q0 54 28.5 82.5t82.5 28.5h197q188 0 291 -92.5t103 -259.5t-103 -260t-291 -93h-197zM272 174h80q94 0 139 44t45 135q0 92 -45.5 135t-138.5 43h-80v-357z" />
    <glyph glyph-name="E" unicode="E" horiz-adv-x="624" 
d="M168 0q-54 0 -82.5 28.5t-28.5 82.5v483q0 54 28.5 82.5t82.5 28.5h330q83 0 83 -82t-83 -82h-236v-101h213q83 0 83 -82t-83 -82h-213v-112h236q83 0 83 -82t-83 -82h-330z" />
    <glyph glyph-name="F" unicode="F" horiz-adv-x="588" 
d="M165 -10q-52 0 -80 28.5t-28 82.5v493q0 54 28.5 82.5t82.5 28.5h325q83 0 83 -82t-83 -82h-221v-110h198q83 0 83 -82t-83 -82h-198v-166q0 -111 -107 -111z" />
    <glyph glyph-name="G" unicode="G" horiz-adv-x="754" 
d="M429 -12q-124 0 -210.5 46t-132 127t-45.5 187q0 112 48.5 195t139.5 128.5t219 45.5q47 0 96 -7.5t100 -29.5q30 -13 42 -37.5t9 -52.5t-18.5 -51t-42 -32t-60.5 5q-25 10 -57.5 16t-66.5 6q-95 0 -140.5 -47t-45.5 -139q0 -90 45.5 -135.5t132.5 -45.5q36 0 85 11v80
h-47q-83 0 -83 74t83 74h138q83 0 83 -83v-209q0 -35 -14.5 -59t-46.5 -35q-101 -32 -211 -32z" />
    <glyph glyph-name="H" unicode="H" horiz-adv-x="794" 
d="M165 -10q-52 0 -80 28.5t-28 81.5v505q0 53 28 81.5t80 28.5t79.5 -28.5t27.5 -81.5v-160h250v160q0 53 28 81.5t80 28.5t79.5 -28.5t27.5 -81.5v-505q0 -53 -27.5 -81.5t-79.5 -28.5t-80 28.5t-28 81.5v169h-250v-169q0 -53 -27 -81.5t-80 -28.5z" />
    <glyph glyph-name="I" unicode="I" horiz-adv-x="329" 
d="M165 -10q-52 0 -80 28.5t-28 81.5v505q0 53 28 81.5t80 28.5t79.5 -28.5t27.5 -81.5v-505q0 -53 -27 -81.5t-80 -28.5z" />
    <glyph glyph-name="J" unicode="J" horiz-adv-x="411" 
d="M80 -9q-46 -2 -71 24t-25 67q0 32 17.5 55t51.5 25l27 2q32 2 45.5 12.5t13.5 40.5v389q0 53 28 81t80 28t79.5 -28t27.5 -81v-385q0 -109 -58.5 -165t-178.5 -63z" />
    <glyph glyph-name="K" unicode="K" horiz-adv-x="739" 
d="M165 -10q-52 0 -80 28.5t-28 80.5v507q0 53 28 81t80 28t79.5 -28t27.5 -81v-198h2l219 257q20 23 44.5 36t56.5 13q48 0 70 -25t21 -58.5t-26 -60.5l-177 -198l189 -230q28 -34 28 -69.5t-24.5 -59t-70.5 -23.5q-40 0 -64 16t-50 47l-216 261h-2v-215q0 -52 -27 -80.5
t-80 -28.5z" />
    <glyph glyph-name="L" unicode="L" horiz-adv-x="598" 
d="M166 0q-52 0 -80.5 28.5t-28.5 80.5v487q0 53 28 81t80 28t79.5 -28t27.5 -81v-418h219q44 0 67.5 -23t23.5 -66t-23.5 -66t-67.5 -23h-325z" />
    <glyph glyph-name="M" unicode="M" horiz-adv-x="893" 
d="M156 -10q-47 0 -72 25.5t-25 72.5v529q0 47 27 72.5t76 25.5q41 0 65 -16t44 -52l178 -314l178 314q20 36 44.5 52t64.5 16q47 0 72.5 -25.5t25.5 -72.5v-529q0 -47 -25 -72.5t-72 -25.5t-72 25.5t-25 72.5v244l-114 -189q-15 -25 -33.5 -37.5t-47.5 -12.5t-47.5 12.5
t-33.5 37.5l-111 184v-239q0 -47 -25 -72.5t-72 -25.5z" />
    <glyph glyph-name="N" unicode="N" horiz-adv-x="763" 
d="M157 -10q-49 0 -74.5 26t-25.5 75v518q0 51 25.5 78.5t68.5 27.5q36 0 57.5 -14.5t47.5 -46.5l250 -303v263q0 49 25.5 75t74.5 26t74.5 -26t25.5 -75v-528q0 -43 -23.5 -69.5t-63.5 -26.5t-63 14.5t-49 46.5l-250 303v-263q0 -49 -25.5 -75t-74.5 -26z" />
    <glyph glyph-name="O" unicode="O" horiz-adv-x="820" 
d="M410 -12q-109 0 -192.5 46t-130 128.5t-46.5 190.5q0 109 46.5 191t130 127.5t192.5 45.5q110 0 193 -45.5t129.5 -127.5t46.5 -191t-46.5 -191t-129.5 -128t-193 -46zM410 167q68 0 107 49.5t39 136.5t-39 136t-107 49t-107 -48.5t-39 -136.5t39 -137t107 -49z" />
    <glyph glyph-name="P" unicode="P" horiz-adv-x="689" 
d="M165 -10q-52 0 -80 28.5t-28 80.5v497q0 53 28.5 81t80.5 28h249q122 0 188.5 -63.5t66.5 -173.5t-66.5 -173.5t-188.5 -63.5h-143v-132q0 -52 -27 -80.5t-80 -28.5zM272 395h103q44 0 67.5 18t23.5 55q0 38 -23.5 55.5t-67.5 17.5h-103v-146z" />
    <glyph glyph-name="Q" unicode="Q" horiz-adv-x="820" 
d="M730 -76q20 -34 14 -62.5t-29 -47.5t-53.5 -25t-60.5 5t-50 43l-77 125q-16 26 -65 26v0q-109 0 -192 46t-129.5 128.5t-46.5 190.5q0 109 46.5 191t130 127.5t192.5 45.5q110 0 193 -45.5t129.5 -127.5t46.5 -191q0 -105 -44 -185.5t-121 -126.5q55 -14 83 -62zM410 167
q68 0 107 49.5t39 136.5t-39 136t-107 49t-107 -48.5t-39 -136.5t39 -137t107 -49z" />
    <glyph glyph-name="R" unicode="R" horiz-adv-x="718" 
d="M165 -10q-52 0 -80 28.5t-28 80.5v497q0 53 28.5 81t80.5 28h249q122 0 188.5 -60.5t66.5 -165.5q0 -79 -39 -134t-112 -77q60 -15 94 -77l35 -63q19 -34 17.5 -65.5t-25 -52t-70.5 -20.5q-45 0 -74 18.5t-51 58.5l-86 157q-8 15 -23 21.5t-31 6.5h-33v-153
q0 -52 -27 -80.5t-80 -28.5zM272 402h103q44 0 67.5 17t23.5 53q0 35 -23.5 52t-67.5 17h-103v-139z" />
    <glyph glyph-name="S" unicode="S" horiz-adv-x="663" 
d="M330 -12q-38 0 -81 5.5t-82.5 15t-70.5 21.5q-32 13 -45 37.5t-10 52.5t19 50t43 30.5t61 -5.5q35 -14 82.5 -23t83.5 -9q58 0 79 13t21 30q0 16 -14.5 26.5t-53.5 18.5l-120 26q-191 41 -191 203q0 72 39 125t109 82.5t163 29.5q47 0 100 -10t91 -29q27 -13 39.5 -37
t10.5 -50t-16.5 -46.5t-40.5 -28t-63 5.5q-25 9 -60 14.5t-64 5.5q-49 0 -73.5 -14t-24.5 -37q0 -13 14 -23.5t54 -18.5l120 -26q191 -42 191 -199q0 -71 -38.5 -124.5t-108 -82.5t-163.5 -29z" />
    <glyph glyph-name="T" unicode="T" horiz-adv-x="657" 
d="M329 -10q-52 0 -80 28.5t-28 80.5v432h-136q-88 0 -88 87t88 87h487q88 0 88 -87t-88 -87h-136v-432q0 -52 -27 -80.5t-80 -28.5z" />
    <glyph glyph-name="U" unicode="U" horiz-adv-x="754" 
d="M379 -12q-159 0 -243 79.5t-84 239.5v299q0 53 28 81t80 28t79.5 -28t27.5 -81v-303q0 -67 29 -101.5t83 -34.5t83 34.5t29 101.5v303q0 53 27.5 81t78.5 28t78 -28t27 -81v-299q0 -160 -82 -239.5t-241 -79.5z" />
    <glyph glyph-name="V" unicode="V" horiz-adv-x="759" 
d="M380 -10q-43 0 -70.5 18.5t-45.5 58.5l-232 504q-19 42 -12 74.5t32.5 51t63.5 18.5q48 0 72.5 -21t41.5 -62l154 -356l154 357q17 41 41.5 61.5t69.5 20.5q36 0 60 -18.5t30.5 -51t-12.5 -74.5l-232 -504q-18 -40 -44.5 -58.5t-70.5 -18.5z" />
    <glyph glyph-name="W" unicode="W" horiz-adv-x="1136" 
d="M346 -10q-43 0 -69.5 20t-42.5 63l-187 515q-19 53 6.5 90t89.5 37q44 0 68 -20.5t38 -63.5l107 -325l118 326q16 43 40 63t62 20t62 -20t38 -64l111 -335l114 335q14 43 37.5 63.5t66.5 20.5q55 0 79.5 -37t4.5 -90l-188 -516q-15 -42 -41 -62t-70 -20q-43 0 -69.5 20
t-41.5 63l-109 303l-113 -304q-16 -42 -41.5 -62t-69.5 -20z" />
    <glyph glyph-name="X" unicode="X" horiz-adv-x="713" 
d="M145 -10q-41 0 -68 22t-31 56t23 70l165 217l-161 212q-27 36 -23 70t31 56t68 22q34 0 60 -16.5t51 -52.5l96 -136l98 136q26 37 51.5 53t59.5 16q42 0 68.5 -22t31 -56t-23.5 -70l-162 -213l165 -216q28 -36 23.5 -70t-31 -56t-68.5 -22q-34 0 -59.5 16t-51.5 53
l-100 140l-101 -140q-26 -37 -51.5 -53t-59.5 -16z" />
    <glyph glyph-name="Y" unicode="Y" horiz-adv-x="660" 
d="M330 -10q-52 0 -80 28.5t-28 82.5v205l-180 264q-19 28 -16 62t28 58.5t72 24.5q33 0 59.5 -16t50.5 -53l97 -148l97 149q24 37 50 52.5t60 15.5q45 0 69.5 -22.5t26.5 -56.5t-21 -68l-178 -262v-205q0 -111 -107 -111z" />
    <glyph glyph-name="Z" unicode="Z" horiz-adv-x="636" 
d="M142 0q-55 0 -83 31t-24 77.5t43 93.5l274 327h-227q-91 0 -91 88t91 88h377q55 0 83 -31t24.5 -77.5t-43.5 -93.5l-274 -327h243q91 0 91 -88t-91 -88h-393z" />
    <glyph glyph-name="bracketleft" unicode="[" horiz-adv-x="427" 
d="M185 -180q-37 0 -61 24t-24 61v715q0 37 24 61t61 24h147q37 0 61 -21.5t24 -54.5t-24 -54.5t-61 -21.5h-24v-581h24q37 0 61 -21.5t24 -54.5t-24 -54.5t-61 -21.5h-147z" />
    <glyph glyph-name="backslash" unicode="\" horiz-adv-x="370" 
d="M218 -18l-216 678q-10 31 -0.5 54.5t30 36t44.5 13t45 -13.5t31 -44l216 -678q10 -31 0.5 -54.5t-30 -36t-44.5 -13t-45 13.5t-31 44z" />
    <glyph glyph-name="bracketright" unicode="]" horiz-adv-x="427" 
d="M95 -180q-37 0 -61 21.5t-24 54.5t24 54.5t61 21.5h24v581h-24q-37 0 -61 21.5t-24 54.5t24 54.5t61 21.5h147q37 0 61 -24t24 -61v-715q0 -37 -24 -61t-61 -24h-147z" />
    <glyph glyph-name="asciicircum" unicode="^" horiz-adv-x="600" 
d="M135 130q-47 0 -62 27.5t-1 64.5l130 347q26 69 98 69t98 -69l130 -347q14 -37 -1 -64.5t-62 -27.5q-26 0 -43.5 12t-30.5 48l-91 252l-91 -252q-13 -36 -30.5 -48t-43.5 -12z" />
    <glyph glyph-name="underscore" unicode="_" horiz-adv-x="500" 
d="M69 -116q-25 0 -42 16.5t-17 41.5t17 41.5t42 16.5h362q26 0 42.5 -16.5t16.5 -41.5t-16.5 -41.5t-42.5 -16.5h-362z" />
    <glyph glyph-name="grave" unicode="`" horiz-adv-x="500" 
d="M177 567l-85 109q-19 24 -15 47t21.5 40t41 24t46.5 -1t36 -35l60 -123q12 -25 3.5 -45t-28 -31t-42 -8.5t-38.5 23.5z" />
    <glyph glyph-name="a" unicode="a" horiz-adv-x="580" 
d="M221 -12q-59 0 -104 21.5t-70 59t-25 85.5q0 54 28 85t90 44.5t163 13.5h39v9q0 29 -16 39.5t-57 10.5q-22 0 -49.5 -4.5t-65.5 -16.5q-31 -10 -53 -1.5t-33.5 27.5t-11 42t15.5 43.5t46 31.5q48 17 88 22.5t73 5.5q131 0 195 -55.5t64 -174.5v-181q0 -51 -24.5 -78
t-71.5 -27q-84 0 -95 81q-11 -38 -44 -60.5t-82 -22.5zM270 121q29 0 50.5 19t21.5 50v16h-40q-39 0 -61 -12t-22 -32q0 -18 12.5 -29.5t38.5 -11.5z" />
    <glyph glyph-name="b" unicode="b" horiz-adv-x="632" 
d="M393 -12q-48 0 -88 20.5t-59 54.5q-16 -73 -99 -73q-103 0 -103 105v515q0 51 27 78t77 27t77 -27t27 -78v-168q21 29 59 46.5t82 17.5q63 0 111.5 -31t76 -89t27.5 -139q0 -80 -27.5 -138.5t-76 -89.5t-111.5 -31zM324 140q32 0 53.5 24t21.5 83t-21.5 83t-53.5 24
t-53.5 -24t-21.5 -83t21.5 -83t53.5 -24z" />
    <glyph glyph-name="c" unicode="c" horiz-adv-x="491" 
d="M310 -12q-86 0 -150.5 31t-100 89.5t-35.5 138.5q0 81 35.5 139t100 89t150.5 31q27 0 55 -4t62 -15q28 -9 40.5 -30t12 -45.5t-12 -45t-32 -29t-47.5 3.5q-13 5 -27.5 7.5t-27.5 2.5q-46 0 -71 -27t-25 -77q0 -49 25 -76.5t71 -27.5q13 0 27.5 2t27.5 8q27 12 47.5 3.5
t32 -29t12 -45t-12 -45.5t-40.5 -30q-34 -11 -62 -15t-55 -4z" />
    <glyph glyph-name="d" unicode="d" horiz-adv-x="632" 
d="M239 -12q-62 0 -111 31t-76.5 89.5t-27.5 138.5q0 81 27.5 139t76 89t111.5 31q44 0 82 -17.5t59 -46.5v168q0 51 27 78t77 27t77 -27t27 -78v-515q0 -51 -26 -78t-76 -27q-84 0 -100 73q-19 -34 -59 -54.5t-88 -20.5zM308 140q32 0 53.5 24t21.5 83t-21.5 83t-53.5 24
t-53.5 -24t-21.5 -83t21.5 -83t53.5 -24z" />
    <glyph glyph-name="e" unicode="e" horiz-adv-x="563" 
d="M328 -12q-94 0 -162.5 32t-105 90.5t-36.5 137.5q0 76 34.5 134t95 91t137.5 33t133.5 -32t87.5 -90.5t31 -137.5q0 -40 -45 -40h-275q9 -37 36.5 -51.5t74.5 -14.5q20 0 46.5 4.5t50.5 11.5q29 9 50 0t32 -27.5t11.5 -41.5t-11.5 -43t-38 -30q-65 -26 -147 -26zM301 373
q-32 0 -53 -18t-28 -58h153q-3 40 -21.5 58t-50.5 18z" />
    <glyph glyph-name="f" unicode="f" horiz-adv-x="423" 
d="M195 -10q-50 0 -77 27t-27 78v247h-14q-77 0 -77 76t77 76h15q7 100 64.5 150.5t166.5 62.5l27 3q38 4 61 -9t31.5 -34.5t5 -44.5t-17 -39t-35.5 -18l-14 -1q-48 -4 -65 -18t-17 -41v-11h42q77 0 77 -76t-77 -76h-42v-247q0 -105 -104 -105z" />
    <glyph glyph-name="g" unicode="g" horiz-adv-x="638" 
d="M297 -192q-55 0 -101.5 6.5t-78.5 16.5q-34 10 -49 31.5t-15.5 46t11 45t32 30.5t45.5 1q44 -15 78 -20t57 -5q59 0 87.5 21.5t28.5 70.5v32q-21 -31 -62 -51t-87 -20q-65 0 -114.5 30.5t-77 86t-27.5 129.5q0 75 27.5 130.5t77 86t114.5 30.5q49 0 90 -20.5t59 -53.5
q17 72 100 72q50 0 76 -27t26 -78v-324q0 -133 -77 -200t-220 -67zM311 165q35 0 56.5 24t21.5 70t-21.5 70.5t-56.5 24.5t-56.5 -24.5t-21.5 -70.5t21.5 -70t56.5 -24z" />
    <glyph glyph-name="h" unicode="h" horiz-adv-x="618" 
d="M148 -10q-50 0 -77 27t-27 78v515q0 51 27 78t77 27t77 -27t27 -78v-172q26 32 65 50t86 18q88 0 130.5 -53.5t42.5 -165.5v-192q0 -51 -27 -78t-77 -27t-77 27t-27 78v184q0 38 -12 53.5t-34 15.5q-31 0 -50.5 -20.5t-19.5 -55.5v-177q0 -105 -104 -105z" />
    <glyph glyph-name="i" unicode="i" horiz-adv-x="296" 
d="M148 562q-55 0 -84 25t-29 72t29 72t84 25t84 -25t29 -72t-29 -72t-84 -25zM148 -10q-50 0 -77 29t-27 84v288q0 55 27 84t77 29t77 -29t27 -84v-288q0 -55 -26.5 -84t-77.5 -29z" />
    <glyph glyph-name="j" unicode="j" horiz-adv-x="303" 
d="M153 562q-55 0 -84 25t-29 72t29 72t84 25t84 -25t29 -72t-29 -72t-84 -25zM33 -186q-36 0 -57 14t-28.5 34.5t-3.5 42t19 36.5t38 17q49 4 49 50v391q0 51 27 78t77 27t77 -27t27 -78v-370q0 -104 -54.5 -159.5t-170.5 -55.5z" />
    <glyph glyph-name="k" unicode="k" horiz-adv-x="605" 
d="M148 -10q-50 0 -77 27t-27 78v515q0 51 27 78t77 27t77 -27t27 -78v-308h2l99 133q27 36 52.5 52.5t68.5 16.5t66.5 -21t25 -52.5t-23.5 -63.5l-83 -108l98 -139q24 -33 19 -63t-30.5 -48.5t-64.5 -18.5q-47 0 -75 16.5t-54 53.5l-98 138h-2v-103q0 -105 -104 -105z" />
    <glyph glyph-name="l" unicode="l" horiz-adv-x="364" 
d="M243 -12q-104 0 -151.5 54t-47.5 165v403q0 51 27 78t77 27t77 -27t27 -78v-398q0 -31 12 -45t27 -14q7 0 15 2t17 2q20 0 30 -15t10 -62q0 -40 -16 -59.5t-48 -26.5l-24.5 -3.5t-31.5 -2.5z" />
    <glyph glyph-name="m" unicode="m" horiz-adv-x="916" 
d="M150 -10q-50 0 -77 27t-27 78v304q0 51 26.5 78t75.5 27q84 0 98 -75q23 34 62 55.5t90 21.5q47 0 84 -21.5t57 -65.5q26 41 69 64t94 23q87 0 128.5 -53t41.5 -166v-192q0 -51 -27 -78t-77 -27t-77 27t-27 78v187q0 36 -9.5 51t-32.5 15q-59 0 -59 -84v-169
q0 -51 -27 -78t-77 -27t-77 27t-27 78v187q0 36 -9.5 51t-32.5 15q-59 0 -59 -84v-169q0 -105 -104 -105z" />
    <glyph glyph-name="n" unicode="n" horiz-adv-x="618" 
d="M148 -10q-50 0 -77 27t-27 78v304q0 51 26.5 78t75.5 27q84 0 98 -76q26 37 67.5 57.5t91.5 20.5q88 0 130.5 -53.5t42.5 -165.5v-192q0 -51 -27 -78t-77 -27t-77 27t-27 78v184q0 38 -12 53.5t-34 15.5q-31 0 -50.5 -20.5t-19.5 -55.5v-177q0 -105 -104 -105z" />
    <glyph glyph-name="o" unicode="o" horiz-adv-x="616" 
d="M308 -12q-85 0 -149 31t-99.5 89.5t-35.5 138.5q0 81 35.5 139t99.5 89t149 31q86 0 149.5 -31t99 -89t35.5 -139q0 -80 -35.5 -138.5t-99 -89.5t-149.5 -31zM308 140q32 0 53.5 24t21.5 83t-21.5 83t-53.5 24t-53.5 -24t-21.5 -83t21.5 -83t53.5 -24z" />
    <glyph glyph-name="p" unicode="p" horiz-adv-x="632" 
d="M148 -190q-50 0 -77 27t-27 78v484q0 51 26.5 78t75.5 27q84 0 100 -73q19 34 59 54.5t88 20.5q63 0 111.5 -31t76 -89t27.5 -139q0 -80 -27.5 -138.5t-76 -89.5t-111.5 -31q-44 0 -82 17.5t-59 46.5v-137q0 -51 -27 -78t-77 -27zM324 140q32 0 53.5 24t21.5 83t-21.5 83
t-53.5 24t-53.5 -24t-21.5 -83t21.5 -83t53.5 -24z" />
    <glyph glyph-name="q" unicode="q" horiz-adv-x="632" 
d="M484 -190q-50 0 -77 27t-27 78v137q-21 -29 -59 -46.5t-82 -17.5q-63 0 -111.5 31t-76 89.5t-27.5 138.5q0 81 27.5 139t76.5 89t111 31q48 0 88 -20.5t59 -54.5q16 73 100 73q50 0 76 -27t26 -78v-484q0 -51 -27 -78t-77 -27zM308 140q32 0 53.5 24t21.5 83t-21.5 83
t-53.5 24t-53.5 -24t-21.5 -83t21.5 -83t53.5 -24z" />
    <glyph glyph-name="r" unicode="r" horiz-adv-x="457" 
d="M151 -10q-107 0 -107 105v304q0 51 26.5 78t75.5 27q94 0 101 -93q16 43 53.5 69t86.5 26q33 0 48.5 -17.5t15.5 -67.5q0 -43 -16 -67t-66 -29l-24 -2q-48 -4 -68.5 -24.5t-20.5 -63.5v-140q0 -51 -27 -78t-78 -27z" />
    <glyph glyph-name="s" unicode="s" horiz-adv-x="501" 
d="M251 -12q-46 0 -89.5 5.5t-80.5 18.5q-30 10 -43 29.5t-13 41.5t11.5 40.5t31.5 27t46 0.5q42 -13 75 -19t62 -6q31 0 43 7.5t12 18.5t-8 16t-20 6l-117 18q-62 10 -97 45.5t-35 93.5q0 54 31 93t85.5 60.5t124.5 21.5q46 0 82 -5.5t71 -19.5q25 -10 36 -29t9.5 -41
t-13 -40t-32 -25.5t-47.5 1.5q-34 11 -58 16t-44 5q-37 0 -50 -7.5t-13 -18.5q0 -16 26 -21l117 -18q64 -10 99 -44t35 -93q0 -85 -65 -131.5t-172 -46.5z" />
    <glyph glyph-name="t" unicode="t" horiz-adv-x="449" 
d="M322 -12q-120 0 -177.5 54t-57.5 165v135h-23q-78 0 -78 76t78 76h23v46q0 51 27 78t77 27t77 -27t27 -78v-46h68q78 0 78 -76t-78 -76h-68v-130q0 -58 64 -58q12 0 25 3t25 3q18 1 29.5 -11t11.5 -55q0 -35 -10.5 -58.5t-37.5 -34.5q-15 -6 -40.5 -9.5t-39.5 -3.5z" />
    <glyph glyph-name="u" unicode="u" horiz-adv-x="613" 
d="M232 -12q-97 0 -143.5 54t-46.5 165v192q0 51 27 78t77 27t77 -27t27 -78v-198q0 -55 47 -55q28 0 46 21.5t18 55.5v176q0 51 27 78t77 27t77 -27t27 -78v-304q0 -105 -101 -105q-82 0 -98 70q-24 -35 -58 -53.5t-80 -18.5z" />
    <glyph glyph-name="v" unicode="v" horiz-adv-x="550" 
d="M274 -10q-79 0 -115 80l-133 303q-15 35 -10 64.5t30 48t69 18.5q37 0 60 -17t42 -67l64 -169l68 171q19 47 42.5 64.5t63.5 17.5q34 0 55.5 -18.5t26.5 -48t-11 -64.5l-137 -304q-35 -79 -115 -79z" />
    <glyph glyph-name="w" unicode="w" horiz-adv-x="877" 
d="M273 -10q-80 0 -114 78l-132 305q-15 35 -10.5 64.5t28 48t66.5 18.5q35 0 58.5 -17t42.5 -66l72 -179l78 203q11 30 30.5 44.5t50.5 14.5q32 0 51 -15t30 -44l81 -209l74 192q17 44 43 60t54 16q39 0 60 -18.5t24 -48.5t-12 -65l-130 -303q-34 -79 -114 -79
q-81 0 -113 79l-56 133l-51 -131q-32 -81 -111 -81z" />
    <glyph glyph-name="x" unicode="x" horiz-adv-x="587" 
d="M133 -10q-39 0 -62 21.5t-23.5 54t26.5 65.5l103 123l-90 109q-27 34 -26.5 66t23.5 53.5t62 21.5q38 0 61.5 -12t44.5 -40l42 -55l42 55q21 28 45.5 40t60.5 12q40 0 62.5 -21.5t23.5 -53.5t-27 -66l-89 -108l103 -124q28 -33 27 -65.5t-24.5 -54t-63.5 -21.5
q-36 0 -60 12t-46 40l-54 69l-55 -69q-22 -27 -45 -39.5t-61 -12.5z" />
    <glyph glyph-name="y" unicode="y" horiz-adv-x="549" 
d="M198 -190q-35 0 -57.5 18.5t-28 48.5t10.5 64l47 101l-146 331q-15 35 -9.5 64.5t31 48t69.5 18.5q37 0 59.5 -17t41.5 -67l64 -169l68 171q19 47 43 64.5t64 17.5q34 0 55 -18.5t26 -48t-11 -64.5l-218 -485q-20 -46 -45.5 -62t-63.5 -16z" />
    <glyph glyph-name="z" unicode="z" horiz-adv-x="494" 
d="M112 0q-31 0 -50.5 16t-26.5 40.5t0 52.5t30 52l172 181h-132q-77 0 -77 76t77 76h275q35 0 56.5 -16t29.5 -40.5t1 -52.5t-30 -52l-172 -181h142q77 0 77 -76t-77 -76h-295z" />
    <glyph glyph-name="braceleft" unicode="{" horiz-adv-x="464" 
d="M296 -180q-74 0 -116.5 42.5t-42.5 115.5v130q0 39 -11.5 56t-40.5 19q-31 2 -47 24.5t-16 54.5t16 54t47 24q29 2 40.5 19t11.5 56v132q0 74 42.5 116t116.5 42h73q37 0 61 -21.5t24 -54.5t-18 -54.5t-51 -21.5h-6q-34 0 -34 -42v-122q0 -30 -12.5 -57t-33 -46
t-43.5 -25q23 -6 43.5 -24.5t33 -45.5t12.5 -57v-120q0 -42 35 -42h5q33 0 51 -21.5t18 -54.5t-24 -54.5t-61 -21.5h-73z" />
    <glyph glyph-name="bar" unicode="|" horiz-adv-x="332" 
d="M166 -190q-50 0 -77 27t-27 78v695q0 51 27 78t77 27t77 -27t27 -78v-695q0 -105 -104 -105z" />
    <glyph glyph-name="braceright" unicode="}" horiz-adv-x="464" 
d="M95 -180q-37 0 -61 21.5t-24 54.5t18 54.5t51 21.5h5q35 0 35 42v120q0 30 12.5 57t33 45.5t43.5 24.5q-23 6 -43.5 25t-33 46t-12.5 57v122q0 42 -34 42h-6q-33 0 -51 21.5t-18 54.5t24 54.5t61 21.5h73q74 0 116.5 -42t42.5 -116v-132q0 -39 11.5 -56t40.5 -19
q31 -2 47 -24t16 -54t-16 -54.5t-47 -24.5q-29 -2 -40.5 -19t-11.5 -56v-130q0 -73 -42.5 -115.5t-116.5 -42.5h-73z" />
    <glyph glyph-name="asciitilde" unicode="~" horiz-adv-x="600" 
d="M399 193q-22 0 -46 7t-57 23q-60 30 -83 30t-40 -17q-22 -22 -46 -21.5t-41.5 15t-21 38t14.5 47.5q50 66 121 66q45 0 107 -31q54 -28 79 -28q24 0 40 16q22 22 46 21.5t41.5 -15t21 -38t-14.5 -47.5q-50 -66 -121 -66z" />
    <glyph glyph-name="uni00A0" unicode="&#xa0;" horiz-adv-x="295" 
 />
    <glyph glyph-name="exclamdown" unicode="&#xa1;" horiz-adv-x="285" 
d="M143 281q-52 0 -82 30.5t-30 79.5t30 79t82 30q53 0 82 -30t29 -79t-29 -79.5t-82 -30.5zM143 -190q-60 0 -90 38.5t-20 98.5l37 224q6 35 24 54.5t49 19.5t48.5 -19.5t23.5 -54.5l37 -224q10 -60 -19.5 -98.5t-89.5 -38.5z" />
    <glyph glyph-name="cent" unicode="&#xa2;" horiz-adv-x="600" 
d="M316 -125q-34 0 -57 23.5t-23 57.5v52q-82 29 -126.5 90.5t-44.5 147.5q0 81 46 144t125 91v61q0 35 23 58t57 23q35 0 57.5 -23t22.5 -58v-45q54 -6 97 -23q26 -10 36.5 -30.5t8 -43.5t-16 -42t-35 -27t-48.5 1q-31 12 -64 12q-47 0 -71.5 -26.5t-24.5 -66.5t24 -69
t72 -29q10 0 26 3t38 10q31 10 52.5 1t33.5 -28.5t12 -43.5t-12.5 -44.5t-39.5 -31.5q-20 -8 -42 -14t-46 -10v-39q0 -34 -22.5 -57.5t-57.5 -23.5z" />
    <glyph glyph-name="sterling" unicode="&#xa3;" horiz-adv-x="600" 
d="M113 0q-37 0 -62 24t-25 61q0 32 18.5 54.5t48.5 28.5v126h-6q-26 0 -43.5 17t-17.5 42q0 26 17.5 42.5t43.5 16.5h6v59q0 71 29.5 126.5t90.5 87.5t154 32q41 0 81.5 -7t68.5 -18q33 -12 47 -35.5t12.5 -49.5t-16 -46.5t-40 -28.5t-58.5 6q-19 8 -39.5 11t-35.5 3
q-43 0 -61 -20t-18 -52v-68h88q26 0 43.5 -16.5t17.5 -42.5q0 -25 -17.5 -42t-43.5 -17h-88v-124h192q38 0 62.5 -24t24.5 -61t-24.5 -61t-62.5 -24h-387z" />
    <glyph glyph-name="currency" unicode="&#xa4;" horiz-adv-x="600" 
d="M46 -14q-14 14 -14 33.5t14 33.5l49 50q-20 31 -31.5 67t-11.5 75q0 40 11.5 75.5t31.5 66.5l-49 50q-14 14 -14 33.5t14 33.5t34 14.5t34 -14.5l49 -50q29 18 63 28.5t70 10.5q74 0 133 -39l49 50q14 14 35.5 15.5t37.5 -14.5t16 -37t-15 -36l-51 -51q38 -61 38 -136
q0 -38 -10.5 -73.5t-29.5 -65.5l51 -53q14 -15 14.5 -33.5t-13.5 -32.5q-14 -13 -33 -13t-33 15l-50 51q-61 -43 -139 -43q-37 0 -71.5 10.5t-63.5 29.5l-48 -49q-14 -14 -33.5 -15t-33.5 13zM297 155q34 0 59 26.5t25 63.5t-25 63t-59 27q-35 1 -60 -26t-25 -64t24 -63.5
t61 -26.5z" />
    <glyph glyph-name="yen" unicode="&#xa5;" horiz-adv-x="600" 
d="M300 -10q-52 0 -80 28.5t-28 82.5v42h-81q-61 0 -61 56t61 56h81v50h-81q-61 0 -61 56t61 56h36l-105 164q-16 26 -12 57t28.5 54t67.5 23q31 0 54.5 -14.5t42.5 -49.5l76 -135l78 135q20 35 44.5 49.5t56.5 14.5q42 0 66 -21.5t27.5 -53t-16.5 -62.5l-104 -161h38
q61 0 61 -56t-61 -56h-82v-50h82q61 0 61 -56t-61 -56h-82v-42q0 -111 -107 -111z" />
    <glyph glyph-name="brokenbar" unicode="&#xa6;" horiz-adv-x="332" 
d="M166 361q-50 0 -77 27t-27 78v144q0 51 27 78t77 27t77 -27t27 -78v-144q0 -105 -104 -105zM166 -190q-50 0 -77 27t-27 78v144q0 51 27 78t77 27t77 -27t27 -78v-144q0 -105 -104 -105z" />
    <glyph glyph-name="section" unicode="&#xa7;" horiz-adv-x="616" 
d="M291 -192q-53 0 -101 8.5t-87 22.5q-30 11 -42 30.5t-10 42t15.5 40t35 25.5t47.5 -2q32 -12 70 -20.5t70 -8.5q68 0 68 41q0 24 -47 45l-156 69q-132 58 -132 172q0 92 76 151q-35 43 -35 97q0 91 70.5 143.5t191.5 52.5q104 0 176 -27q25 -9 35.5 -28.5t9 -41.5
t-13 -40t-32 -26t-47.5 1q-32 11 -65 17.5t-61 6.5q-68 0 -68 -41q0 -24 47 -45l156 -69q132 -58 132 -172q0 -92 -76 -151q35 -44 35 -97q0 -91 -70 -143.5t-192 -52.5zM203 315q0 -22 15.5 -41t43.5 -32l138 -62q2 -1 5 -3q8 18 8 33q0 23 -15.5 42t-43.5 31l-138 62l-6 2
q-7 -17 -7 -32z" />
    <glyph glyph-name="dieresis" unicode="&#xa8;" horiz-adv-x="500" 
d="M358 568q-43 0 -66.5 24t-23.5 67q0 44 23.5 67t66.5 23q44 0 67 -23t23 -67q0 -91 -90 -91zM142 568q-43 0 -66.5 24t-23.5 67q0 44 23.5 67t66.5 23q44 0 67 -23t23 -67q0 -91 -90 -91z" />
    <glyph glyph-name="copyright" unicode="&#xa9;" horiz-adv-x="815" 
d="M408 -12q-78 0 -144.5 28t-116 77.5t-77 116t-27.5 143.5t27.5 143.5t77 116t116 77t144.5 27.5q77 0 143.5 -27.5t116 -77t77 -116t27.5 -143.5t-27.5 -143.5t-77 -116t-116 -77.5t-143.5 -28zM408 58q85 0 150 39t102 105.5t37 150.5t-37 150.5t-102 105t-150 38.5
t-150.5 -38.5t-102.5 -105t-37 -150.5t37 -150.5t102.5 -105.5t150.5 -39zM434 137q-106 0 -169.5 57.5t-63.5 157.5q0 101 63.5 158.5t169.5 57.5q22 0 43 -3t47 -11q23 -7 35 -24.5t13.5 -38.5t-6.5 -38t-24 -25t-39 1q-26 10 -51 10q-37 0 -58.5 -23t-21.5 -64
t21.5 -63.5t58.5 -22.5q24 0 51 9q29 10 48.5 -3t26 -36.5t-2.5 -46.5t-38 -34q-26 -10 -52 -14t-51 -4z" />
    <glyph glyph-name="ordfeminine" unicode="&#xaa;" horiz-adv-x="362" 
d="M132 402q-55 0 -88 29t-33 72q0 49 41.5 69.5t138.5 20.5h24q0 17 -12 25t-41 8q-10 0 -25 -2t-42 -8q-25 -5 -40.5 5t-19 26.5t6 33t34.5 23.5q29 8 53.5 10.5t45.5 2.5q166 0 166 -130v-124q0 -61 -59 -61q-29 0 -44.5 18.5t-15.5 43.5v2h-3q-13 -30 -34 -47t-53 -17z
M169 482q19 0 32.5 14t13.5 37h-20q-35 0 -46.5 -6.5t-11.5 -20.5q0 -24 32 -24z" />
    <glyph glyph-name="guillemotleft" unicode="&#xab;" horiz-adv-x="594" 
d="M241 72q-28 -13 -55 -5.5t-45 33.5l-67 99q-22 34 -21.5 67.5t21.5 66.5l64 99q17 27 45 34t56 -6q31 -14 42.5 -44t-4.5 -64l-39 -85l40 -89q14 -32 3.5 -62t-40.5 -44zM497 72q-28 -13 -55 -5.5t-45 33.5l-67 99q-22 34 -21.5 67.5t21.5 66.5l64 99q17 27 45 34t56 -6
q31 -14 42.5 -44t-4.5 -64l-39 -85l40 -89q14 -32 3.5 -62t-40.5 -44z" />
    <glyph glyph-name="logicalnot" unicode="&#xac;" horiz-adv-x="600" 
d="M473 113q-71 0 -71 72v133h-287q-69 0 -69 68t69 68h356q73 0 73 -73v-196q0 -72 -71 -72z" />
    <glyph glyph-name="uni00AD" unicode="&#xad;" horiz-adv-x="452" 
d="M131 189q-34 0 -57.5 23t-23.5 57q0 35 23.5 57.5t57.5 22.5h190q35 0 58 -22.5t23 -57.5q0 -34 -23 -57t-58 -23h-190z" />
    <glyph glyph-name="registered" unicode="&#xae;" horiz-adv-x="815" 
d="M408 -12q-78 0 -144.5 28t-116 77.5t-77 116t-27.5 143.5t27.5 143.5t77 116t116 77t144.5 27.5q77 0 143.5 -27.5t116 -77t77 -116t27.5 -143.5t-27.5 -143.5t-77 -116t-116 -77.5t-143.5 -28zM408 58q85 0 150 39t102 105.5t37 150.5t-37 150.5t-102 105t-150 38.5
t-150.5 -38.5t-102.5 -105t-37 -150.5t37 -150.5t102.5 -105.5t150.5 -39zM308 136q-76 0 -76 77v264q0 43 23 66t66 23h116q75 0 116 -38t41 -91q0 -42 -21 -70t-59 -41q23 -5 38 -23.5t24 -60.5l4 -19q10 -46 -13.5 -66.5t-64.5 -20.5q-57 0 -68 60l-12 62
q-3 16 -10.5 21.5t-17.5 5.5h-10v-72q0 -77 -76 -77zM382 392h33q18 0 27.5 7.5t9.5 26.5t-10 26.5t-27 7.5h-33v-68z" />
    <glyph glyph-name="macron" unicode="&#xaf;" horiz-adv-x="500" 
d="M122 599q-57 0 -57 55t57 55h256q57 0 57 -55t-57 -55h-256z" />
    <glyph glyph-name="degree" unicode="&#xb0;" horiz-adv-x="394" 
d="M197 383q-50 0 -89 21.5t-61.5 59.5t-22.5 86t22.5 85.5t62 59t88.5 21.5q50 0 89 -21.5t61.5 -59t22.5 -85.5t-22.5 -86t-61.5 -59.5t-89 -21.5zM197 485q26 0 43.5 19t17.5 46q0 26 -17.5 45t-43.5 19t-43.5 -19t-17.5 -45q0 -27 17.5 -46t43.5 -19z" />
    <glyph glyph-name="plusminus" unicode="&#xb1;" horiz-adv-x="600" 
d="M300 151q-71 0 -71 72v55h-113q-70 0 -70 69t70 69h113v55q0 72 71 72t71 -72v-55h113q70 0 70 -69t-70 -69h-113v-55q0 -72 -71 -72zM115 0q-69 0 -69 68t69 68h370q69 0 69 -68t-69 -68h-370z" />
    <glyph glyph-name="uni00B2" unicode="&#xb2;" horiz-adv-x="380" 
d="M104 282q-31 0 -51.5 20t-20.5 54q0 24 10.5 41.5t29.5 35.5l67 65q32 32 32 55q0 27 -35 27q-9 0 -17.5 -2t-14.5 -4q-28 -11 -48 1t-27 34.5t3 46t40 35.5q24 10 52 14t56 4q76 0 120.5 -35t44.5 -94q0 -31 -15 -61t-51 -63l-48 -44h71q67 0 67 -65t-67 -65h-198z" />
    <glyph glyph-name="uni00B3" unicode="&#xb3;" horiz-adv-x="380" 
d="M182 276q-72 0 -128 20q-26 9 -33.5 30.5t-0.5 43t26 33t47 2.5q16 -5 32.5 -7.5t32.5 -2.5q29 0 40 7.5t11 18.5q0 16 -26 16h-42q-25 0 -41 14.5t-16 41.5t16 41.5t41 14.5h28q26 0 26 19q0 10 -10.5 16t-35.5 6q-28 0 -49 -8q-26 -10 -45 1t-26 32.5t2 43t38 32.5
q27 11 55.5 14.5t58.5 3.5q78 0 122 -30.5t44 -83.5q0 -30 -17 -55t-45 -38q73 -22 73 -102q0 -56 -48.5 -90t-129.5 -34z" />
    <glyph glyph-name="acute" unicode="&#xb4;" horiz-adv-x="500" 
d="M323 567q-16 -21 -38.5 -23.5t-42 8.5t-28 31t3.5 45l60 123q13 27 36 35t46.5 1t41 -24t21.5 -40t-15 -47z" />
    <glyph glyph-name="uni00B5" unicode="&#xb5;" horiz-adv-x="600" 
d="M141 -190q-50 0 -77 27t-27 78v484q0 51 27 78t77 27t77 -27t27 -78v-198q0 -55 47 -55q28 0 46 21.5t18 55.5v176q0 51 27 78t77 27t77 -27t27 -78v-304q0 -105 -101 -105q-49 0 -75.5 24.5t-26.5 60.5v8h-4q-4 -46 -26 -70.5t-45 -24.5q-20 0 -31.5 8.5t-21.5 23.5h-4
l7 -101q4 -52 -20.5 -80.5t-74.5 -28.5z" />
    <glyph glyph-name="paragraph" unicode="&#xb6;" horiz-adv-x="692" 
d="M328 -190q-70 0 -70 71v348q-71 0 -125 29.5t-84 83t-30 126.5t30.5 126t85 82t127.5 29h277q47 0 71.5 -24.5t24.5 -71.5v-728q0 -71 -70 -71t-70 71v684h-97v-684q0 -71 -70 -71z" />
    <glyph glyph-name="periodcentered" unicode="&#xb7;" horiz-adv-x="285" 
d="M143 160q-52 0 -82 30.5t-30 79.5t30 79t82 30q53 0 82 -30t29 -79t-29 -79.5t-82 -30.5z" />
    <glyph glyph-name="cedilla" unicode="&#xb8;" horiz-adv-x="500" 
d="M246 -200q-21 0 -43 2.5t-43 7.5q-22 6 -31 21t-6 31.5t17 26t36 3.5q27 -7 46 -7q26 0 36.5 4t10.5 13q0 14 -36 14q-6 0 -12 -0.5t-12 -1.5t-11.5 0.5t-10.5 6.5q-9 10 -6 29l10 70h95l-7 -48q48 -1 73.5 -21.5t25.5 -56.5q0 -43 -37 -68.5t-95 -25.5z" />
    <glyph glyph-name="uni00B9" unicode="&#xb9;" horiz-adv-x="380" 
d="M90 282q-67 0 -67 65t67 65h47v120l-17 -8q-33 -16 -59 -6.5t-38 32.5t-4.5 49t41.5 43l86 43q23 12 42.5 18.5t43.5 6.5q67 0 67 -67v-231h13q67 0 67 -65t-67 -65h-222z" />
    <glyph glyph-name="ordmasculine" unicode="&#xba;" horiz-adv-x="380" 
d="M190 405q-51 0 -91 19.5t-63.5 54.5t-23.5 83t23.5 83t63.5 53.5t91 18.5t91.5 -18.5t63.5 -53.5t23 -83t-23 -83t-63.5 -54.5t-91.5 -19.5zM190 500q22 0 35 15.5t13 46.5t-13 46t-35 15t-35 -14.5t-13 -46.5t13 -47t35 -15z" />
    <glyph glyph-name="guillemotright" unicode="&#xbb;" horiz-adv-x="594" 
d="M97 72q-30 14 -40 44t4 62l39 89l-37 85q-15 34 -5 64t41 44q28 13 56 6t45 -34l64 -99q21 -33 22 -66.5t-22 -67.5l-67 -99q-18 -26 -45 -33.5t-55 5.5zM353 72q-30 14 -40 44t4 62l39 89l-37 85q-15 34 -5 64t41 44q28 13 56 6t45 -34l64 -99q21 -33 22 -66.5
t-22 -67.5l-67 -99q-18 -26 -45 -33.5t-55 5.5z" />
    <glyph glyph-name="onequarter" unicode="&#xbc;" horiz-adv-x="947" 
d="M90 282q-67 0 -67 65t67 65h47v120l-17 -8q-33 -16 -59 -6.5t-38 32.5t-4.5 49t41.5 43l86 43q23 12 42.5 18.5t43.5 6.5q67 0 67 -67v-231h13q67 0 67 -65t-67 -65h-222zM407 24q-15 -26 -37.5 -34.5t-45 -3t-38.5 22t-20 40t12 50.5l337 582q16 27 38 35.5t44.5 2.5
t38.5 -22.5t20 -40t-12 -50.5zM824 -4q-35 0 -54 15.5t-19 38.5v6h-100q-37 0 -59.5 16.5t-22.5 49.5q0 20 7 36t21 35l129 181q18 25 41 40.5t54 15.5q36 0 55.5 -20t19.5 -58v-182h5q20 0 35 -14.5t15 -42.5t-15 -42.5t-35 -14.5h-5v-6q0 -23 -18.5 -38.5t-53.5 -15.5z
M758 170v97l-65 -97h65z" />
    <glyph glyph-name="onehalf" unicode="&#xbd;" horiz-adv-x="1002" 
d="M90 282q-67 0 -67 65t67 65h47v120l-17 -8q-33 -16 -59 -6.5t-38 32.5t-4.5 49t41.5 43l86 43q23 12 42.5 18.5t43.5 6.5q67 0 67 -67v-231h13q67 0 67 -65t-67 -65h-222zM407 24q-15 -26 -37.5 -34.5t-45 -3t-38.5 22t-20 40t12 50.5l337 582q16 27 38 35.5t44.5 2.5
t38.5 -22.5t20 -40t-12 -50.5zM726 0q-31 0 -51.5 20t-20.5 54q0 24 10.5 41.5t29.5 35.5l67 65q32 32 32 55q0 27 -35 27q-9 0 -17.5 -2t-14.5 -4q-28 -11 -48 1t-27 34.5t3 46t40 35.5q24 10 52 14t56 4q76 0 120.5 -35t44.5 -94q0 -31 -15 -61t-51 -63l-48 -44h71
q67 0 67 -65t-67 -65h-198z" />
    <glyph glyph-name="threequarters" unicode="&#xbe;" horiz-adv-x="947" 
d="M182 276q-72 0 -128 20q-26 9 -33.5 30.5t-0.5 43t26 33t47 2.5q16 -5 32.5 -7.5t32.5 -2.5q29 0 40 7.5t11 18.5q0 16 -26 16h-42q-25 0 -41 14.5t-16 41.5t16 41.5t41 14.5h28q26 0 26 19q0 10 -10.5 16t-35.5 6q-28 0 -49 -8q-26 -10 -45 1t-26 32.5t2 43t38 32.5
q27 11 55.5 14.5t58.5 3.5q78 0 122 -30.5t44 -83.5q0 -30 -17 -55t-45 -38q73 -22 73 -102q0 -56 -48.5 -90t-129.5 -34zM407 24q-15 -26 -37.5 -34.5t-45 -3t-38.5 22t-20 40t12 50.5l337 582q16 27 38 35.5t44.5 2.5t38.5 -22.5t20 -40t-12 -50.5zM824 -4q-35 0 -54 15.5
t-19 38.5v6h-100q-37 0 -59.5 16.5t-22.5 49.5q0 20 7 36t21 35l129 181q18 25 41 40.5t54 15.5q36 0 55.5 -20t19.5 -58v-182h5q20 0 35 -14.5t15 -42.5t-15 -42.5t-35 -14.5h-5v-6q0 -23 -18.5 -38.5t-53.5 -15.5zM758 170v97l-65 -97h65z" />
    <glyph glyph-name="questiondown" unicode="&#xbf;" horiz-adv-x="489" 
d="M244 281q-52 0 -82 30.5t-30 79.5t30 79t82 30q53 0 82 -30t29 -79t-29 -79.5t-82 -30.5zM244 -192q-73 0 -128 21.5t-86 60t-31 88.5q0 42 21.5 79t73.5 67q44 25 60 45.5t22 36.5q6 17 20 28t44 11q64 0 64 -60q0 -35 -12.5 -64.5t-46.5 -55.5q-19 -15 -27.5 -25.5
t-8.5 -24.5q0 -32 52 -32q20 0 45.5 4t59.5 17q31 12 55 3t38.5 -30.5t16 -48t-12.5 -50.5t-46 -37q-85 -33 -173 -33z" />
    <glyph glyph-name="Agrave" unicode="&#xc0;" horiz-adv-x="773" 
d="M105 -10q-36 0 -60.5 17t-31 46.5t10.5 66.5l241 508q21 45 51.5 66t70.5 21t70 -21t51 -66l241 -508q18 -38 12.5 -67.5t-29 -46t-58.5 -16.5q-46 0 -71 21t-45 68l-22 52h-299l-22 -52q-20 -47 -42 -68t-68 -21zM385 483l-78 -188h159l-79 188h-2zM307 774l-76 73
q-20 20 -19 41t15.5 39t36 27t44 4.5t38.5 -28.5l58 -87q14 -21 8.5 -41t-23 -33.5t-40 -13.5t-42.5 19z" />
    <glyph glyph-name="Aacute" unicode="&#xc1;" horiz-adv-x="773" 
d="M105 -10q-36 0 -60.5 17t-31 46.5t10.5 66.5l241 508q21 45 51.5 66t70.5 21t70 -21t51 -66l241 -508q18 -38 12.5 -67.5t-29 -46t-58.5 -16.5q-46 0 -71 21t-45 68l-22 52h-299l-22 -52q-20 -47 -42 -68t-68 -21zM385 483l-78 -188h159l-79 188h-2zM465 774
q-20 -19 -42.5 -19t-40 13.5t-23 33.5t8.5 41l58 87q16 24 38.5 28.5t44 -4.5t36 -27t15.5 -39t-19 -41z" />
    <glyph glyph-name="Acircumflex" unicode="&#xc2;" horiz-adv-x="773" 
d="M105 -10q-36 0 -60.5 17t-31 46.5t10.5 66.5l241 508q21 45 51.5 66t70.5 21t70 -21t51 -66l241 -508q18 -38 12.5 -67.5t-29 -46t-58.5 -16.5q-46 0 -71 21t-45 68l-22 52h-299l-22 -52q-20 -47 -42 -68t-68 -21zM385 483l-78 -188h159l-79 188h-2zM324 776
q-19 -20 -41.5 -21t-41 10.5t-24 31t9.5 40.5l44 61q44 62 115 62t115 -62l44 -61q15 -21 9.5 -40.5t-23.5 -31t-41 -10.5t-42 21l-62 65z" />
    <glyph glyph-name="Atilde" unicode="&#xc3;" horiz-adv-x="773" 
d="M105 -10q-36 0 -60.5 17t-31 46.5t10.5 66.5l241 508q21 45 51.5 66t70.5 21t70 -21t51 -66l241 -508q18 -38 12.5 -67.5t-29 -46t-58.5 -16.5q-46 0 -71 21t-45 68l-22 52h-299l-22 -52q-20 -47 -42 -68t-68 -21zM385 483l-78 -188h159l-79 188h-2zM186 749
q-24 2 -36.5 15.5t-7.5 38.5q14 63 56.5 96.5t98.5 33.5q38 0 69 -11.5t58.5 -23.5t53.5 -12q34 0 51 20q14 17 25 27.5t32 8.5q24 -1 36.5 -15t7.5 -39q-13 -63 -56 -96.5t-99 -33.5q-38 0 -69 12t-58 23.5t-54 11.5q-34 0 -51 -20q-14 -17 -25 -27t-32 -9z" />
    <glyph glyph-name="Adieresis" unicode="&#xc4;" horiz-adv-x="773" 
d="M105 -10q-36 0 -60.5 17t-31 46.5t10.5 66.5l241 508q21 45 51.5 66t70.5 21t70 -21t51 -66l241 -508q18 -38 12.5 -67.5t-29 -46t-58.5 -16.5q-46 0 -71 21t-45 68l-22 52h-299l-22 -52q-20 -47 -42 -68t-68 -21zM385 483l-78 -188h159l-79 188h-2zM494 755
q-43 0 -66.5 23.5t-23.5 66.5q0 44 23.5 67t66.5 23q44 0 67 -23t23 -67q0 -90 -90 -90zM278 755q-43 0 -66.5 23.5t-23.5 66.5q0 44 23.5 67t66.5 23q44 0 67 -23t23 -67q0 -90 -90 -90z" />
    <glyph glyph-name="Aring" unicode="&#xc5;" horiz-adv-x="773" 
d="M105 -10q-36 0 -60.5 17t-31 46.5t10.5 66.5l241 508q21 45 51.5 66t70.5 21t70 -21t51 -66l241 -508q18 -38 12.5 -67.5t-29 -46t-58.5 -16.5q-46 0 -71 21t-45 68l-22 52h-299l-22 -52q-20 -47 -42 -68t-68 -21zM385 483l-78 -188h159l-79 188h-2zM386 750
q-39 0 -71 17.5t-50.5 48.5t-18.5 69q0 39 18.5 69.5t50.5 48t71 17.5q40 0 71.5 -17.5t50 -48t18.5 -69.5q0 -38 -18.5 -69t-50 -48.5t-71.5 -17.5zM386 832q22 0 37 15t15 38t-15 37.5t-37 14.5t-37 -14.5t-15 -37.5t15 -38t37 -15z" />
    <glyph glyph-name="AE" unicode="&#xc6;" horiz-adv-x="1014" 
d="M76 -10q-46 0 -69 19t-23 49t20 62l343 531q34 54 100 54h441q83 0 83 -82t-83 -82h-278l22 -101h233q83 0 83 -82t-83 -82h-197l26 -112h194q83 0 83 -82t-83 -82h-272q-75 0 -91 73l-13 58h-284l-46 -77q-19 -31 -42 -47.5t-64 -16.5zM433 476l-108 -181h151l-41 181
h-2z" />
    <glyph glyph-name="Ccedilla" unicode="&#xc7;" horiz-adv-x="692" 
d="M429 -12q-121 0 -208 45.5t-133.5 127.5t-46.5 192t46.5 191.5t133.5 127t208 45.5q41 0 88.5 -9t83.5 -26q33 -16 46 -42t10 -54t-18 -50.5t-39 -32t-53 2.5t-55 18t-55 6q-85 0 -127 -45.5t-42 -131.5q0 -87 42 -132.5t127 -45.5q20 0 46 4.5t52 14.5q34 14 61 5.5
t43.5 -30.5t20 -50t-9 -53.5t-43.5 -40.5q-32 -16 -81.5 -26.5t-96.5 -10.5zM398 -200q-21 0 -43 2.5t-43 7.5q-22 6 -31 21t-6 31.5t17 26t36 3.5q27 -7 46 -7q26 0 36.5 4t10.5 13q0 14 -36 14q-6 0 -12 -0.5t-12 -1.5t-11.5 0.5t-10.5 6.5q-9 10 -6 29l10 70h95l-7 -48
q48 -1 73.5 -21.5t25.5 -56.5q0 -43 -37 -68.5t-95 -25.5z" />
    <glyph glyph-name="Egrave" unicode="&#xc8;" horiz-adv-x="624" 
d="M168 0q-54 0 -82.5 28.5t-28.5 82.5v483q0 54 28.5 82.5t82.5 28.5h330q83 0 83 -82t-83 -82h-236v-101h213q83 0 83 -82t-83 -82h-213v-112h236q83 0 83 -82t-83 -82h-330zM257 774l-76 73q-20 20 -19 41t15.5 39t36 27t44 4.5t38.5 -28.5l58 -87q14 -21 8.5 -41
t-23 -33.5t-40 -13.5t-42.5 19z" />
    <glyph glyph-name="Eacute" unicode="&#xc9;" horiz-adv-x="624" 
d="M168 0q-54 0 -82.5 28.5t-28.5 82.5v483q0 54 28.5 82.5t82.5 28.5h330q83 0 83 -82t-83 -82h-236v-101h213q83 0 83 -82t-83 -82h-213v-112h236q83 0 83 -82t-83 -82h-330zM415 774q-20 -19 -42.5 -19t-40 13.5t-23 33.5t8.5 41l58 87q16 24 38.5 28.5t44 -4.5t36 -27
t15.5 -39t-19 -41z" />
    <glyph glyph-name="Ecircumflex" unicode="&#xca;" horiz-adv-x="624" 
d="M168 0q-54 0 -82.5 28.5t-28.5 82.5v483q0 54 28.5 82.5t82.5 28.5h330q83 0 83 -82t-83 -82h-236v-101h213q83 0 83 -82t-83 -82h-213v-112h236q83 0 83 -82t-83 -82h-330zM274 776q-19 -20 -41.5 -21t-41 10.5t-24 31t9.5 40.5l44 61q44 62 115 62t115 -62l44 -61
q15 -21 9.5 -40.5t-23.5 -31t-41 -10.5t-42 21l-62 65z" />
    <glyph glyph-name="Edieresis" unicode="&#xcb;" horiz-adv-x="624" 
d="M168 0q-54 0 -82.5 28.5t-28.5 82.5v483q0 54 28.5 82.5t82.5 28.5h330q83 0 83 -82t-83 -82h-236v-101h213q83 0 83 -82t-83 -82h-213v-112h236q83 0 83 -82t-83 -82h-330zM444 755q-43 0 -66.5 23.5t-23.5 66.5q0 44 23.5 67t66.5 23q44 0 67 -23t23 -67q0 -90 -90 -90
zM228 755q-43 0 -66.5 23.5t-23.5 66.5q0 44 23.5 67t66.5 23q44 0 67 -23t23 -67q0 -90 -90 -90z" />
    <glyph glyph-name="Igrave" unicode="&#xcc;" horiz-adv-x="329" 
d="M165 -10q-52 0 -80 28.5t-28 81.5v505q0 53 28 81.5t80 28.5t79.5 -28.5t27.5 -81.5v-505q0 -53 -27 -81.5t-80 -28.5zM85 774l-76 73q-20 20 -19 41t15.5 39t36 27t44 4.5t38.5 -28.5l58 -87q14 -21 8.5 -41t-23 -33.5t-40 -13.5t-42.5 19z" />
    <glyph glyph-name="Iacute" unicode="&#xcd;" horiz-adv-x="329" 
d="M165 -10q-52 0 -80 28.5t-28 81.5v505q0 53 28 81.5t80 28.5t79.5 -28.5t27.5 -81.5v-505q0 -53 -27 -81.5t-80 -28.5zM243 774q-20 -19 -42.5 -19t-40 13.5t-23 33.5t8.5 41l58 87q16 24 38.5 28.5t44 -4.5t36 -27t15.5 -39t-19 -41z" />
    <glyph glyph-name="Icircumflex" unicode="&#xce;" horiz-adv-x="329" 
d="M165 -10q-52 0 -80 28.5t-28 81.5v505q0 53 28 81.5t80 28.5t79.5 -28.5t27.5 -81.5v-505q0 -53 -27 -81.5t-80 -28.5zM102 776q-19 -20 -41.5 -21t-41 10.5t-24 31t9.5 40.5l44 61q44 62 115 62t115 -62l44 -61q15 -21 9.5 -40.5t-23.5 -31t-41 -10.5t-42 21l-62 65z
" />
    <glyph glyph-name="Idieresis" unicode="&#xcf;" horiz-adv-x="329" 
d="M165 -10q-52 0 -80 28.5t-28 81.5v505q0 53 28 81.5t80 28.5t79.5 -28.5t27.5 -81.5v-505q0 -53 -27 -81.5t-80 -28.5zM272 755q-43 0 -66.5 23.5t-23.5 66.5q0 44 23.5 67t66.5 23q44 0 67 -23t23 -67q0 -90 -90 -90zM56 755q-43 0 -66.5 23.5t-23.5 66.5q0 44 23.5 67
t66.5 23q44 0 67 -23t23 -67q0 -90 -90 -90z" />
    <glyph glyph-name="Eth" unicode="&#xd0;" horiz-adv-x="800" 
d="M168 0q-54 0 -82.5 28.5t-28.5 82.5v483q0 54 28.5 82.5t82.5 28.5h197q188 0 291 -92.5t103 -259.5t-103 -260t-291 -93h-197zM272 174h80q94 0 139 44t45 135q0 92 -45.5 135t-138.5 43h-80v-357zM43 280q-37 0 -57.5 19.5t-20.5 55.5t20.5 55.5t57.5 19.5h339
q38 0 58 -19.5t20 -55.5t-20 -55.5t-58 -19.5h-339z" />
    <glyph glyph-name="Ntilde" unicode="&#xd1;" horiz-adv-x="763" 
d="M157 -10q-49 0 -74.5 26t-25.5 75v518q0 51 25.5 78.5t68.5 27.5q36 0 57.5 -14.5t47.5 -46.5l250 -303v263q0 49 25.5 75t74.5 26t74.5 -26t25.5 -75v-528q0 -43 -23.5 -69.5t-63.5 -26.5t-63 14.5t-49 46.5l-250 303v-263q0 -49 -25.5 -75t-74.5 -26zM181 749
q-24 2 -36.5 15.5t-7.5 38.5q14 63 56.5 96.5t98.5 33.5q38 0 69 -11.5t58.5 -23.5t53.5 -12q34 0 51 20q14 17 25 27.5t32 8.5q24 -1 36.5 -15t7.5 -39q-13 -63 -56 -96.5t-99 -33.5q-38 0 -69 12t-58 23.5t-54 11.5q-34 0 -51 -20q-14 -17 -25 -27t-32 -9z" />
    <glyph glyph-name="Ograve" unicode="&#xd2;" horiz-adv-x="820" 
d="M410 -12q-109 0 -192.5 46t-130 128.5t-46.5 190.5q0 109 46.5 191t130 127.5t192.5 45.5q110 0 193 -45.5t129.5 -127.5t46.5 -191t-46.5 -191t-129.5 -128t-193 -46zM410 167q68 0 107 49.5t39 136.5t-39 136t-107 49t-107 -48.5t-39 -136.5t39 -137t107 -49zM329 774
l-76 73q-20 20 -19 41t15.5 39t36 27t44 4.5t38.5 -28.5l58 -87q14 -21 8.5 -41t-23 -33.5t-40 -13.5t-42.5 19z" />
    <glyph glyph-name="Oacute" unicode="&#xd3;" horiz-adv-x="820" 
d="M410 -12q-109 0 -192.5 46t-130 128.5t-46.5 190.5q0 109 46.5 191t130 127.5t192.5 45.5q110 0 193 -45.5t129.5 -127.5t46.5 -191t-46.5 -191t-129.5 -128t-193 -46zM410 167q68 0 107 49.5t39 136.5t-39 136t-107 49t-107 -48.5t-39 -136.5t39 -137t107 -49zM487 774
q-20 -19 -42.5 -19t-40 13.5t-23 33.5t8.5 41l58 87q16 24 38.5 28.5t44 -4.5t36 -27t15.5 -39t-19 -41z" />
    <glyph glyph-name="Ocircumflex" unicode="&#xd4;" horiz-adv-x="820" 
d="M410 -12q-109 0 -192.5 46t-130 128.5t-46.5 190.5q0 109 46.5 191t130 127.5t192.5 45.5q110 0 193 -45.5t129.5 -127.5t46.5 -191t-46.5 -191t-129.5 -128t-193 -46zM410 167q68 0 107 49.5t39 136.5t-39 136t-107 49t-107 -48.5t-39 -136.5t39 -137t107 -49zM346 776
q-19 -20 -41.5 -21t-41 10.5t-24 31t9.5 40.5l44 61q44 62 115 62t115 -62l44 -61q15 -21 9.5 -40.5t-23.5 -31t-41 -10.5t-42 21l-62 65z" />
    <glyph glyph-name="Otilde" unicode="&#xd5;" horiz-adv-x="820" 
d="M410 -12q-109 0 -192.5 46t-130 128.5t-46.5 190.5q0 109 46.5 191t130 127.5t192.5 45.5q110 0 193 -45.5t129.5 -127.5t46.5 -191t-46.5 -191t-129.5 -128t-193 -46zM410 167q68 0 107 49.5t39 136.5t-39 136t-107 49t-107 -48.5t-39 -136.5t39 -137t107 -49zM208 749
q-24 2 -36.5 15.5t-7.5 38.5q14 63 56.5 96.5t98.5 33.5q38 0 69 -11.5t58.5 -23.5t53.5 -12q34 0 51 20q14 17 25 27.5t32 8.5q24 -1 36.5 -15t7.5 -39q-13 -63 -56 -96.5t-99 -33.5q-38 0 -69 12t-58 23.5t-54 11.5q-34 0 -51 -20q-14 -17 -25 -27t-32 -9z" />
    <glyph glyph-name="Odieresis" unicode="&#xd6;" horiz-adv-x="820" 
d="M410 -12q-109 0 -192.5 46t-130 128.5t-46.5 190.5q0 109 46.5 191t130 127.5t192.5 45.5q110 0 193 -45.5t129.5 -127.5t46.5 -191t-46.5 -191t-129.5 -128t-193 -46zM410 167q68 0 107 49.5t39 136.5t-39 136t-107 49t-107 -48.5t-39 -136.5t39 -137t107 -49zM516 755
q-43 0 -66.5 23.5t-23.5 66.5q0 44 23.5 67t66.5 23q44 0 67 -23t23 -67q0 -90 -90 -90zM300 755q-43 0 -66.5 23.5t-23.5 66.5q0 44 23.5 67t66.5 23q44 0 67 -23t23 -67q0 -90 -90 -90z" />
    <glyph glyph-name="multiply" unicode="&#xd7;" horiz-adv-x="600" 
d="M203 94q-25 -25 -52 -23t-46 21t-21 46t23 52l97 97l-97 97q-25 25 -23 52t21 46t46 21t52 -23l97 -97l97 97q25 25 52 23t46 -21t21 -46t-23 -52l-97 -97l97 -97q25 -25 23 -52t-21 -46t-46 -21t-52 23l-97 96z" />
    <glyph glyph-name="Oslash" unicode="&#xd8;" horiz-adv-x="820" 
d="M410 -12q-109 0 -192.5 46t-130 128.5t-46.5 190.5q0 109 46.5 191t130 127.5t192.5 45.5q110 0 193 -45.5t129.5 -127.5t46.5 -191t-46.5 -191t-129.5 -128t-193 -46zM410 167q68 0 107 49.5t39 136.5t-39 136t-107 49t-107 -48.5t-39 -136.5t39 -137t107 -49zM274 -34
q-16 -26 -39 -34.5t-46.5 -2.5t-40.5 23.5t-20.5 42t13.5 53.5l51 86l69 85l202 347l29 85l52 88q16 26 39 34.5t46.5 2.5t40.5 -23.5t20.5 -42t-13.5 -53.5l-52 -86l-69 -85l-202 -347l-29 -85z" />
    <glyph glyph-name="Ugrave" unicode="&#xd9;" horiz-adv-x="754" 
d="M379 -12q-159 0 -243 79.5t-84 239.5v299q0 53 28 81t80 28t79.5 -28t27.5 -81v-303q0 -67 29 -101.5t83 -34.5t83 34.5t29 101.5v303q0 53 27.5 81t78.5 28t78 -28t27 -81v-299q0 -160 -82 -239.5t-241 -79.5zM300 774l-76 73q-20 20 -19 41t15.5 39t36 27t44 4.5
t38.5 -28.5l58 -87q14 -21 8.5 -41t-23 -33.5t-40 -13.5t-42.5 19z" />
    <glyph glyph-name="Uacute" unicode="&#xda;" horiz-adv-x="754" 
d="M379 -12q-159 0 -243 79.5t-84 239.5v299q0 53 28 81t80 28t79.5 -28t27.5 -81v-303q0 -67 29 -101.5t83 -34.5t83 34.5t29 101.5v303q0 53 27.5 81t78.5 28t78 -28t27 -81v-299q0 -160 -82 -239.5t-241 -79.5zM458 774q-20 -19 -42.5 -19t-40 13.5t-23 33.5t8.5 41
l58 87q16 24 38.5 28.5t44 -4.5t36 -27t15.5 -39t-19 -41z" />
    <glyph glyph-name="Ucircumflex" unicode="&#xdb;" horiz-adv-x="754" 
d="M379 -12q-159 0 -243 79.5t-84 239.5v299q0 53 28 81t80 28t79.5 -28t27.5 -81v-303q0 -67 29 -101.5t83 -34.5t83 34.5t29 101.5v303q0 53 27.5 81t78.5 28t78 -28t27 -81v-299q0 -160 -82 -239.5t-241 -79.5zM317 776q-19 -20 -41.5 -21t-41 10.5t-24 31t9.5 40.5
l44 61q44 62 115 62t115 -62l44 -61q15 -21 9.5 -40.5t-23.5 -31t-41 -10.5t-42 21l-62 65z" />
    <glyph glyph-name="Udieresis" unicode="&#xdc;" horiz-adv-x="754" 
d="M379 -12q-159 0 -243 79.5t-84 239.5v299q0 53 28 81t80 28t79.5 -28t27.5 -81v-303q0 -67 29 -101.5t83 -34.5t83 34.5t29 101.5v303q0 53 27.5 81t78.5 28t78 -28t27 -81v-299q0 -160 -82 -239.5t-241 -79.5zM487 755q-43 0 -66.5 23.5t-23.5 66.5q0 44 23.5 67
t66.5 23q44 0 67 -23t23 -67q0 -90 -90 -90zM271 755q-43 0 -66.5 23.5t-23.5 66.5q0 44 23.5 67t66.5 23q44 0 67 -23t23 -67q0 -90 -90 -90z" />
    <glyph glyph-name="Yacute" unicode="&#xdd;" horiz-adv-x="660" 
d="M330 -10q-52 0 -80 28.5t-28 82.5v205l-180 264q-19 28 -16 62t28 58.5t72 24.5q33 0 59.5 -16t50.5 -53l97 -148l97 149q24 37 50 52.5t60 15.5q45 0 69.5 -22.5t26.5 -56.5t-21 -68l-178 -262v-205q0 -111 -107 -111zM408 774q-20 -19 -42.5 -19t-40 13.5t-23 33.5
t8.5 41l58 87q16 24 38.5 28.5t44 -4.5t36 -27t15.5 -39t-19 -41z" />
    <glyph glyph-name="Thorn" unicode="&#xde;" horiz-adv-x="693" 
d="M165 0q-52 0 -80 28.5t-28 80.5v487q0 53 29.5 81t81.5 28q51 0 77.5 -26.5t26.5 -67.5v-6h147q122 0 188.5 -63.5t66.5 -173.5t-66.5 -173.5t-188.5 -63.5h-147v-22q0 -52 -27 -80.5t-80 -28.5zM272 295h107q44 0 67.5 18t23.5 55q0 38 -23.5 55.5t-67.5 17.5h-107v-146
z" />
    <glyph glyph-name="germandbls" unicode="&#xdf;" horiz-adv-x="726" 
d="M498 -12q-39 0 -82 8.5t-77 21.5q-28 11 -39.5 32t-9.5 44t15.5 41.5t34.5 26.5t47 -2q34 -13 63.5 -18.5t50.5 -5.5q31 0 31 22q0 11 -14 19t-59 20q-77 21 -109 57t-32 87q0 32 12.5 62t49.5 75q29 36 29 61q0 14 -11.5 24.5t-40.5 10.5q-52 0 -78.5 -31.5t-26.5 -87.5
v-360q0 -51 -27 -78t-77 -27t-77 27t-27 78v323q0 146 81 222.5t235 76.5q115 0 178 -43t63 -116q0 -31 -11 -60.5t-41 -61.5q-28 -29 -36.5 -42t-8.5 -24t15.5 -20.5t66.5 -23.5q69 -19 100 -58t31 -95q0 -85 -59 -135t-160 -50z" />
    <glyph glyph-name="agrave" unicode="&#xe0;" horiz-adv-x="580" 
d="M221 -12q-59 0 -104 21.5t-70 59t-25 85.5q0 54 28 85t90 44.5t163 13.5h39v9q0 29 -16 39.5t-57 10.5q-22 0 -49.5 -4.5t-65.5 -16.5q-31 -10 -53 -1.5t-33.5 27.5t-11 42t15.5 43.5t46 31.5q48 17 88 22.5t73 5.5q131 0 195 -55.5t64 -174.5v-181q0 -51 -24.5 -78
t-71.5 -27q-84 0 -95 81q-11 -38 -44 -60.5t-82 -22.5zM270 121q29 0 50.5 19t21.5 50v16h-40q-39 0 -61 -12t-22 -32q0 -18 12.5 -29.5t38.5 -11.5zM220 567l-85 109q-19 24 -15 47t21.5 40t41 24t46.5 -1t36 -35l60 -123q12 -25 3.5 -45t-28 -31t-42 -8.5t-38.5 23.5z" />
    <glyph glyph-name="aacute" unicode="&#xe1;" horiz-adv-x="580" 
d="M221 -12q-59 0 -104 21.5t-70 59t-25 85.5q0 54 28 85t90 44.5t163 13.5h39v9q0 29 -16 39.5t-57 10.5q-22 0 -49.5 -4.5t-65.5 -16.5q-31 -10 -53 -1.5t-33.5 27.5t-11 42t15.5 43.5t46 31.5q48 17 88 22.5t73 5.5q131 0 195 -55.5t64 -174.5v-181q0 -51 -24.5 -78
t-71.5 -27q-84 0 -95 81q-11 -38 -44 -60.5t-82 -22.5zM270 121q29 0 50.5 19t21.5 50v16h-40q-39 0 -61 -12t-22 -32q0 -18 12.5 -29.5t38.5 -11.5zM366 567q-16 -21 -38.5 -23.5t-42 8.5t-28 31t3.5 45l60 123q13 27 36 35t46.5 1t41 -24t21.5 -40t-15 -47z" />
    <glyph glyph-name="acircumflex" unicode="&#xe2;" horiz-adv-x="580" 
d="M221 -12q-59 0 -104 21.5t-70 59t-25 85.5q0 54 28 85t90 44.5t163 13.5h39v9q0 29 -16 39.5t-57 10.5q-22 0 -49.5 -4.5t-65.5 -16.5q-31 -10 -53 -1.5t-33.5 27.5t-11 42t15.5 43.5t46 31.5q48 17 88 22.5t73 5.5q131 0 195 -55.5t64 -174.5v-181q0 -51 -24.5 -78
t-71.5 -27q-84 0 -95 81q-11 -38 -44 -60.5t-82 -22.5zM270 121q29 0 50.5 19t21.5 50v16h-40q-39 0 -61 -12t-22 -32q0 -18 12.5 -29.5t38.5 -11.5zM454 625q13 -24 6 -43.5t-25 -30t-39.5 -7.5t-36.5 24l-66 93l-66 -93q-15 -21 -36.5 -24t-39.5 7.5t-25 30t6 43.5l50 92
q18 34 46 53.5t65 19.5q38 0 65.5 -19.5t45.5 -53.5z" />
    <glyph glyph-name="atilde" unicode="&#xe3;" horiz-adv-x="580" 
d="M221 -12q-59 0 -104 21.5t-70 59t-25 85.5q0 54 28 85t90 44.5t163 13.5h39v9q0 29 -16 39.5t-57 10.5q-22 0 -49.5 -4.5t-65.5 -16.5q-31 -10 -53 -1.5t-33.5 27.5t-11 42t15.5 43.5t46 31.5q48 17 88 22.5t73 5.5q131 0 195 -55.5t64 -174.5v-181q0 -51 -24.5 -78
t-71.5 -27q-84 0 -95 81q-11 -38 -44 -60.5t-82 -22.5zM270 121q29 0 50.5 19t21.5 50v16h-40q-39 0 -61 -12t-22 -32q0 -18 12.5 -29.5t38.5 -11.5zM120 570q-48 3 -41 55q2 16 10.5 37.5t25.5 42.5t42 35t60 14t58 -11.5t43 -23.5t45 -12q29 0 44 19q14 18 25.5 28t31.5 9
q26 -1 36 -16.5t7 -38.5t-18.5 -53.5t-45 -53t-74.5 -22.5q-34 0 -57.5 12t-43.5 23.5t-45 11.5q-28 0 -44 -19q-9 -10 -21 -24t-38 -13z" />
    <glyph glyph-name="adieresis" unicode="&#xe4;" horiz-adv-x="580" 
d="M221 -12q-59 0 -104 21.5t-70 59t-25 85.5q0 54 28 85t90 44.5t163 13.5h39v9q0 29 -16 39.5t-57 10.5q-22 0 -49.5 -4.5t-65.5 -16.5q-31 -10 -53 -1.5t-33.5 27.5t-11 42t15.5 43.5t46 31.5q48 17 88 22.5t73 5.5q131 0 195 -55.5t64 -174.5v-181q0 -51 -24.5 -78
t-71.5 -27q-84 0 -95 81q-11 -38 -44 -60.5t-82 -22.5zM270 121q29 0 50.5 19t21.5 50v16h-40q-39 0 -61 -12t-22 -32q0 -18 12.5 -29.5t38.5 -11.5zM401 568q-43 0 -66.5 24t-23.5 67q0 44 23.5 67t66.5 23q44 0 67 -23t23 -67q0 -91 -90 -91zM185 568q-43 0 -66.5 24
t-23.5 67q0 44 23.5 67t66.5 23q44 0 67 -23t23 -67q0 -91 -90 -91z" />
    <glyph glyph-name="aring" unicode="&#xe5;" horiz-adv-x="580" 
d="M221 -12q-59 0 -104 21.5t-70 59t-25 85.5q0 54 28 85t90 44.5t163 13.5h39v9q0 29 -16 39.5t-57 10.5q-22 0 -49.5 -4.5t-65.5 -16.5q-31 -10 -53 -1.5t-33.5 27.5t-11 42t15.5 43.5t46 31.5q48 17 88 22.5t73 5.5q131 0 195 -55.5t64 -174.5v-181q0 -51 -24.5 -78
t-71.5 -27q-84 0 -95 81q-11 -38 -44 -60.5t-82 -22.5zM270 121q29 0 50.5 19t21.5 50v16h-40q-39 0 -61 -12t-22 -32q0 -18 12.5 -29.5t38.5 -11.5zM293 544q-39 0 -71 17.5t-50.5 48.5t-18.5 69q0 39 18.5 69.5t50.5 48t71 17.5q40 0 71.5 -17.5t50 -48t18.5 -69.5
q0 -38 -18.5 -69t-50 -48.5t-71.5 -17.5zM293 626q22 0 37 15t15 38t-15 37.5t-37 14.5t-37 -14.5t-15 -37.5t15 -38t37 -15z" />
    <glyph glyph-name="ae" unicode="&#xe6;" horiz-adv-x="873" 
d="M238 -12q-102 0 -159 47t-57 119q0 54 28.5 85t91.5 44.5t166 13.5h29v12q0 26 -15 36.5t-53 10.5q-22 0 -49.5 -4.5t-65.5 -16.5q-31 -10 -53 -1.5t-33.5 27.5t-11 42t15.5 43.5t46 31.5q48 17 88 22.5t73 5.5q52 0 97.5 -10.5t75.5 -36.5q30 25 67.5 36t81.5 11
q74 0 130.5 -31t89 -87t32.5 -132v-10q0 -17 -8 -28.5t-37 -11.5h-269q8 -37 33.5 -52t73.5 -15q22 0 47.5 4.5t49.5 12.5q29 10 49.5 1.5t32 -28t11.5 -42.5t-12.5 -43t-38.5 -29q-34 -12 -70 -19.5t-77 -7.5q-72 0 -128.5 21.5t-91.5 64.5q-50 -86 -180 -86zM611 373
q-32 0 -51 -18t-24 -58h147q-3 40 -21 58t-51 18zM270 121q29 0 48 19t19 52v14h-35q-39 0 -61 -12t-22 -32q0 -18 12.5 -29.5t38.5 -11.5z" />
    <glyph glyph-name="ccedilla" unicode="&#xe7;" horiz-adv-x="491" 
d="M310 -12q-86 0 -150.5 31t-100 89.5t-35.5 138.5q0 81 35.5 139t100 89t150.5 31q27 0 55 -4t62 -15q28 -9 40.5 -30t12 -45.5t-12 -45t-32 -29t-47.5 3.5q-13 5 -27.5 7.5t-27.5 2.5q-46 0 -71 -27t-25 -77q0 -49 25 -76.5t71 -27.5q13 0 27.5 2t27.5 8q27 12 47.5 3.5
t32 -29t12 -45t-12 -45.5t-40.5 -30q-34 -11 -62 -15t-55 -4zM290 -200q-21 0 -43 2.5t-43 7.5q-22 6 -31 21t-6 31.5t17 26t36 3.5q27 -7 46 -7q26 0 36.5 4t10.5 13q0 14 -36 14q-6 0 -12 -0.5t-12 -1.5t-11.5 0.5t-10.5 6.5q-9 10 -6 29l10 70h95l-7 -48
q48 -1 73.5 -21.5t25.5 -56.5q0 -43 -37 -68.5t-95 -25.5z" />
    <glyph glyph-name="egrave" unicode="&#xe8;" horiz-adv-x="563" 
d="M328 -12q-94 0 -162.5 32t-105 90.5t-36.5 137.5q0 76 34.5 134t95 91t137.5 33t133.5 -32t87.5 -90.5t31 -137.5q0 -40 -45 -40h-275q9 -37 36.5 -51.5t74.5 -14.5q20 0 46.5 4.5t50.5 11.5q29 9 50 0t32 -27.5t11.5 -41.5t-11.5 -43t-38 -30q-65 -26 -147 -26zM301 373
q-32 0 -53 -18t-28 -58h153q-3 40 -21.5 58t-50.5 18zM220 567l-85 109q-19 24 -15 47t21.5 40t41 24t46.5 -1t36 -35l60 -123q12 -25 3.5 -45t-28 -31t-42 -8.5t-38.5 23.5z" />
    <glyph glyph-name="eacute" unicode="&#xe9;" horiz-adv-x="563" 
d="M328 -12q-94 0 -162.5 32t-105 90.5t-36.5 137.5q0 76 34.5 134t95 91t137.5 33t133.5 -32t87.5 -90.5t31 -137.5q0 -40 -45 -40h-275q9 -37 36.5 -51.5t74.5 -14.5q20 0 46.5 4.5t50.5 11.5q29 9 50 0t32 -27.5t11.5 -41.5t-11.5 -43t-38 -30q-65 -26 -147 -26zM301 373
q-32 0 -53 -18t-28 -58h153q-3 40 -21.5 58t-50.5 18zM366 567q-16 -21 -38.5 -23.5t-42 8.5t-28 31t3.5 45l60 123q13 27 36 35t46.5 1t41 -24t21.5 -40t-15 -47z" />
    <glyph glyph-name="ecircumflex" unicode="&#xea;" horiz-adv-x="563" 
d="M328 -12q-94 0 -162.5 32t-105 90.5t-36.5 137.5q0 76 34.5 134t95 91t137.5 33t133.5 -32t87.5 -90.5t31 -137.5q0 -40 -45 -40h-275q9 -37 36.5 -51.5t74.5 -14.5q20 0 46.5 4.5t50.5 11.5q29 9 50 0t32 -27.5t11.5 -41.5t-11.5 -43t-38 -30q-65 -26 -147 -26zM301 373
q-32 0 -53 -18t-28 -58h153q-3 40 -21.5 58t-50.5 18zM454 625q13 -24 6 -43.5t-25 -30t-39.5 -7.5t-36.5 24l-66 93l-66 -93q-15 -21 -36.5 -24t-39.5 7.5t-25 30t6 43.5l50 92q18 34 46 53.5t65 19.5q38 0 65.5 -19.5t45.5 -53.5z" />
    <glyph glyph-name="edieresis" unicode="&#xeb;" horiz-adv-x="563" 
d="M328 -12q-94 0 -162.5 32t-105 90.5t-36.5 137.5q0 76 34.5 134t95 91t137.5 33t133.5 -32t87.5 -90.5t31 -137.5q0 -40 -45 -40h-275q9 -37 36.5 -51.5t74.5 -14.5q20 0 46.5 4.5t50.5 11.5q29 9 50 0t32 -27.5t11.5 -41.5t-11.5 -43t-38 -30q-65 -26 -147 -26zM301 373
q-32 0 -53 -18t-28 -58h153q-3 40 -21.5 58t-50.5 18zM401 568q-43 0 -66.5 24t-23.5 67q0 44 23.5 67t66.5 23q44 0 67 -23t23 -67q0 -91 -90 -91zM185 568q-43 0 -66.5 24t-23.5 67q0 44 23.5 67t66.5 23q44 0 67 -23t23 -67q0 -91 -90 -91z" />
    <glyph glyph-name="igrave" unicode="&#xec;" horiz-adv-x="296" 
d="M148 -10q-50 0 -77 29t-27 84v288q0 55 27 84t77 29t77 -29t27 -84v-288q0 -55 -26.5 -84t-77.5 -29zM75 567l-85 109q-19 24 -15 47t21.5 40t41 24t46.5 -1t36 -35l60 -123q12 -25 3.5 -45t-28 -31t-42 -8.5t-38.5 23.5z" />
    <glyph glyph-name="iacute" unicode="&#xed;" horiz-adv-x="296" 
d="M148 -10q-50 0 -77 29t-27 84v288q0 55 27 84t77 29t77 -29t27 -84v-288q0 -55 -26.5 -84t-77.5 -29zM221 567q-16 -21 -38.5 -23.5t-42 8.5t-28 31t3.5 45l60 123q13 27 36 35t46.5 1t41 -24t21.5 -40t-15 -47z" />
    <glyph glyph-name="icircumflex" unicode="&#xee;" horiz-adv-x="296" 
d="M148 -10q-50 0 -77 29t-27 84v288q0 55 27 84t77 29t77 -29t27 -84v-288q0 -55 -26.5 -84t-77.5 -29zM309 625q13 -24 6 -43.5t-25 -30t-39.5 -7.5t-36.5 24l-66 93l-66 -93q-15 -21 -36.5 -24t-39.5 7.5t-25 30t6 43.5l50 92q18 34 46 53.5t65 19.5q38 0 65.5 -19.5
t45.5 -53.5z" />
    <glyph glyph-name="idieresis" unicode="&#xef;" horiz-adv-x="296" 
d="M148 -10q-50 0 -77 29t-27 84v288q0 55 27 84t77 29t77 -29t27 -84v-288q0 -55 -26.5 -84t-77.5 -29zM256 568q-43 0 -66.5 24t-23.5 67q0 44 23.5 67t66.5 23q44 0 67 -23t23 -67q0 -91 -90 -91zM40 568q-43 0 -66.5 24t-23.5 67q0 44 23.5 67t66.5 23q44 0 67 -23
t23 -67q0 -91 -90 -91z" />
    <glyph glyph-name="eth" unicode="&#xf0;" horiz-adv-x="620" 
d="M299 -12q-81 0 -143 30t-97 82.5t-35 120.5q0 65 32.5 115.5t89.5 79.5t130 29q36 0 65 -8t52 -26q-13 32 -37 59.5t-56 49.5l-130 -61q-24 -11 -42 -5t-26 22t-1.5 34t31.5 30l65 31q-16 6 -34 11q-37 11 -49 35t-3 48.5t36 38.5t67 4q85 -21 151 -57l111 53
q24 12 42.5 5.5t26.5 -22.5t2 -33.5t-30 -29.5l-67 -32q51 -44 84 -96t49 -104t16 -97q0 -93 -35.5 -162t-102.5 -107t-162 -38zM308 142q36 0 54.5 22t18.5 56q0 35 -18 55.5t-56 20.5q-34 0 -54 -20.5t-20 -55.5q0 -36 20.5 -57t54.5 -21z" />
    <glyph glyph-name="ntilde" unicode="&#xf1;" horiz-adv-x="618" 
d="M148 -10q-50 0 -77 27t-27 78v304q0 51 26.5 78t75.5 27q84 0 98 -76q26 37 67.5 57.5t91.5 20.5q88 0 130.5 -53.5t42.5 -165.5v-192q0 -51 -27 -78t-77 -27t-77 27t-27 78v184q0 38 -12 53.5t-34 15.5q-31 0 -50.5 -20.5t-19.5 -55.5v-177q0 -105 -104 -105zM138 570
q-48 3 -41 55q2 16 10.5 37.5t25.5 42.5t42 35t60 14t58 -11.5t43 -23.5t45 -12q29 0 44 19q14 18 25.5 28t31.5 9q26 -1 36 -16.5t7 -38.5t-18.5 -53.5t-45 -53t-74.5 -22.5q-34 0 -57.5 12t-43.5 23.5t-45 11.5q-28 0 -44 -19q-9 -10 -21 -24t-38 -13z" />
    <glyph glyph-name="ograve" unicode="&#xf2;" horiz-adv-x="616" 
d="M308 -12q-85 0 -149 31t-99.5 89.5t-35.5 138.5q0 81 35.5 139t99.5 89t149 31q86 0 149.5 -31t99 -89t35.5 -139q0 -80 -35.5 -138.5t-99 -89.5t-149.5 -31zM308 140q32 0 53.5 24t21.5 83t-21.5 83t-53.5 24t-53.5 -24t-21.5 -83t21.5 -83t53.5 -24zM235 567l-85 109
q-19 24 -15 47t21.5 40t41 24t46.5 -1t36 -35l60 -123q12 -25 3.5 -45t-28 -31t-42 -8.5t-38.5 23.5z" />
    <glyph glyph-name="oacute" unicode="&#xf3;" horiz-adv-x="616" 
d="M308 -12q-85 0 -149 31t-99.5 89.5t-35.5 138.5q0 81 35.5 139t99.5 89t149 31q86 0 149.5 -31t99 -89t35.5 -139q0 -80 -35.5 -138.5t-99 -89.5t-149.5 -31zM308 140q32 0 53.5 24t21.5 83t-21.5 83t-53.5 24t-53.5 -24t-21.5 -83t21.5 -83t53.5 -24zM381 567
q-16 -21 -38.5 -23.5t-42 8.5t-28 31t3.5 45l60 123q13 27 36 35t46.5 1t41 -24t21.5 -40t-15 -47z" />
    <glyph glyph-name="ocircumflex" unicode="&#xf4;" horiz-adv-x="616" 
d="M308 -12q-85 0 -149 31t-99.5 89.5t-35.5 138.5q0 81 35.5 139t99.5 89t149 31q86 0 149.5 -31t99 -89t35.5 -139q0 -80 -35.5 -138.5t-99 -89.5t-149.5 -31zM308 140q32 0 53.5 24t21.5 83t-21.5 83t-53.5 24t-53.5 -24t-21.5 -83t21.5 -83t53.5 -24zM469 625
q13 -24 6 -43.5t-25 -30t-39.5 -7.5t-36.5 24l-66 93l-66 -93q-15 -21 -36.5 -24t-39.5 7.5t-25 30t6 43.5l50 92q18 34 46 53.5t65 19.5q38 0 65.5 -19.5t45.5 -53.5z" />
    <glyph glyph-name="otilde" unicode="&#xf5;" horiz-adv-x="616" 
d="M308 -12q-85 0 -149 31t-99.5 89.5t-35.5 138.5q0 81 35.5 139t99.5 89t149 31q86 0 149.5 -31t99 -89t35.5 -139q0 -80 -35.5 -138.5t-99 -89.5t-149.5 -31zM308 140q32 0 53.5 24t21.5 83t-21.5 83t-53.5 24t-53.5 -24t-21.5 -83t21.5 -83t53.5 -24zM135 570
q-48 3 -41 55q2 16 10.5 37.5t25.5 42.5t42 35t60 14t58 -11.5t43 -23.5t45 -12q29 0 44 19q14 18 25.5 28t31.5 9q26 -1 36 -16.5t7 -38.5t-18.5 -53.5t-45 -53t-74.5 -22.5q-34 0 -57.5 12t-43.5 23.5t-45 11.5q-28 0 -44 -19q-9 -10 -21 -24t-38 -13z" />
    <glyph glyph-name="odieresis" unicode="&#xf6;" horiz-adv-x="616" 
d="M308 -12q-85 0 -149 31t-99.5 89.5t-35.5 138.5q0 81 35.5 139t99.5 89t149 31q86 0 149.5 -31t99 -89t35.5 -139q0 -80 -35.5 -138.5t-99 -89.5t-149.5 -31zM308 140q32 0 53.5 24t21.5 83t-21.5 83t-53.5 24t-53.5 -24t-21.5 -83t21.5 -83t53.5 -24zM416 568
q-43 0 -66.5 24t-23.5 67q0 44 23.5 67t66.5 23q44 0 67 -23t23 -67q0 -91 -90 -91zM200 568q-43 0 -66.5 24t-23.5 67q0 44 23.5 67t66.5 23q44 0 67 -23t23 -67q0 -91 -90 -91z" />
    <glyph glyph-name="divide" unicode="&#xf7;" horiz-adv-x="600" 
d="M294 405q-75 0 -75 76q0 36 19.5 55.5t55.5 19.5q75 0 75 -75q0 -76 -75 -76zM115 219q-69 0 -69 68t69 68h370q69 0 69 -68t-69 -68h-370zM294 18q-75 0 -75 76q0 36 19.5 55.5t55.5 19.5q75 0 75 -75q0 -76 -75 -76z" />
    <glyph glyph-name="oslash" unicode="&#xf8;" horiz-adv-x="616" 
d="M198 -41q-13 -21 -33 -24.5t-37.5 6.5t-24 29t7.5 43l15 25q-48 33 -75 86t-27 123q0 81 35.5 139t99.5 89t149 31q47 0 88 -10l22 38q13 22 33 25t37.5 -7.5t24.5 -30t-7 -42.5l-14 -24q47 -34 73.5 -86.5t26.5 -121.5q0 -80 -35.5 -138.5t-99 -89.5t-149.5 -31
q-46 0 -87 10zM210 248q0 -31 7 -55l103 175q-5 1 -12 1q-43 0 -70.5 -29t-27.5 -92zM309 125q43 0 70 29.5t27 93.5q0 29 -6 52l-103 -174q6 -1 12 -1z" />
    <glyph glyph-name="ugrave" unicode="&#xf9;" horiz-adv-x="613" 
d="M232 -12q-97 0 -143.5 54t-46.5 165v192q0 51 27 78t77 27t77 -27t27 -78v-198q0 -55 47 -55q28 0 46 21.5t18 55.5v176q0 51 27 78t77 27t77 -27t27 -78v-304q0 -105 -101 -105q-82 0 -98 70q-24 -35 -58 -53.5t-80 -18.5zM233 567l-85 109q-19 24 -15 47t21.5 40t41 24
t46.5 -1t36 -35l60 -123q12 -25 3.5 -45t-28 -31t-42 -8.5t-38.5 23.5z" />
    <glyph glyph-name="uacute" unicode="&#xfa;" horiz-adv-x="613" 
d="M232 -12q-97 0 -143.5 54t-46.5 165v192q0 51 27 78t77 27t77 -27t27 -78v-198q0 -55 47 -55q28 0 46 21.5t18 55.5v176q0 51 27 78t77 27t77 -27t27 -78v-304q0 -105 -101 -105q-82 0 -98 70q-24 -35 -58 -53.5t-80 -18.5zM379 567q-16 -21 -38.5 -23.5t-42 8.5t-28 31
t3.5 45l60 123q13 27 36 35t46.5 1t41 -24t21.5 -40t-15 -47z" />
    <glyph glyph-name="ucircumflex" unicode="&#xfb;" horiz-adv-x="613" 
d="M232 -12q-97 0 -143.5 54t-46.5 165v192q0 51 27 78t77 27t77 -27t27 -78v-198q0 -55 47 -55q28 0 46 21.5t18 55.5v176q0 51 27 78t77 27t77 -27t27 -78v-304q0 -105 -101 -105q-82 0 -98 70q-24 -35 -58 -53.5t-80 -18.5zM467 625q13 -24 6 -43.5t-25 -30t-39.5 -7.5
t-36.5 24l-66 93l-66 -93q-15 -21 -36.5 -24t-39.5 7.5t-25 30t6 43.5l50 92q18 34 46 53.5t65 19.5q38 0 65.5 -19.5t45.5 -53.5z" />
    <glyph glyph-name="udieresis" unicode="&#xfc;" horiz-adv-x="613" 
d="M232 -12q-97 0 -143.5 54t-46.5 165v192q0 51 27 78t77 27t77 -27t27 -78v-198q0 -55 47 -55q28 0 46 21.5t18 55.5v176q0 51 27 78t77 27t77 -27t27 -78v-304q0 -105 -101 -105q-82 0 -98 70q-24 -35 -58 -53.5t-80 -18.5zM414 568q-43 0 -66.5 24t-23.5 67
q0 44 23.5 67t66.5 23q44 0 67 -23t23 -67q0 -91 -90 -91zM198 568q-43 0 -66.5 24t-23.5 67q0 44 23.5 67t66.5 23q44 0 67 -23t23 -67q0 -91 -90 -91z" />
    <glyph glyph-name="yacute" unicode="&#xfd;" horiz-adv-x="549" 
d="M198 -190q-35 0 -57.5 18.5t-28 48.5t10.5 64l47 101l-146 331q-15 35 -9.5 64.5t31 48t69.5 18.5q37 0 59.5 -17t41.5 -67l64 -169l68 171q19 47 43 64.5t64 17.5q34 0 55 -18.5t26 -48t-11 -64.5l-218 -485q-20 -46 -45.5 -62t-63.5 -16zM348 567q-16 -21 -38.5 -23.5
t-42 8.5t-28 31t3.5 45l60 123q13 27 36 35t46.5 1t41 -24t21.5 -40t-15 -47z" />
    <glyph glyph-name="thorn" unicode="&#xfe;" horiz-adv-x="632" 
d="M148 -190q-50 0 -77 27t-27 78v695q0 51 27.5 78t76.5 27q50 0 77 -27t27 -78v-169q21 30 59 47.5t82 17.5q63 0 111.5 -31t76 -89t27.5 -139q0 -80 -27.5 -138.5t-76 -89.5t-111.5 -31q-44 0 -82 17.5t-59 46.5v-137q0 -51 -27 -78t-77 -27zM324 140q32 0 53.5 24
t21.5 83t-21.5 83t-53.5 24t-53.5 -24t-21.5 -83t21.5 -83t53.5 -24z" />
    <glyph glyph-name="ydieresis" unicode="&#xff;" horiz-adv-x="549" 
d="M198 -190q-35 0 -57.5 18.5t-28 48.5t10.5 64l47 101l-146 331q-15 35 -9.5 64.5t31 48t69.5 18.5q37 0 59.5 -17t41.5 -67l64 -169l68 171q19 47 43 64.5t64 17.5q34 0 55 -18.5t26 -48t-11 -64.5l-218 -485q-20 -46 -45.5 -62t-63.5 -16zM383 568q-43 0 -66.5 24
t-23.5 67q0 44 23.5 67t66.5 23q44 0 67 -23t23 -67q0 -91 -90 -91zM167 568q-43 0 -66.5 24t-23.5 67q0 44 23.5 67t66.5 23q44 0 67 -23t23 -67q0 -91 -90 -91z" />
    <glyph glyph-name="Amacron" unicode="&#x100;" horiz-adv-x="773" 
d="M105 -10q-36 0 -60.5 17t-31 46.5t10.5 66.5l241 508q21 45 51.5 66t70.5 21t70 -21t51 -66l241 -508q18 -38 12.5 -67.5t-29 -46t-58.5 -16.5q-46 0 -71 21t-45 68l-22 52h-299l-22 -52q-20 -47 -42 -68t-68 -21zM385 483l-78 -188h159l-79 188h-2zM243 790
q-57 0 -57 55t57 55h286q57 0 57 -55t-57 -55h-286z" />
    <glyph glyph-name="amacron" unicode="&#x101;" horiz-adv-x="580" 
d="M221 -12q-59 0 -104 21.5t-70 59t-25 85.5q0 54 28 85t90 44.5t163 13.5h39v9q0 29 -16 39.5t-57 10.5q-22 0 -49.5 -4.5t-65.5 -16.5q-31 -10 -53 -1.5t-33.5 27.5t-11 42t15.5 43.5t46 31.5q48 17 88 22.5t73 5.5q131 0 195 -55.5t64 -174.5v-181q0 -51 -24.5 -78
t-71.5 -27q-84 0 -95 81q-11 -38 -44 -60.5t-82 -22.5zM270 121q29 0 50.5 19t21.5 50v16h-40q-39 0 -61 -12t-22 -32q0 -18 12.5 -29.5t38.5 -11.5zM165 599q-57 0 -57 55t57 55h256q57 0 57 -55t-57 -55h-256z" />
    <glyph glyph-name="Abreve" unicode="&#x102;" horiz-adv-x="773" 
d="M105 -10q-36 0 -60.5 17t-31 46.5t10.5 66.5l241 508q21 45 51.5 66t70.5 21t70 -21t51 -66l241 -508q18 -38 12.5 -67.5t-29 -46t-58.5 -16.5q-46 0 -71 21t-45 68l-22 52h-299l-22 -52q-20 -47 -42 -68t-68 -21zM385 483l-78 -188h159l-79 188h-2zM386 760
q-73 0 -125.5 32t-69.5 81q-13 31 1 50.5t40 22.5q23 3 36.5 -5t22 -19.5t16.5 -20.5q26 -28 79 -28q27 0 46.5 7.5t32.5 20.5q9 9 17 20.5t21.5 19.5t36.5 5q26 -3 39 -22t2 -51q-16 -49 -69 -81t-126 -32z" />
    <glyph glyph-name="abreve" unicode="&#x103;" horiz-adv-x="580" 
d="M221 -12q-59 0 -104 21.5t-70 59t-25 85.5q0 54 28 85t90 44.5t163 13.5h39v9q0 29 -16 39.5t-57 10.5q-22 0 -49.5 -4.5t-65.5 -16.5q-31 -10 -53 -1.5t-33.5 27.5t-11 42t15.5 43.5t46 31.5q48 17 88 22.5t73 5.5q131 0 195 -55.5t64 -174.5v-181q0 -51 -24.5 -78
t-71.5 -27q-84 0 -95 81q-11 -38 -44 -60.5t-82 -22.5zM270 121q29 0 50.5 19t21.5 50v16h-40q-39 0 -61 -12t-22 -32q0 -18 12.5 -29.5t38.5 -11.5zM293 554q-55 0 -93.5 21t-60.5 53.5t-28 65.5q-7 32 8 50.5t41 20.5q27 2 40 -12.5t27 -42.5q21 -40 66 -40t66 40
q14 28 27 42.5t40 12.5q26 -2 41.5 -20.5t7.5 -50.5q-6 -33 -28 -65.5t-60.5 -53.5t-93.5 -21z" />
    <glyph glyph-name="Aogonek" unicode="&#x104;" horiz-adv-x="773" 
d="M700 -200q-69 0 -105.5 31.5t-36.5 84.5q0 28 12 52.5t32 43.5q-24 20 -44 67l-22 52h-299l-22 -52q-20 -47 -42 -68t-68 -21q-36 0 -60.5 17t-31 46.5t10.5 66.5l241 508q21 45 51.5 66t70.5 21t70 -21t51 -66l241 -508q20 -42 10.5 -74t-37.5 -46q-26 -13 -35.5 -29
t-9.5 -31q0 -19 15 -30t37 -11q6 0 12 0.5t12 1.5q27 3 41.5 -8t16 -28.5t-9 -33.5t-33.5 -23q-18 -5 -36 -6.5t-32 -1.5zM385 483l-78 -188h159l-79 188h-2z" />
    <glyph glyph-name="aogonek" unicode="&#x105;" horiz-adv-x="580" 
d="M442 -200q-69 0 -105.5 31.5t-36.5 84.5q0 34 17 62.5t46 48.5q-13 18 -16 44q-11 -38 -44 -60.5t-82 -22.5q-59 0 -104 21.5t-70 59t-25 85.5q0 54 28 85t90 44.5t163 13.5h39v9q0 29 -16 39.5t-57 10.5q-22 0 -49.5 -4.5t-65.5 -16.5q-31 -10 -53 -1.5t-33.5 27.5
t-11 42t15.5 43.5t46 31.5q48 17 88 22.5t73 5.5q131 0 195 -55.5t64 -174.5v-181q0 -95 -79 -104q-20 -2 -30 -19t-10 -32q0 -19 15 -30t37 -11q6 0 12 0.5t12 1.5q27 3 41.5 -8t16 -28.5t-9 -33.5t-33.5 -23q-18 -5 -36 -6.5t-32 -1.5zM270 121q29 0 50.5 19t21.5 50v16
h-40q-39 0 -61 -12t-22 -32q0 -18 12.5 -29.5t38.5 -11.5z" />
    <glyph glyph-name="Cacute" unicode="&#x106;" horiz-adv-x="692" 
d="M429 -12q-121 0 -208 45.5t-133.5 127.5t-46.5 192t46.5 191.5t133.5 127t208 45.5q41 0 88.5 -9t83.5 -26q33 -16 46 -42t10 -54t-18 -50.5t-39 -32t-53 2.5t-55 18t-55 6q-85 0 -127 -45.5t-42 -131.5q0 -87 42 -132.5t127 -45.5q20 0 46 4.5t52 14.5q34 14 61 5.5
t43.5 -30.5t20 -50t-9 -53.5t-43.5 -40.5q-32 -16 -81.5 -26.5t-96.5 -10.5zM480 774q-20 -19 -42.5 -19t-40 13.5t-23 33.5t8.5 41l58 87q16 24 38.5 28.5t44 -4.5t36 -27t15.5 -39t-19 -41z" />
    <glyph glyph-name="cacute" unicode="&#x107;" horiz-adv-x="491" 
d="M310 -12q-86 0 -150.5 31t-100 89.5t-35.5 138.5q0 81 35.5 139t100 89t150.5 31q27 0 55 -4t62 -15q28 -9 40.5 -30t12 -45.5t-12 -45t-32 -29t-47.5 3.5q-13 5 -27.5 7.5t-27.5 2.5q-46 0 -71 -27t-25 -77q0 -49 25 -76.5t71 -27.5q13 0 27.5 2t27.5 8q27 12 47.5 3.5
t32 -29t12 -45t-12 -45.5t-40.5 -30q-34 -11 -62 -15t-55 -4zM367 567q-16 -21 -38.5 -23.5t-42 8.5t-28 31t3.5 45l60 123q13 27 36 35t46.5 1t41 -24t21.5 -40t-15 -47z" />
    <glyph glyph-name="Ccircumflex" unicode="&#x108;" horiz-adv-x="692" 
d="M429 -12q-121 0 -208 45.5t-133.5 127.5t-46.5 192t46.5 191.5t133.5 127t208 45.5q41 0 88.5 -9t83.5 -26q33 -16 46 -42t10 -54t-18 -50.5t-39 -32t-53 2.5t-55 18t-55 6q-85 0 -127 -45.5t-42 -131.5q0 -87 42 -132.5t127 -45.5q20 0 46 4.5t52 14.5q34 14 61 5.5
t43.5 -30.5t20 -50t-9 -53.5t-43.5 -40.5q-32 -16 -81.5 -26.5t-96.5 -10.5zM339 776q-19 -20 -41.5 -21t-41 10.5t-24 31t9.5 40.5l44 61q44 62 115 62t115 -62l44 -61q15 -21 9.5 -40.5t-23.5 -31t-41 -10.5t-42 21l-62 65z" />
    <glyph glyph-name="ccircumflex" unicode="&#x109;" horiz-adv-x="491" 
d="M310 -12q-86 0 -150.5 31t-100 89.5t-35.5 138.5q0 81 35.5 139t100 89t150.5 31q27 0 55 -4t62 -15q28 -9 40.5 -30t12 -45.5t-12 -45t-32 -29t-47.5 3.5q-13 5 -27.5 7.5t-27.5 2.5q-46 0 -71 -27t-25 -77q0 -49 25 -76.5t71 -27.5q13 0 27.5 2t27.5 8q27 12 47.5 3.5
t32 -29t12 -45t-12 -45.5t-40.5 -30q-34 -11 -62 -15t-55 -4zM455 625q13 -24 6 -43.5t-25 -30t-39.5 -7.5t-36.5 24l-66 93l-66 -93q-15 -21 -36.5 -24t-39.5 7.5t-25 30t6 43.5l50 92q18 34 46 53.5t65 19.5q38 0 65.5 -19.5t45.5 -53.5z" />
    <glyph glyph-name="Cdotaccent" unicode="&#x10a;" horiz-adv-x="692" 
d="M429 -12q-121 0 -208 45.5t-133.5 127.5t-46.5 192t46.5 191.5t133.5 127t208 45.5q41 0 88.5 -9t83.5 -26q33 -16 46 -42t10 -54t-18 -50.5t-39 -32t-53 2.5t-55 18t-55 6q-85 0 -127 -45.5t-42 -131.5q0 -87 42 -132.5t127 -45.5q20 0 46 4.5t52 14.5q34 14 61 5.5
t43.5 -30.5t20 -50t-9 -53.5t-43.5 -40.5q-32 -16 -81.5 -26.5t-96.5 -10.5zM401 763q-46 0 -71 24t-25 67q0 44 25 67t71 23q47 0 71.5 -23t24.5 -67q0 -91 -96 -91z" />
    <glyph glyph-name="cdotaccent" unicode="&#x10b;" horiz-adv-x="491" 
d="M310 -12q-86 0 -150.5 31t-100 89.5t-35.5 138.5q0 81 35.5 139t100 89t150.5 31q27 0 55 -4t62 -15q28 -9 40.5 -30t12 -45.5t-12 -45t-32 -29t-47.5 3.5q-13 5 -27.5 7.5t-27.5 2.5q-46 0 -71 -27t-25 -77q0 -49 25 -76.5t71 -27.5q13 0 27.5 2t27.5 8q27 12 47.5 3.5
t32 -29t12 -45t-12 -45.5t-40.5 -30q-34 -11 -62 -15t-55 -4zM294 569q-46 0 -71 24t-25 67q0 44 25 67t71 23q47 0 71.5 -23t24.5 -67q0 -91 -96 -91z" />
    <glyph glyph-name="Ccaron" unicode="&#x10c;" horiz-adv-x="692" 
d="M429 -12q-121 0 -208 45.5t-133.5 127.5t-46.5 192t46.5 191.5t133.5 127t208 45.5q41 0 88.5 -9t83.5 -26q33 -16 46 -42t10 -54t-18 -50.5t-39 -32t-53 2.5t-55 18t-55 6q-85 0 -127 -45.5t-42 -131.5q0 -87 42 -132.5t127 -45.5q20 0 46 4.5t52 14.5q34 14 61 5.5
t43.5 -30.5t20 -50t-9 -53.5t-43.5 -40.5q-32 -16 -81.5 -26.5t-96.5 -10.5zM401 746q-71 0 -115 62l-44 61q-15 21 -9.5 40.5t24 31t41 10.5t41.5 -21l62 -65l62 65q19 20 42 21t41 -10.5t23.5 -31t-9.5 -40.5l-44 -61q-44 -62 -115 -62z" />
    <glyph glyph-name="ccaron" unicode="&#x10d;" horiz-adv-x="491" 
d="M310 -12q-86 0 -150.5 31t-100 89.5t-35.5 138.5q0 81 35.5 139t100 89t150.5 31q27 0 55 -4t62 -15q28 -9 40.5 -30t12 -45.5t-12 -45t-32 -29t-47.5 3.5q-13 5 -27.5 7.5t-27.5 2.5q-46 0 -71 -27t-25 -77q0 -49 25 -76.5t71 -27.5q13 0 27.5 2t27.5 8q27 12 47.5 3.5
t32 -29t12 -45t-12 -45.5t-40.5 -30q-34 -11 -62 -15t-55 -4zM294 533q-37 0 -65 19.5t-46 53.5l-50 92q-13 24 -6 43.5t25 30t39.5 7.5t36.5 -24l66 -93l66 93q15 21 36.5 24t39.5 -7.5t25 -30t-6 -43.5l-50 -92q-18 -34 -45.5 -53.5t-65.5 -19.5z" />
    <glyph glyph-name="Dcaron" unicode="&#x10e;" horiz-adv-x="800" 
d="M168 0q-54 0 -82.5 28.5t-28.5 82.5v483q0 54 28.5 82.5t82.5 28.5h197q188 0 291 -92.5t103 -259.5t-103 -260t-291 -93h-197zM272 174h80q94 0 139 44t45 135q0 92 -45.5 135t-138.5 43h-80v-357zM395 746q-71 0 -115 62l-44 61q-15 21 -9.5 40.5t24 31t41 10.5
t41.5 -21l62 -65l62 65q19 20 42 21t41 -10.5t23.5 -31t-9.5 -40.5l-44 -61q-44 -62 -115 -62z" />
    <glyph glyph-name="dcaron" unicode="&#x10f;" horiz-adv-x="632" 
d="M239 -12q-62 0 -111 31t-76.5 89.5t-27.5 138.5q0 81 27.5 139t76 89t111.5 31q44 0 82 -17.5t59 -46.5v168q0 51 27 78t77 27t77 -27t27 -78v-515q0 -51 -26 -78t-76 -27q-84 0 -100 73q-19 -34 -59 -54.5t-88 -20.5zM308 140q32 0 53.5 24t21.5 83t-21.5 83t-53.5 24
t-53.5 -24t-21.5 -83t21.5 -83t53.5 -24zM661 498q-43 0 -43 48v110q0 59 59 59q29 0 43 -16.5t9 -46.5l-18 -110q-7 -44 -50 -44z" />
    <glyph glyph-name="Dcroat" unicode="&#x110;" horiz-adv-x="800" 
d="M168 0q-54 0 -82.5 28.5t-28.5 82.5v483q0 54 28.5 82.5t82.5 28.5h197q188 0 291 -92.5t103 -259.5t-103 -260t-291 -93h-197zM272 174h80q94 0 139 44t45 135q0 92 -45.5 135t-138.5 43h-80v-357zM43 280q-37 0 -57.5 19.5t-20.5 55.5t20.5 55.5t57.5 19.5h339
q38 0 58 -19.5t20 -55.5t-20 -55.5t-58 -19.5h-339z" />
    <glyph glyph-name="dcroat" unicode="&#x111;" horiz-adv-x="632" 
d="M239 -12q-62 0 -111 30t-76.5 86t-27.5 133q0 78 27.5 133.5t76 85.5t111.5 30q45 0 83 -18t58 -46v103h-115q-71 0 -71 70t71 70h122q11 22 35.5 36t61.5 14t61.5 -14t34.5 -36h23q71 0 71 -70t-71 -70h-15v-430q0 -51 -26 -78t-76 -27q-85 0 -100 73q-18 -33 -58 -54
t-89 -21zM308 140q32 0 53.5 22.5t21.5 74.5t-21.5 74.5t-53.5 22.5t-53.5 -22.5t-21.5 -74.5t21.5 -74.5t53.5 -22.5z" />
    <glyph glyph-name="Emacron" unicode="&#x112;" horiz-adv-x="624" 
d="M168 0q-54 0 -82.5 28.5t-28.5 82.5v483q0 54 28.5 82.5t82.5 28.5h330q83 0 83 -82t-83 -82h-236v-101h213q83 0 83 -82t-83 -82h-213v-112h236q83 0 83 -82t-83 -82h-330zM193 790q-57 0 -57 55t57 55h286q57 0 57 -55t-57 -55h-286z" />
    <glyph glyph-name="emacron" unicode="&#x113;" horiz-adv-x="563" 
d="M328 -12q-94 0 -162.5 32t-105 90.5t-36.5 137.5q0 76 34.5 134t95 91t137.5 33t133.5 -32t87.5 -90.5t31 -137.5q0 -40 -45 -40h-275q9 -37 36.5 -51.5t74.5 -14.5q20 0 46.5 4.5t50.5 11.5q29 9 50 0t32 -27.5t11.5 -41.5t-11.5 -43t-38 -30q-65 -26 -147 -26zM301 373
q-32 0 -53 -18t-28 -58h153q-3 40 -21.5 58t-50.5 18zM165 599q-57 0 -57 55t57 55h256q57 0 57 -55t-57 -55h-256z" />
    <glyph glyph-name="Ebreve" unicode="&#x114;" horiz-adv-x="624" 
d="M168 0q-54 0 -82.5 28.5t-28.5 82.5v483q0 54 28.5 82.5t82.5 28.5h330q83 0 83 -82t-83 -82h-236v-101h213q83 0 83 -82t-83 -82h-213v-112h236q83 0 83 -82t-83 -82h-330zM336 760q-73 0 -125.5 32t-69.5 81q-13 31 1 50.5t40 22.5q23 3 36.5 -5t22 -19.5t16.5 -20.5
q26 -28 79 -28q27 0 46.5 7.5t32.5 20.5q9 9 17 20.5t21.5 19.5t36.5 5q26 -3 39 -22t2 -51q-16 -49 -69 -81t-126 -32z" />
    <glyph glyph-name="ebreve" unicode="&#x115;" horiz-adv-x="563" 
d="M328 -12q-94 0 -162.5 32t-105 90.5t-36.5 137.5q0 76 34.5 134t95 91t137.5 33t133.5 -32t87.5 -90.5t31 -137.5q0 -40 -45 -40h-275q9 -37 36.5 -51.5t74.5 -14.5q20 0 46.5 4.5t50.5 11.5q29 9 50 0t32 -27.5t11.5 -41.5t-11.5 -43t-38 -30q-65 -26 -147 -26zM301 373
q-32 0 -53 -18t-28 -58h153q-3 40 -21.5 58t-50.5 18zM293 554q-55 0 -93.5 21t-60.5 53.5t-28 65.5q-7 32 8 50.5t41 20.5q27 2 40 -12.5t27 -42.5q21 -40 66 -40t66 40q14 28 27 42.5t40 12.5q26 -2 41.5 -20.5t7.5 -50.5q-6 -33 -28 -65.5t-60.5 -53.5t-93.5 -21z" />
    <glyph glyph-name="Edotaccent" unicode="&#x116;" horiz-adv-x="624" 
d="M168 0q-54 0 -82.5 28.5t-28.5 82.5v483q0 54 28.5 82.5t82.5 28.5h330q83 0 83 -82t-83 -82h-236v-101h213q83 0 83 -82t-83 -82h-213v-112h236q83 0 83 -82t-83 -82h-330zM336 763q-46 0 -71 24t-25 67q0 44 25 67t71 23q47 0 71.5 -23t24.5 -67q0 -91 -96 -91z" />
    <glyph glyph-name="edotaccent" unicode="&#x117;" horiz-adv-x="563" 
d="M328 -12q-94 0 -162.5 32t-105 90.5t-36.5 137.5q0 76 34.5 134t95 91t137.5 33t133.5 -32t87.5 -90.5t31 -137.5q0 -40 -45 -40h-275q9 -37 36.5 -51.5t74.5 -14.5q20 0 46.5 4.5t50.5 11.5q29 9 50 0t32 -27.5t11.5 -41.5t-11.5 -43t-38 -30q-65 -26 -147 -26zM301 373
q-32 0 -53 -18t-28 -58h153q-3 40 -21.5 58t-50.5 18zM293 569q-46 0 -71 24t-25 67q0 44 25 67t71 23q47 0 71.5 -23t24.5 -67q0 -91 -96 -91z" />
    <glyph glyph-name="Eogonek" unicode="&#x118;" horiz-adv-x="624" 
d="M168 0q-54 0 -82.5 28.5t-28.5 82.5v483q0 54 28.5 82.5t82.5 28.5h330q83 0 83 -82t-83 -82h-236v-101h213q83 0 83 -82t-83 -82h-213v-112h236q83 0 83 -82t-83 -82h-330zM480 -200q-69 0 -105.5 31.5t-36.5 84.5q0 47 32 83.5t82 52.5l54 -52q-28 -10 -38.5 -27
t-10.5 -33q0 -19 15 -30t37 -11q6 0 12 0.5t12 1.5q27 3 41.5 -8t16 -28.5t-9 -33.5t-33.5 -23q-18 -5 -36 -6.5t-32 -1.5z" />
    <glyph glyph-name="eogonek" unicode="&#x119;" horiz-adv-x="563" 
d="M328 -12q-94 0 -162.5 32t-105 90.5t-36.5 137.5q0 76 34.5 134t95 91t137.5 33t133.5 -32t87.5 -90.5t31 -137.5q0 -40 -45 -40h-275q9 -37 36.5 -51.5t74.5 -14.5q20 0 46.5 4.5t50.5 11.5q29 9 50 0t32 -27.5t11.5 -41.5t-11.5 -43t-38 -30q-65 -26 -147 -26zM301 373
q-32 0 -53 -18t-28 -58h153q-3 40 -21.5 58t-50.5 18zM375 -200q-69 0 -105.5 31.5t-36.5 84.5q0 47 32 83.5t82 52.5l54 -52q-28 -10 -38.5 -27t-10.5 -33q0 -19 15 -30t37 -11q6 0 12 0.5t12 1.5q27 3 41.5 -8t16 -28.5t-9 -33.5t-33.5 -23q-18 -5 -36 -6.5t-32 -1.5z" />
    <glyph glyph-name="Ecaron" unicode="&#x11a;" horiz-adv-x="624" 
d="M168 0q-54 0 -82.5 28.5t-28.5 82.5v483q0 54 28.5 82.5t82.5 28.5h330q83 0 83 -82t-83 -82h-236v-101h213q83 0 83 -82t-83 -82h-213v-112h236q83 0 83 -82t-83 -82h-330zM336 746q-71 0 -115 62l-44 61q-15 21 -9.5 40.5t24 31t41 10.5t41.5 -21l62 -65l62 65
q19 20 42 21t41 -10.5t23.5 -31t-9.5 -40.5l-44 -61q-44 -62 -115 -62z" />
    <glyph glyph-name="ecaron" unicode="&#x11b;" horiz-adv-x="563" 
d="M328 -12q-94 0 -162.5 32t-105 90.5t-36.5 137.5q0 76 34.5 134t95 91t137.5 33t133.5 -32t87.5 -90.5t31 -137.5q0 -40 -45 -40h-275q9 -37 36.5 -51.5t74.5 -14.5q20 0 46.5 4.5t50.5 11.5q29 9 50 0t32 -27.5t11.5 -41.5t-11.5 -43t-38 -30q-65 -26 -147 -26zM301 373
q-32 0 -53 -18t-28 -58h153q-3 40 -21.5 58t-50.5 18zM293 533q-37 0 -65 19.5t-46 53.5l-50 92q-13 24 -6 43.5t25 30t39.5 7.5t36.5 -24l66 -93l66 93q15 21 36.5 24t39.5 -7.5t25 -30t-6 -43.5l-50 -92q-18 -34 -45.5 -53.5t-65.5 -19.5z" />
    <glyph glyph-name="Gcircumflex" unicode="&#x11c;" horiz-adv-x="754" 
d="M429 -12q-124 0 -210.5 46t-132 127t-45.5 187q0 112 48.5 195t139.5 128.5t219 45.5q47 0 96 -7.5t100 -29.5q30 -13 42 -37.5t9 -52.5t-18.5 -51t-42 -32t-60.5 5q-25 10 -57.5 16t-66.5 6q-95 0 -140.5 -47t-45.5 -139q0 -90 45.5 -135.5t132.5 -45.5q36 0 85 11v80
h-47q-83 0 -83 74t83 74h138q83 0 83 -83v-209q0 -35 -14.5 -59t-46.5 -35q-101 -32 -211 -32zM357 776q-19 -20 -41.5 -21t-41 10.5t-24 31t9.5 40.5l44 61q44 62 115 62t115 -62l44 -61q15 -21 9.5 -40.5t-23.5 -31t-41 -10.5t-42 21l-62 65z" />
    <glyph glyph-name="gcircumflex" unicode="&#x11d;" horiz-adv-x="638" 
d="M297 -192q-55 0 -101.5 6.5t-78.5 16.5q-34 10 -49 31.5t-15.5 46t11 45t32 30.5t45.5 1q44 -15 78 -20t57 -5q59 0 87.5 21.5t28.5 70.5v32q-21 -31 -62 -51t-87 -20q-65 0 -114.5 30.5t-77 86t-27.5 129.5q0 75 27.5 130.5t77 86t114.5 30.5q49 0 90 -20.5t59 -53.5
q17 72 100 72q50 0 76 -27t26 -78v-324q0 -133 -77 -200t-220 -67zM311 165q35 0 56.5 24t21.5 70t-21.5 70.5t-56.5 24.5t-56.5 -24.5t-21.5 -70.5t21.5 -70t56.5 -24zM478 625q13 -24 6 -43.5t-25 -30t-39.5 -7.5t-36.5 24l-66 93l-66 -93q-15 -21 -36.5 -24t-39.5 7.5
t-25 30t6 43.5l50 92q18 34 46 53.5t65 19.5q38 0 65.5 -19.5t45.5 -53.5z" />
    <glyph glyph-name="Gbreve" unicode="&#x11e;" horiz-adv-x="754" 
d="M429 -12q-124 0 -210.5 46t-132 127t-45.5 187q0 112 48.5 195t139.5 128.5t219 45.5q47 0 96 -7.5t100 -29.5q30 -13 42 -37.5t9 -52.5t-18.5 -51t-42 -32t-60.5 5q-25 10 -57.5 16t-66.5 6q-95 0 -140.5 -47t-45.5 -139q0 -90 45.5 -135.5t132.5 -45.5q36 0 85 11v80
h-47q-83 0 -83 74t83 74h138q83 0 83 -83v-209q0 -35 -14.5 -59t-46.5 -35q-101 -32 -211 -32zM419 760q-73 0 -125.5 32t-69.5 81q-13 31 1 50.5t40 22.5q23 3 36.5 -5t22 -19.5t16.5 -20.5q26 -28 79 -28q27 0 46.5 7.5t32.5 20.5q9 9 17 20.5t21.5 19.5t36.5 5
q26 -3 39 -22t2 -51q-16 -49 -69 -81t-126 -32z" />
    <glyph glyph-name="gbreve" unicode="&#x11f;" horiz-adv-x="638" 
d="M297 -192q-55 0 -101.5 6.5t-78.5 16.5q-34 10 -49 31.5t-15.5 46t11 45t32 30.5t45.5 1q44 -15 78 -20t57 -5q59 0 87.5 21.5t28.5 70.5v32q-21 -31 -62 -51t-87 -20q-65 0 -114.5 30.5t-77 86t-27.5 129.5q0 75 27.5 130.5t77 86t114.5 30.5q49 0 90 -20.5t59 -53.5
q17 72 100 72q50 0 76 -27t26 -78v-324q0 -133 -77 -200t-220 -67zM311 165q35 0 56.5 24t21.5 70t-21.5 70.5t-56.5 24.5t-56.5 -24.5t-21.5 -70.5t21.5 -70t56.5 -24zM317 554q-55 0 -93.5 21t-60.5 53.5t-28 65.5q-7 32 8 50.5t41 20.5q27 2 40 -12.5t27 -42.5
q21 -40 66 -40t66 40q14 28 27 42.5t40 12.5q26 -2 41.5 -20.5t7.5 -50.5q-6 -33 -28 -65.5t-60.5 -53.5t-93.5 -21z" />
    <glyph glyph-name="Gdotaccent" unicode="&#x120;" horiz-adv-x="754" 
d="M429 -12q-124 0 -210.5 46t-132 127t-45.5 187q0 112 48.5 195t139.5 128.5t219 45.5q47 0 96 -7.5t100 -29.5q30 -13 42 -37.5t9 -52.5t-18.5 -51t-42 -32t-60.5 5q-25 10 -57.5 16t-66.5 6q-95 0 -140.5 -47t-45.5 -139q0 -90 45.5 -135.5t132.5 -45.5q36 0 85 11v80
h-47q-83 0 -83 74t83 74h138q83 0 83 -83v-209q0 -35 -14.5 -59t-46.5 -35q-101 -32 -211 -32zM419 763q-46 0 -71 24t-25 67q0 44 25 67t71 23q47 0 71.5 -23t24.5 -67q0 -91 -96 -91z" />
    <glyph glyph-name="gdotaccent" unicode="&#x121;" horiz-adv-x="638" 
d="M297 -192q-55 0 -101.5 6.5t-78.5 16.5q-34 10 -49 31.5t-15.5 46t11 45t32 30.5t45.5 1q44 -15 78 -20t57 -5q59 0 87.5 21.5t28.5 70.5v32q-21 -31 -62 -51t-87 -20q-65 0 -114.5 30.5t-77 86t-27.5 129.5q0 75 27.5 130.5t77 86t114.5 30.5q49 0 90 -20.5t59 -53.5
q17 72 100 72q50 0 76 -27t26 -78v-324q0 -133 -77 -200t-220 -67zM311 165q35 0 56.5 24t21.5 70t-21.5 70.5t-56.5 24.5t-56.5 -24.5t-21.5 -70.5t21.5 -70t56.5 -24zM317 569q-46 0 -71 24t-25 67q0 44 25 67t71 23q47 0 71.5 -23t24.5 -67q0 -91 -96 -91z" />
    <glyph glyph-name="uni0122" unicode="&#x122;" horiz-adv-x="754" 
d="M429 -12q-124 0 -210.5 46t-132 127t-45.5 187q0 112 48.5 195t139.5 128.5t219 45.5q47 0 96 -7.5t100 -29.5q30 -13 42 -37.5t9 -52.5t-18.5 -51t-42 -32t-60.5 5q-25 10 -57.5 16t-66.5 6q-95 0 -140.5 -47t-45.5 -139q0 -90 45.5 -135.5t132.5 -45.5q36 0 85 11v80
h-47q-83 0 -83 74t83 74h138q83 0 83 -83v-209q0 -35 -14.5 -59t-46.5 -35q-101 -32 -211 -32zM475 -278q-13 -15 -30.5 -17.5t-31.5 5.5t-17.5 24t10.5 36q6 9 11 21q-91 4 -91 80q0 79 99 79q98 0 98 -90q0 -37 -11.5 -73t-36.5 -65z" />
    <glyph glyph-name="uni0123" unicode="&#x123;" horiz-adv-x="638" 
d="M297 -192q-55 0 -101.5 6.5t-78.5 16.5q-34 10 -49 31.5t-15.5 46t11 45t32 30.5t45.5 1q44 -15 78 -20t57 -5q59 0 87.5 21.5t28.5 70.5v32q-21 -31 -62 -51t-87 -20q-65 0 -114.5 30.5t-77 86t-27.5 129.5q0 75 27.5 130.5t77 86t114.5 30.5q49 0 90 -20.5t59 -53.5
q17 72 100 72q50 0 76 -27t26 -78v-324q0 -133 -77 -200t-220 -67zM311 165q35 0 56.5 24t21.5 70t-21.5 70.5t-56.5 24.5t-56.5 -24.5t-21.5 -70.5t21.5 -70t56.5 -24zM317 548q-98 0 -98 90q0 38 11.5 74t36.5 64q14 15 31 17.5t31 -5.5t17.5 -24t-10.5 -36q-6 -9 -11 -21
q91 -4 91 -80q0 -79 -99 -79z" />
    <glyph glyph-name="Hcircumflex" unicode="&#x124;" horiz-adv-x="794" 
d="M165 -10q-52 0 -80 28.5t-28 81.5v505q0 53 28 81.5t80 28.5t79.5 -28.5t27.5 -81.5v-160h250v160q0 53 28 81.5t80 28.5t79.5 -28.5t27.5 -81.5v-505q0 -53 -27.5 -81.5t-79.5 -28.5t-80 28.5t-28 81.5v169h-250v-169q0 -53 -27 -81.5t-80 -28.5zM335 776
q-19 -20 -41.5 -21t-41 10.5t-24 31t9.5 40.5l44 61q44 62 115 62t115 -62l44 -61q15 -21 9.5 -40.5t-23.5 -31t-41 -10.5t-42 21l-62 65z" />
    <glyph glyph-name="hcircumflex" unicode="&#x125;" horiz-adv-x="618" 
d="M148 -10q-50 0 -77 27t-27 78v515q0 51 27 78t77 27t77 -27t27 -78v-172q26 32 65 50t86 18q88 0 130.5 -53.5t42.5 -165.5v-192q0 -51 -27 -78t-77 -27t-77 27t-27 78v184q0 38 -12 53.5t-34 15.5q-31 0 -50.5 -20.5t-19.5 -55.5v-177q0 -105 -104 -105zM248 776
q-19 -20 -41.5 -21t-41 10.5t-24 31t9.5 40.5l44 61q44 62 115 62t115 -62l44 -61q15 -21 9.5 -40.5t-23.5 -31t-41 -10.5t-42 21l-62 65z" />
    <glyph glyph-name="Hbar" unicode="&#x126;" horiz-adv-x="854" 
d="M195 -10q-52 0 -80 28.5t-28 81.5v395h-8q-76 0 -76 75t76 75h13q19 70 103 70q83 0 102 -70h260q19 70 103 70q83 0 102 -70h13q76 0 76 -75t-76 -75h-8v-395q0 -53 -27.5 -81.5t-79.5 -28.5t-80 28.5t-28 81.5v149h-250v-149q0 -53 -27 -81.5t-80 -28.5zM302 425h250
v70h-250v-70z" />
    <glyph glyph-name="hbar" unicode="&#x127;" horiz-adv-x="618" 
d="M148 -10q-50 0 -77 27t-27 78v430h-15q-71 0 -71 70t71 70h24q24 50 95 50t95 -50h124q71 0 71 -70t-71 -70h-115v-107q26 32 65 50t86 18q88 0 130.5 -53.5t42.5 -165.5v-172q0 -51 -27 -78t-77 -27t-77 27t-27 78v164q0 38 -12 53.5t-34 15.5q-31 0 -50.5 -20.5
t-19.5 -55.5v-157q0 -105 -104 -105z" />
    <glyph glyph-name="Itilde" unicode="&#x128;" horiz-adv-x="329" 
d="M165 -10q-52 0 -80 28.5t-28 81.5v505q0 53 28 81.5t80 28.5t79.5 -28.5t27.5 -81.5v-505q0 -53 -27 -81.5t-80 -28.5zM-36 749q-24 2 -36.5 15.5t-7.5 38.5q14 63 56.5 96.5t98.5 33.5q38 0 69 -11.5t58.5 -23.5t53.5 -12q34 0 51 20q14 17 25 27.5t32 8.5
q24 -1 36.5 -15t7.5 -39q-13 -63 -56 -96.5t-99 -33.5q-38 0 -69 12t-58 23.5t-54 11.5q-34 0 -51 -20q-14 -17 -25 -27t-32 -9z" />
    <glyph glyph-name="itilde" unicode="&#x129;" horiz-adv-x="296" 
d="M148 -10q-50 0 -77 29t-27 84v288q0 55 27 84t77 29t77 -29t27 -84v-288q0 -55 -26.5 -84t-77.5 -29zM-25 570q-48 3 -41 55q2 16 10.5 37.5t25.5 42.5t42 35t60 14t58 -11.5t43 -23.5t45 -12q29 0 44 19q14 18 25.5 28t31.5 9q26 -1 36 -16.5t7 -38.5t-18.5 -53.5
t-45 -53t-74.5 -22.5q-34 0 -57.5 12t-43.5 23.5t-45 11.5q-28 0 -44 -19q-9 -10 -21 -24t-38 -13z" />
    <glyph glyph-name="Imacron" unicode="&#x12a;" horiz-adv-x="329" 
d="M165 -10q-52 0 -80 28.5t-28 81.5v505q0 53 28 81.5t80 28.5t79.5 -28.5t27.5 -81.5v-505q0 -53 -27 -81.5t-80 -28.5zM21 790q-57 0 -57 55t57 55h286q57 0 57 -55t-57 -55h-286z" />
    <glyph glyph-name="imacron" unicode="&#x12b;" horiz-adv-x="296" 
d="M148 -10q-50 0 -77 29t-27 84v288q0 55 27 84t77 29t77 -29t27 -84v-288q0 -55 -26.5 -84t-77.5 -29zM20 599q-57 0 -57 55t57 55h256q57 0 57 -55t-57 -55h-256z" />
    <glyph glyph-name="Ibreve" unicode="&#x12c;" horiz-adv-x="329" 
d="M165 -10q-52 0 -80 28.5t-28 81.5v505q0 53 28 81.5t80 28.5t79.5 -28.5t27.5 -81.5v-505q0 -53 -27 -81.5t-80 -28.5zM164 760q-73 0 -125.5 32t-69.5 81q-13 31 1 50.5t40 22.5q23 3 36.5 -5t22 -19.5t16.5 -20.5q26 -28 79 -28q27 0 46.5 7.5t32.5 20.5q9 9 17 20.5
t21.5 19.5t36.5 5q26 -3 39 -22t2 -51q-16 -49 -69 -81t-126 -32z" />
    <glyph glyph-name="ibreve" unicode="&#x12d;" horiz-adv-x="296" 
d="M148 -10q-50 0 -77 29t-27 84v288q0 55 27 84t77 29t77 -29t27 -84v-288q0 -55 -26.5 -84t-77.5 -29zM148 554q-55 0 -93.5 21t-60.5 53.5t-28 65.5q-7 32 8 50.5t41 20.5q27 2 40 -12.5t27 -42.5q21 -40 66 -40t66 40q14 28 27 42.5t40 12.5q26 -2 41.5 -20.5t7.5 -50.5
q-6 -33 -28 -65.5t-60.5 -53.5t-93.5 -21z" />
    <glyph glyph-name="Iogonek" unicode="&#x12e;" horiz-adv-x="329" 
d="M191 -200q-69 0 -105.5 31.5t-36.5 84.5q0 56 44 95q-36 29 -36 89v505q0 53 28 81.5t80 28.5t79.5 -28.5t27.5 -81.5v-505q0 -79 -60 -103q-26 -10 -35 -26t-9 -31q0 -19 15 -30t37 -11q6 0 12 0.5t12 1.5q27 3 41.5 -8t16 -28.5t-9 -33.5t-33.5 -23q-18 -5 -36 -6.5
t-32 -1.5z" />
    <glyph glyph-name="iogonek" unicode="&#x12f;" horiz-adv-x="296" 
d="M148 562q-55 0 -84 25t-29 72t29 72t84 25t84 -25t29 -72t-29 -72t-84 -25zM174 -200q-69 0 -105.5 31.5t-36.5 84.5q0 28 12.5 53t33.5 44q-34 30 -34 90v288q0 55 27 84t77 29t77 -29t27 -84v-288q0 -38 -13.5 -65.5t-42.5 -39.5q-25 -10 -35 -26t-10 -32q0 -19 15 -30
t37 -11q6 0 12 0.5t12 1.5q27 3 41.5 -8t16 -28.5t-9 -33.5t-33.5 -23q-18 -5 -36 -6.5t-32 -1.5z" />
    <glyph glyph-name="Idotaccent" unicode="&#x130;" horiz-adv-x="329" 
d="M165 -10q-52 0 -80 28.5t-28 81.5v505q0 53 28 81.5t80 28.5t79.5 -28.5t27.5 -81.5v-505q0 -53 -27 -81.5t-80 -28.5zM164 763q-46 0 -71 24t-25 67q0 44 25 67t71 23q47 0 71.5 -23t24.5 -67q0 -91 -96 -91z" />
    <glyph glyph-name="dotlessi" unicode="&#x131;" horiz-adv-x="296" 
d="M148 -10q-50 0 -77 29t-27 84v288q0 55 27 84t77 29t77 -29t27 -84v-288q0 -55 -26.5 -84t-77.5 -29z" />
    <glyph glyph-name="IJ" unicode="&#x132;" horiz-adv-x="740" 
d="M165 -10q-52 0 -80 28.5t-28 81.5v505q0 53 28 81.5t80 28.5t79.5 -28.5t27.5 -81.5v-505q0 -53 -27 -81.5t-80 -28.5zM409 -9q-46 -2 -71 24t-25 67q0 32 17.5 55t51.5 25l27 2q32 2 45.5 12.5t13.5 40.5v389q0 53 28 81t80 28t79.5 -28t27.5 -81v-385
q0 -109 -58.5 -165t-178.5 -63z" />
    <glyph glyph-name="Jcircumflex" unicode="&#x134;" horiz-adv-x="411" 
d="M80 -9q-46 -2 -71 24t-25 67q0 32 17.5 55t51.5 25l27 2q32 2 45.5 12.5t13.5 40.5v389q0 53 28 81t80 28t79.5 -28t27.5 -81v-385q0 -109 -58.5 -165t-178.5 -63zM184 776q-19 -20 -41.5 -21t-41 10.5t-24 31t9.5 40.5l44 61q44 62 115 62t115 -62l44 -61
q15 -21 9.5 -40.5t-23.5 -31t-41 -10.5t-42 21l-62 65z" />
    <glyph glyph-name="jcircumflex" unicode="&#x135;" horiz-adv-x="303" 
d="M33 -186q-36 0 -57 14t-28.5 34.5t-3.5 42t19 36.5t38 17q49 4 49 50v391q0 51 27 78t77 27t77 -27t27 -78v-370q0 -104 -54.5 -159.5t-170.5 -55.5zM314 625q13 -24 6 -43.5t-25 -30t-39.5 -7.5t-36.5 24l-66 93l-66 -93q-15 -21 -36.5 -24t-39.5 7.5t-25 30t6 43.5
l50 92q18 34 46 53.5t65 19.5q38 0 65.5 -19.5t45.5 -53.5z" />
    <glyph glyph-name="uni0136" unicode="&#x136;" horiz-adv-x="739" 
d="M165 -10q-52 0 -80 28.5t-28 80.5v507q0 53 28 81t80 28t79.5 -28t27.5 -81v-198h2l219 257q20 23 44.5 36t56.5 13q48 0 70 -25t21 -58.5t-26 -60.5l-177 -198l189 -230q28 -34 28 -69.5t-24.5 -59t-70.5 -23.5q-40 0 -64 16t-50 47l-216 261h-2v-215q0 -52 -27 -80.5
t-80 -28.5zM411 -278q-13 -15 -30.5 -17.5t-31.5 5.5t-17.5 24t10.5 36q6 9 11 21q-91 4 -91 80q0 79 99 79q98 0 98 -90q0 -37 -11.5 -73t-36.5 -65z" />
    <glyph glyph-name="uni0137" unicode="&#x137;" horiz-adv-x="605" 
d="M148 -10q-50 0 -77 27t-27 78v515q0 51 27 78t77 27t77 -27t27 -78v-308h2l99 133q27 36 52.5 52.5t68.5 16.5t66.5 -21t25 -52.5t-23.5 -63.5l-83 -108l98 -139q24 -33 19 -63t-30.5 -48.5t-64.5 -18.5q-47 0 -75 16.5t-54 53.5l-98 138h-2v-103q0 -105 -104 -105z
M351 -278q-13 -15 -30.5 -17.5t-31.5 5.5t-17.5 24t10.5 36q6 9 11 21q-91 4 -91 80q0 79 99 79q98 0 98 -90q0 -37 -11.5 -73t-36.5 -65z" />
    <glyph glyph-name="kgreenlandic" unicode="&#x138;" horiz-adv-x="605" 
d="M148 -10q-50 0 -77 27t-27 78v304q0 51 27 78t77 27t77 -27t27 -78v-97h2l99 133q27 36 52.5 52.5t68.5 16.5t66.5 -21t25 -52.5t-23.5 -63.5l-83 -108l98 -139q24 -33 19 -63t-30.5 -48.5t-64.5 -18.5q-47 0 -75 16.5t-54 53.5l-98 138h-2v-103q0 -105 -104 -105z" />
    <glyph glyph-name="Lacute" unicode="&#x139;" horiz-adv-x="598" 
d="M166 0q-52 0 -80.5 28.5t-28.5 80.5v487q0 53 28 81t80 28t79.5 -28t27.5 -81v-418h219q44 0 67.5 -23t23.5 -66t-23.5 -66t-67.5 -23h-325zM243 774q-20 -19 -42.5 -19t-40 13.5t-23 33.5t8.5 41l58 87q16 24 38.5 28.5t44 -4.5t36 -27t15.5 -39t-19 -41z" />
    <glyph glyph-name="lacute" unicode="&#x13a;" horiz-adv-x="364" 
d="M243 -12q-104 0 -151.5 54t-47.5 165v403q0 51 27 78t77 27t77 -27t27 -78v-398q0 -31 12 -45t27 -14q7 0 15 2t17 2q20 0 30 -15t10 -62q0 -40 -16 -59.5t-48 -26.5l-24.5 -3.5t-31.5 -2.5zM227 774q-20 -19 -42.5 -19t-40 13.5t-23 33.5t8.5 41l58 87q16 24 38.5 28.5
t44 -4.5t36 -27t15.5 -39t-19 -41z" />
    <glyph glyph-name="uni013B" unicode="&#x13b;" horiz-adv-x="598" 
d="M166 0q-52 0 -80.5 28.5t-28.5 80.5v487q0 53 28 81t80 28t79.5 -28t27.5 -81v-418h219q44 0 67.5 -23t23.5 -66t-23.5 -66t-67.5 -23h-325zM364 -278q-13 -15 -30.5 -17.5t-31.5 5.5t-17.5 24t10.5 36q6 9 11 21q-91 4 -91 80q0 79 99 79q98 0 98 -90q0 -37 -11.5 -73
t-36.5 -65z" />
    <glyph glyph-name="uni013C" unicode="&#x13c;" horiz-adv-x="364" 
d="M243 -12q-104 0 -151.5 54t-47.5 165v403q0 51 27 78t77 27t77 -27t27 -78v-398q0 -31 12 -45t27 -14q7 0 15 2t17 2q20 0 30 -15t10 -62q0 -40 -16 -59.5t-48 -26.5l-24.5 -3.5t-31.5 -2.5zM252 -278q-13 -15 -30.5 -17.5t-31.5 5.5t-17.5 24t10.5 36q6 9 11 21
q-91 4 -91 80q0 79 99 79q98 0 98 -90q0 -37 -11.5 -73t-36.5 -65z" />
    <glyph glyph-name="Lcaron" unicode="&#x13d;" horiz-adv-x="598" 
d="M166 0q-52 0 -80.5 28.5t-28.5 80.5v487q0 53 28 81t80 28t79.5 -28t27.5 -81v-418h219q44 0 67.5 -23t23.5 -66t-23.5 -66t-67.5 -23h-325zM421 438q-59 0 -59 62v142q0 36 19.5 54.5t54.5 18.5q72 0 64 -77l-15 -141q-6 -59 -64 -59z" />
    <glyph glyph-name="lcaron" unicode="&#x13e;" horiz-adv-x="364" 
d="M243 -12q-104 0 -151.5 54t-47.5 165v403q0 51 27 78t77 27t77 -27t27 -78v-398q0 -31 12 -45t27 -14q7 0 15 2t17 2q20 0 30 -15t10 -62q0 -40 -16 -59.5t-48 -26.5l-24.5 -3.5t-31.5 -2.5zM325 498q-43 0 -43 48v110q0 59 59 59q29 0 43 -16.5t9 -46.5l-18 -110
q-7 -44 -50 -44z" />
    <glyph glyph-name="Ldot" unicode="&#x13f;" horiz-adv-x="598" 
d="M166 0q-52 0 -80.5 28.5t-28.5 80.5v487q0 53 28 81t80 28t79.5 -28t27.5 -81v-418h219q44 0 67.5 -23t23.5 -66t-23.5 -66t-67.5 -23h-325zM465 293q-52 0 -82 30.5t-30 79.5t30 79t82 30q53 0 82 -30t29 -79t-29 -79.5t-82 -30.5z" />
    <glyph glyph-name="ldot" unicode="&#x140;" horiz-adv-x="503" 
d="M243 -12q-104 0 -151.5 54t-47.5 165v403q0 51 27 78t77 27t77 -27t27 -78v-398q0 -31 12 -45t27 -14q7 0 15 2t17 2q20 0 30 -15t10 -62q0 -40 -16 -59.5t-48 -26.5l-24.5 -3.5t-31.5 -2.5zM400 241q-52 0 -82 30.5t-30 79.5t30 79t82 30q53 0 82 -30t29 -79t-29 -79.5
t-82 -30.5z" />
    <glyph glyph-name="Lslash" unicode="&#x141;" horiz-adv-x="598" 
d="M166 0q-52 0 -80.5 28.5t-28.5 80.5v487q0 53 28 81t80 28t79.5 -28t27.5 -81v-418h219q44 0 67.5 -23t23.5 -66t-23.5 -66t-67.5 -23h-325zM66 211q-30 -17 -55.5 -14t-43 20t-23 40.5t4.5 47.5t40 41l369 215q30 17 55.5 14t43 -20t23.5 -41t-4 -48t-40 -41z" />
    <glyph glyph-name="lslash" unicode="&#x142;" horiz-adv-x="364" 
d="M243 -12q-104 0 -151.5 54t-47.5 165v403q0 51 27 78t77 27t77 -27t27 -78v-398q0 -31 12 -45t27 -14q7 0 15 2t17 2q20 0 30 -15t10 -62q0 -40 -16 -59.5t-48 -26.5l-24.5 -3.5t-31.5 -2.5zM61 209q-29 -17 -54.5 -13.5t-43 20t-23 40t4 47.5t38.5 41l272 159
q29 17 54.5 13.5t43 -20t23 -40t-4 -47.5t-38.5 -41z" />
    <glyph glyph-name="Nacute" unicode="&#x143;" horiz-adv-x="763" 
d="M157 -10q-49 0 -74.5 26t-25.5 75v518q0 51 25.5 78.5t68.5 27.5q36 0 57.5 -14.5t47.5 -46.5l250 -303v263q0 49 25.5 75t74.5 26t74.5 -26t25.5 -75v-528q0 -43 -23.5 -69.5t-63.5 -26.5t-63 14.5t-49 46.5l-250 303v-263q0 -49 -25.5 -75t-74.5 -26zM460 774
q-20 -19 -42.5 -19t-40 13.5t-23 33.5t8.5 41l58 87q16 24 38.5 28.5t44 -4.5t36 -27t15.5 -39t-19 -41z" />
    <glyph glyph-name="nacute" unicode="&#x144;" horiz-adv-x="618" 
d="M148 -10q-50 0 -77 27t-27 78v304q0 51 26.5 78t75.5 27q84 0 98 -76q26 37 67.5 57.5t91.5 20.5q88 0 130.5 -53.5t42.5 -165.5v-192q0 -51 -27 -78t-77 -27t-77 27t-27 78v184q0 38 -12 53.5t-34 15.5q-31 0 -50.5 -20.5t-19.5 -55.5v-177q0 -105 -104 -105zM384 567
q-16 -21 -38.5 -23.5t-42 8.5t-28 31t3.5 45l60 123q13 27 36 35t46.5 1t41 -24t21.5 -40t-15 -47z" />
    <glyph glyph-name="uni0145" unicode="&#x145;" horiz-adv-x="763" 
d="M157 -10q-49 0 -74.5 26t-25.5 75v518q0 51 25.5 78.5t68.5 27.5q36 0 57.5 -14.5t47.5 -46.5l250 -303v263q0 49 25.5 75t74.5 26t74.5 -26t25.5 -75v-528q0 -43 -23.5 -69.5t-63.5 -26.5t-63 14.5t-49 46.5l-250 303v-263q0 -49 -25.5 -75t-74.5 -26zM431 -278
q-13 -15 -30.5 -17.5t-31.5 5.5t-17.5 24t10.5 36q6 9 11 21q-91 4 -91 80q0 79 99 79q98 0 98 -90q0 -37 -11.5 -73t-36.5 -65z" />
    <glyph glyph-name="uni0146" unicode="&#x146;" horiz-adv-x="618" 
d="M148 -10q-50 0 -77 27t-27 78v304q0 51 26.5 78t75.5 27q84 0 98 -76q26 37 67.5 57.5t91.5 20.5q88 0 130.5 -53.5t42.5 -165.5v-192q0 -51 -27 -78t-77 -27t-77 27t-27 78v184q0 38 -12 53.5t-34 15.5q-31 0 -50.5 -20.5t-19.5 -55.5v-177q0 -105 -104 -105zM360 -278
q-13 -15 -30.5 -17.5t-31.5 5.5t-17.5 24t10.5 36q6 9 11 21q-91 4 -91 80q0 79 99 79q98 0 98 -90q0 -37 -11.5 -73t-36.5 -65z" />
    <glyph glyph-name="Ncaron" unicode="&#x147;" horiz-adv-x="763" 
d="M157 -10q-49 0 -74.5 26t-25.5 75v518q0 51 25.5 78.5t68.5 27.5q36 0 57.5 -14.5t47.5 -46.5l250 -303v263q0 49 25.5 75t74.5 26t74.5 -26t25.5 -75v-528q0 -43 -23.5 -69.5t-63.5 -26.5t-63 14.5t-49 46.5l-250 303v-263q0 -49 -25.5 -75t-74.5 -26zM381 746
q-71 0 -115 62l-44 61q-15 21 -9.5 40.5t24 31t41 10.5t41.5 -21l62 -65l62 65q19 20 42 21t41 -10.5t23.5 -31t-9.5 -40.5l-44 -61q-44 -62 -115 -62z" />
    <glyph glyph-name="ncaron" unicode="&#x148;" horiz-adv-x="618" 
d="M148 -10q-50 0 -77 27t-27 78v304q0 51 26.5 78t75.5 27q84 0 98 -76q26 37 67.5 57.5t91.5 20.5q88 0 130.5 -53.5t42.5 -165.5v-192q0 -51 -27 -78t-77 -27t-77 27t-27 78v184q0 38 -12 53.5t-34 15.5q-31 0 -50.5 -20.5t-19.5 -55.5v-177q0 -105 -104 -105zM311 533
q-37 0 -65 19.5t-46 53.5l-50 92q-13 24 -6 43.5t25 30t39.5 7.5t36.5 -24l66 -93l66 93q15 21 36.5 24t39.5 -7.5t25 -30t-6 -43.5l-50 -92q-18 -34 -45.5 -53.5t-65.5 -19.5z" />
    <glyph glyph-name="napostrophe" unicode="&#x149;" horiz-adv-x="617" 
d="M95 577q-13 -15 -30.5 -17.5t-31.5 5.5t-17.5 24t10.5 36q6 9 11 21q-91 4 -91 80q0 79 99 79q98 0 98 -90q0 -37 -11.5 -73t-36.5 -65zM148 -10q-50 0 -77 27t-27 78v304q0 51 26.5 78t75.5 27q84 0 98 -76q26 37 67.5 57.5t91.5 20.5q88 0 130.5 -53.5t42.5 -165.5
v-192q0 -51 -27 -78t-77 -27t-77 27t-27 78v184q0 38 -12 53.5t-34 15.5q-31 0 -50.5 -20.5t-19.5 -55.5v-177q0 -105 -104 -105z" />
    <glyph glyph-name="Eng" unicode="&#x14a;" horiz-adv-x="763" 
d="M481 -186q-36 0 -57 14t-28.5 34.5t-3.5 42t19 36.5t38 17q26 2 42 14t16 36v43l-250 303v-263q0 -49 -25.5 -75t-74.5 -26t-74.5 26t-25.5 75v518q0 51 25.5 78.5t68.5 27.5q36 0 57.5 -14.5t47.5 -46.5l250 -303v263q0 49 25.5 75t74.5 26t74.5 -26t25.5 -75v-575
q0 -119 -54.5 -172t-170.5 -53z" />
    <glyph glyph-name="eng" unicode="&#x14b;" horiz-adv-x="618" 
d="M351 -186q-36 0 -57 14t-28.5 34.5t-3.5 42t19 36.5t38 17q49 4 49 50v271q0 38 -12 53.5t-34 15.5q-31 0 -50.5 -20.5t-19.5 -55.5v-177q0 -105 -104 -105q-50 0 -77 27t-27 78v304q0 51 26.5 78t75.5 27q84 0 98 -76q26 37 67.5 57.5t91.5 20.5q88 0 130.5 -53.5
t42.5 -165.5v-258q0 -104 -54.5 -159.5t-170.5 -55.5z" />
    <glyph glyph-name="Omacron" unicode="&#x14c;" horiz-adv-x="820" 
d="M410 -12q-109 0 -192.5 46t-130 128.5t-46.5 190.5q0 109 46.5 191t130 127.5t192.5 45.5q110 0 193 -45.5t129.5 -127.5t46.5 -191t-46.5 -191t-129.5 -128t-193 -46zM410 167q68 0 107 49.5t39 136.5t-39 136t-107 49t-107 -48.5t-39 -136.5t39 -137t107 -49zM265 790
q-57 0 -57 55t57 55h286q57 0 57 -55t-57 -55h-286z" />
    <glyph glyph-name="omacron" unicode="&#x14d;" horiz-adv-x="616" 
d="M308 -12q-85 0 -149 31t-99.5 89.5t-35.5 138.5q0 81 35.5 139t99.5 89t149 31q86 0 149.5 -31t99 -89t35.5 -139q0 -80 -35.5 -138.5t-99 -89.5t-149.5 -31zM308 140q32 0 53.5 24t21.5 83t-21.5 83t-53.5 24t-53.5 -24t-21.5 -83t21.5 -83t53.5 -24zM180 599
q-57 0 -57 55t57 55h256q57 0 57 -55t-57 -55h-256z" />
    <glyph glyph-name="Obreve" unicode="&#x14e;" horiz-adv-x="820" 
d="M410 -12q-109 0 -192.5 46t-130 128.5t-46.5 190.5q0 109 46.5 191t130 127.5t192.5 45.5q110 0 193 -45.5t129.5 -127.5t46.5 -191t-46.5 -191t-129.5 -128t-193 -46zM410 167q68 0 107 49.5t39 136.5t-39 136t-107 49t-107 -48.5t-39 -136.5t39 -137t107 -49zM408 760
q-73 0 -125.5 32t-69.5 81q-13 31 1 50.5t40 22.5q23 3 36.5 -5t22 -19.5t16.5 -20.5q26 -28 79 -28q27 0 46.5 7.5t32.5 20.5q9 9 17 20.5t21.5 19.5t36.5 5q26 -3 39 -22t2 -51q-16 -49 -69 -81t-126 -32z" />
    <glyph glyph-name="obreve" unicode="&#x14f;" horiz-adv-x="616" 
d="M308 -12q-85 0 -149 31t-99.5 89.5t-35.5 138.5q0 81 35.5 139t99.5 89t149 31q86 0 149.5 -31t99 -89t35.5 -139q0 -80 -35.5 -138.5t-99 -89.5t-149.5 -31zM308 140q32 0 53.5 24t21.5 83t-21.5 83t-53.5 24t-53.5 -24t-21.5 -83t21.5 -83t53.5 -24zM308 554
q-55 0 -93.5 21t-60.5 53.5t-28 65.5q-7 32 8 50.5t41 20.5q27 2 40 -12.5t27 -42.5q21 -40 66 -40t66 40q14 28 27 42.5t40 12.5q26 -2 41.5 -20.5t7.5 -50.5q-6 -33 -28 -65.5t-60.5 -53.5t-93.5 -21z" />
    <glyph glyph-name="Ohungarumlaut" unicode="&#x150;" horiz-adv-x="820" 
d="M410 -12q-109 0 -192.5 46t-130 128.5t-46.5 190.5q0 109 46.5 191t130 127.5t192.5 45.5q110 0 193 -45.5t129.5 -127.5t46.5 -191t-46.5 -191t-129.5 -128t-193 -46zM410 167q68 0 107 49.5t39 136.5t-39 136t-107 49t-107 -48.5t-39 -136.5t39 -137t107 -49zM564 773
q-16 -18 -35 -18.5t-33.5 10.5t-19.5 29t7 39l55 94q13 23 34 29.5t41 0.5t34 -21t14.5 -35.5t-19.5 -42.5zM384 779q-16 -20 -36.5 -23t-37.5 6.5t-24 27t3 38.5l46 97q11 24 31.5 31t42 1.5t36.5 -20.5t17.5 -36t-15.5 -44z" />
    <glyph glyph-name="ohungarumlaut" unicode="&#x151;" horiz-adv-x="616" 
d="M308 -12q-85 0 -149 31t-99.5 89.5t-35.5 138.5q0 81 35.5 139t99.5 89t149 31q86 0 149.5 -31t99 -89t35.5 -139q0 -80 -35.5 -138.5t-99 -89.5t-149.5 -31zM308 140q32 0 53.5 24t21.5 83t-21.5 83t-53.5 24t-53.5 -24t-21.5 -83t21.5 -83t53.5 -24zM459 575
q-10 -21 -28.5 -28t-38 -2.5t-31 20t-6.5 39.5l26 132q6 29 25 42t43 12t44 -13t28 -33t-5 -49zM271 575q-10 -21 -28.5 -28t-38 -2.5t-31 20t-6.5 39.5l26 132q6 29 25 42t43 12t44 -13t28 -33t-5 -49z" />
    <glyph glyph-name="OE" unicode="&#x152;" horiz-adv-x="1074" 
d="M435 0q-187 0 -290.5 93t-103.5 260t103.5 259.5t290.5 92.5h513q83 0 83 -82t-83 -82h-236v-101h213q83 0 83 -82t-83 -82h-213v-112h236q83 0 83 -82t-83 -82h-513zM447 174h60v357h-60q-92 0 -137.5 -43t-45.5 -135q0 -91 45 -135t138 -44z" />
    <glyph glyph-name="oe" unicode="&#x153;" horiz-adv-x="924" 
d="M301 -12q-84 0 -146.5 32t-96.5 91t-34 139q0 79 34 136t96.5 88.5t146.5 31.5q114 0 184 -55q67 55 167 55q79 0 135 -32t86.5 -90.5t30.5 -137.5q0 -40 -45 -40h-268q8 -37 34.5 -52t73.5 -15q12 0 40.5 4t52.5 13q28 11 49 2.5t32.5 -28t11.5 -43t-13 -44t-41 -30.5
q-30 -10 -65.5 -17.5t-76.5 -7.5q-65 0 -115 17t-86 49q-35 -32 -81.5 -49t-105.5 -17zM664 373q-66 0 -76 -76h148q-3 40 -21.5 58t-50.5 18zM309 140q32 0 53 25t21 83t-21.5 82t-53.5 24t-53.5 -24t-21.5 -82t22 -83t54 -25z" />
    <glyph glyph-name="Racute" unicode="&#x154;" horiz-adv-x="718" 
d="M165 -10q-52 0 -80 28.5t-28 80.5v497q0 53 28.5 81t80.5 28h249q122 0 188.5 -60.5t66.5 -165.5q0 -79 -39 -134t-112 -77q60 -15 94 -77l35 -63q19 -34 17.5 -65.5t-25 -52t-70.5 -20.5q-45 0 -74 18.5t-51 58.5l-86 157q-8 15 -23 21.5t-31 6.5h-33v-153
q0 -52 -27 -80.5t-80 -28.5zM272 402h103q44 0 67.5 17t23.5 53q0 35 -23.5 52t-67.5 17h-103v-139zM441 774q-20 -19 -42.5 -19t-40 13.5t-23 33.5t8.5 41l58 87q16 24 38.5 28.5t44 -4.5t36 -27t15.5 -39t-19 -41z" />
    <glyph glyph-name="racute" unicode="&#x155;" horiz-adv-x="457" 
d="M151 -10q-107 0 -107 105v304q0 51 26.5 78t75.5 27q94 0 101 -93q16 43 53.5 69t86.5 26q33 0 48.5 -17.5t15.5 -67.5q0 -43 -16 -67t-66 -29l-24 -2q-48 -4 -68.5 -24.5t-20.5 -63.5v-140q0 -51 -27 -78t-78 -27zM322 567q-16 -21 -38.5 -23.5t-42 8.5t-28 31t3.5 45
l60 123q13 27 36 35t46.5 1t41 -24t21.5 -40t-15 -47z" />
    <glyph glyph-name="uni0156" unicode="&#x156;" horiz-adv-x="718" 
d="M165 -10q-52 0 -80 28.5t-28 80.5v497q0 53 28.5 81t80.5 28h249q122 0 188.5 -60.5t66.5 -165.5q0 -79 -39 -134t-112 -77q60 -15 94 -77l35 -63q19 -34 17.5 -65.5t-25 -52t-70.5 -20.5q-45 0 -74 18.5t-51 58.5l-86 157q-8 15 -23 21.5t-31 6.5h-33v-153
q0 -52 -27 -80.5t-80 -28.5zM272 402h103q44 0 67.5 17t23.5 53q0 35 -23.5 52t-67.5 17h-103v-139zM412 -278q-13 -15 -30.5 -17.5t-31.5 5.5t-17.5 24t10.5 36q6 9 11 21q-91 4 -91 80q0 79 99 79q98 0 98 -90q0 -37 -11.5 -73t-36.5 -65z" />
    <glyph glyph-name="uni0157" unicode="&#x157;" horiz-adv-x="457" 
d="M151 -10q-107 0 -107 105v304q0 51 26.5 78t75.5 27q94 0 101 -93q16 43 53.5 69t86.5 26q33 0 48.5 -17.5t15.5 -67.5q0 -43 -16 -67t-66 -29l-24 -2q-48 -4 -68.5 -24.5t-20.5 -63.5v-140q0 -51 -27 -78t-78 -27zM199 -278q-13 -15 -30.5 -17.5t-31.5 5.5t-17.5 24
t10.5 36q6 9 11 21q-91 4 -91 80q0 79 99 79q98 0 98 -90q0 -37 -11.5 -73t-36.5 -65z" />
    <glyph glyph-name="Rcaron" unicode="&#x158;" horiz-adv-x="718" 
d="M165 -10q-52 0 -80 28.5t-28 80.5v497q0 53 28.5 81t80.5 28h249q122 0 188.5 -60.5t66.5 -165.5q0 -79 -39 -134t-112 -77q60 -15 94 -77l35 -63q19 -34 17.5 -65.5t-25 -52t-70.5 -20.5q-45 0 -74 18.5t-51 58.5l-86 157q-8 15 -23 21.5t-31 6.5h-33v-153
q0 -52 -27 -80.5t-80 -28.5zM272 402h103q44 0 67.5 17t23.5 53q0 35 -23.5 52t-67.5 17h-103v-139zM362 746q-71 0 -115 62l-44 61q-15 21 -9.5 40.5t24 31t41 10.5t41.5 -21l62 -65l62 65q19 20 42 21t41 -10.5t23.5 -31t-9.5 -40.5l-44 -61q-44 -62 -115 -62z" />
    <glyph glyph-name="rcaron" unicode="&#x159;" horiz-adv-x="457" 
d="M151 -10q-107 0 -107 105v304q0 51 26.5 78t75.5 27q94 0 101 -93q16 43 53.5 69t86.5 26q33 0 48.5 -17.5t15.5 -67.5q0 -43 -16 -67t-66 -29l-24 -2q-48 -4 -68.5 -24.5t-20.5 -63.5v-140q0 -51 -27 -78t-78 -27zM249 533q-37 0 -65 19.5t-46 53.5l-50 92
q-13 24 -6 43.5t25 30t39.5 7.5t36.5 -24l66 -93l66 93q15 21 36.5 24t39.5 -7.5t25 -30t-6 -43.5l-50 -92q-18 -34 -45.5 -53.5t-65.5 -19.5z" />
    <glyph glyph-name="Sacute" unicode="&#x15a;" horiz-adv-x="663" 
d="M330 -12q-38 0 -81 5.5t-82.5 15t-70.5 21.5q-32 13 -45 37.5t-10 52.5t19 50t43 30.5t61 -5.5q35 -14 82.5 -23t83.5 -9q58 0 79 13t21 30q0 16 -14.5 26.5t-53.5 18.5l-120 26q-191 41 -191 203q0 72 39 125t109 82.5t163 29.5q47 0 100 -10t91 -29q27 -13 39.5 -37
t10.5 -50t-16.5 -46.5t-40.5 -28t-63 5.5q-25 9 -60 14.5t-64 5.5q-49 0 -73.5 -14t-24.5 -37q0 -13 14 -23.5t54 -18.5l120 -26q191 -42 191 -199q0 -71 -38.5 -124.5t-108 -82.5t-163.5 -29zM424 774q-20 -19 -42.5 -19t-40 13.5t-23 33.5t8.5 41l58 87q16 24 38.5 28.5
t44 -4.5t36 -27t15.5 -39t-19 -41z" />
    <glyph glyph-name="sacute" unicode="&#x15b;" horiz-adv-x="501" 
d="M251 -12q-46 0 -89.5 5.5t-80.5 18.5q-30 10 -43 29.5t-13 41.5t11.5 40.5t31.5 27t46 0.5q42 -13 75 -19t62 -6q31 0 43 7.5t12 18.5t-8 16t-20 6l-117 18q-62 10 -97 45.5t-35 93.5q0 54 31 93t85.5 60.5t124.5 21.5q46 0 82 -5.5t71 -19.5q25 -10 36 -29t9.5 -41
t-13 -40t-32 -25.5t-47.5 1.5q-34 11 -58 16t-44 5q-37 0 -50 -7.5t-13 -18.5q0 -16 26 -21l117 -18q64 -10 99 -44t35 -93q0 -85 -65 -131.5t-172 -46.5zM333 567q-16 -21 -38.5 -23.5t-42 8.5t-28 31t3.5 45l60 123q13 27 36 35t46.5 1t41 -24t21.5 -40t-15 -47z" />
    <glyph glyph-name="Scircumflex" unicode="&#x15c;" horiz-adv-x="663" 
d="M330 -12q-38 0 -81 5.5t-82.5 15t-70.5 21.5q-32 13 -45 37.5t-10 52.5t19 50t43 30.5t61 -5.5q35 -14 82.5 -23t83.5 -9q58 0 79 13t21 30q0 16 -14.5 26.5t-53.5 18.5l-120 26q-191 41 -191 203q0 72 39 125t109 82.5t163 29.5q47 0 100 -10t91 -29q27 -13 39.5 -37
t10.5 -50t-16.5 -46.5t-40.5 -28t-63 5.5q-25 9 -60 14.5t-64 5.5q-49 0 -73.5 -14t-24.5 -37q0 -13 14 -23.5t54 -18.5l120 -26q191 -42 191 -199q0 -71 -38.5 -124.5t-108 -82.5t-163.5 -29zM283 776q-19 -20 -41.5 -21t-41 10.5t-24 31t9.5 40.5l44 61q44 62 115 62
t115 -62l44 -61q15 -21 9.5 -40.5t-23.5 -31t-41 -10.5t-42 21l-62 65z" />
    <glyph glyph-name="scircumflex" unicode="&#x15d;" horiz-adv-x="501" 
d="M251 -12q-46 0 -89.5 5.5t-80.5 18.5q-30 10 -43 29.5t-13 41.5t11.5 40.5t31.5 27t46 0.5q42 -13 75 -19t62 -6q31 0 43 7.5t12 18.5t-8 16t-20 6l-117 18q-62 10 -97 45.5t-35 93.5q0 54 31 93t85.5 60.5t124.5 21.5q46 0 82 -5.5t71 -19.5q25 -10 36 -29t9.5 -41
t-13 -40t-32 -25.5t-47.5 1.5q-34 11 -58 16t-44 5q-37 0 -50 -7.5t-13 -18.5q0 -16 26 -21l117 -18q64 -10 99 -44t35 -93q0 -85 -65 -131.5t-172 -46.5zM421 625q13 -24 6 -43.5t-25 -30t-39.5 -7.5t-36.5 24l-66 93l-66 -93q-15 -21 -36.5 -24t-39.5 7.5t-25 30t6 43.5
l50 92q18 34 46 53.5t65 19.5q38 0 65.5 -19.5t45.5 -53.5z" />
    <glyph glyph-name="Scedilla" unicode="&#x15e;" horiz-adv-x="663" 
d="M330 -12q-38 0 -81 5.5t-82.5 15t-70.5 21.5q-32 13 -45 37.5t-10 52.5t19 50t43 30.5t61 -5.5q35 -14 82.5 -23t83.5 -9q58 0 79 13t21 30q0 16 -14.5 26.5t-53.5 18.5l-120 26q-191 41 -191 203q0 72 39 125t109 82.5t163 29.5q47 0 100 -10t91 -29q27 -13 39.5 -37
t10.5 -50t-16.5 -46.5t-40.5 -28t-63 5.5q-25 9 -60 14.5t-64 5.5q-49 0 -73.5 -14t-24.5 -37q0 -13 14 -23.5t54 -18.5l120 -26q191 -42 191 -199q0 -71 -38.5 -124.5t-108 -82.5t-163.5 -29zM331 -200q-21 0 -43 2.5t-43 7.5q-22 6 -31 21t-6 31.5t17 26t36 3.5
q27 -7 46 -7q26 0 36.5 4t10.5 13q0 14 -36 14q-6 0 -12 -0.5t-12 -1.5t-11.5 0.5t-10.5 6.5q-9 10 -6 29l10 70h95l-7 -48q48 -1 73.5 -21.5t25.5 -56.5q0 -43 -37 -68.5t-95 -25.5z" />
    <glyph glyph-name="scedilla" unicode="&#x15f;" horiz-adv-x="501" 
d="M251 -12q-46 0 -89.5 5.5t-80.5 18.5q-30 10 -43 29.5t-13 41.5t11.5 40.5t31.5 27t46 0.5q42 -13 75 -19t62 -6q31 0 43 7.5t12 18.5t-8 16t-20 6l-117 18q-62 10 -97 45.5t-35 93.5q0 54 31 93t85.5 60.5t124.5 21.5q46 0 82 -5.5t71 -19.5q25 -10 36 -29t9.5 -41
t-13 -40t-32 -25.5t-47.5 1.5q-34 11 -58 16t-44 5q-37 0 -50 -7.5t-13 -18.5q0 -16 26 -21l117 -18q64 -10 99 -44t35 -93q0 -85 -65 -131.5t-172 -46.5zM248 -200q-21 0 -43 2.5t-43 7.5q-22 6 -31 21t-6 31.5t17 26t36 3.5q27 -7 46 -7q26 0 36.5 4t10.5 13q0 14 -36 14
q-6 0 -12 -0.5t-12 -1.5t-11.5 0.5t-10.5 6.5q-9 10 -6 29l10 70h95l-7 -48q48 -1 73.5 -21.5t25.5 -56.5q0 -43 -37 -68.5t-95 -25.5z" />
    <glyph glyph-name="Scaron" unicode="&#x160;" horiz-adv-x="663" 
d="M330 -12q-38 0 -81 5.5t-82.5 15t-70.5 21.5q-32 13 -45 37.5t-10 52.5t19 50t43 30.5t61 -5.5q35 -14 82.5 -23t83.5 -9q58 0 79 13t21 30q0 16 -14.5 26.5t-53.5 18.5l-120 26q-191 41 -191 203q0 72 39 125t109 82.5t163 29.5q47 0 100 -10t91 -29q27 -13 39.5 -37
t10.5 -50t-16.5 -46.5t-40.5 -28t-63 5.5q-25 9 -60 14.5t-64 5.5q-49 0 -73.5 -14t-24.5 -37q0 -13 14 -23.5t54 -18.5l120 -26q191 -42 191 -199q0 -71 -38.5 -124.5t-108 -82.5t-163.5 -29zM345 746q-71 0 -115 62l-44 61q-15 21 -9.5 40.5t24 31t41 10.5t41.5 -21
l62 -65l62 65q19 20 42 21t41 -10.5t23.5 -31t-9.5 -40.5l-44 -61q-44 -62 -115 -62z" />
    <glyph glyph-name="scaron" unicode="&#x161;" horiz-adv-x="501" 
d="M251 -12q-46 0 -89.5 5.5t-80.5 18.5q-30 10 -43 29.5t-13 41.5t11.5 40.5t31.5 27t46 0.5q42 -13 75 -19t62 -6q31 0 43 7.5t12 18.5t-8 16t-20 6l-117 18q-62 10 -97 45.5t-35 93.5q0 54 31 93t85.5 60.5t124.5 21.5q46 0 82 -5.5t71 -19.5q25 -10 36 -29t9.5 -41
t-13 -40t-32 -25.5t-47.5 1.5q-34 11 -58 16t-44 5q-37 0 -50 -7.5t-13 -18.5q0 -16 26 -21l117 -18q64 -10 99 -44t35 -93q0 -85 -65 -131.5t-172 -46.5zM260 533q-37 0 -65 19.5t-46 53.5l-50 92q-13 24 -6 43.5t25 30t39.5 7.5t36.5 -24l66 -93l66 93q15 21 36.5 24
t39.5 -7.5t25 -30t-6 -43.5l-50 -92q-18 -34 -45.5 -53.5t-65.5 -19.5z" />
    <glyph glyph-name="uni0162" unicode="&#x162;" horiz-adv-x="657" 
d="M329 -10q-52 0 -80 28.5t-28 80.5v432h-136q-88 0 -88 87t88 87h487q88 0 88 -87t-88 -87h-136v-432q0 -52 -27 -80.5t-80 -28.5zM325 -200q-21 0 -43 2.5t-43 7.5q-22 6 -31 21t-6 31.5t17 26t36 3.5q27 -7 46 -7q26 0 36.5 4t10.5 13q0 14 -36 14q-6 0 -12 -0.5
t-12 -1.5t-11.5 0.5t-10.5 6.5q-9 10 -6 29l10 70h95l-7 -48q48 -1 73.5 -21.5t25.5 -56.5q0 -43 -37 -68.5t-95 -25.5z" />
    <glyph glyph-name="uni0163" unicode="&#x163;" horiz-adv-x="449" 
d="M322 -12q-120 0 -177.5 54t-57.5 165v135h-23q-78 0 -78 76t78 76h23v46q0 51 27 78t77 27t77 -27t27 -78v-46h68q78 0 78 -76t-78 -76h-68v-130q0 -58 64 -58q12 0 25 3t25 3q18 1 29.5 -11t11.5 -55q0 -35 -10.5 -58.5t-37.5 -34.5q-15 -6 -40.5 -9.5t-39.5 -3.5z
M253 -200q-21 0 -43 2.5t-43 7.5q-22 6 -31 21t-6 31.5t17 26t36 3.5q27 -7 46 -7q26 0 36.5 4t10.5 13q0 14 -36 14q-6 0 -12 -0.5t-12 -1.5t-11.5 0.5t-10.5 6.5q-9 10 -6 29l10 70h95l-7 -48q48 -1 73.5 -21.5t25.5 -56.5q0 -43 -37 -68.5t-95 -25.5z" />
    <glyph glyph-name="Tcaron" unicode="&#x164;" horiz-adv-x="657" 
d="M329 -10q-52 0 -80 28.5t-28 80.5v432h-136q-88 0 -88 87t88 87h487q88 0 88 -87t-88 -87h-136v-432q0 -52 -27 -80.5t-80 -28.5zM328 746q-71 0 -115 62l-44 61q-15 21 -9.5 40.5t24 31t41 10.5t41.5 -21l62 -65l62 65q19 20 42 21t41 -10.5t23.5 -31t-9.5 -40.5
l-44 -61q-44 -62 -115 -62z" />
    <glyph glyph-name="tcaron" unicode="&#x165;" horiz-adv-x="449" 
d="M322 -12q-120 0 -177.5 54t-57.5 165v135h-23q-78 0 -78 76t78 76h23v46q0 51 27 78t77 27t77 -27t27 -78v-46h68q78 0 78 -76t-78 -76h-68v-130q0 -58 64 -58q12 0 25 3t25 3q18 1 29.5 -11t11.5 -55q0 -35 -10.5 -58.5t-37.5 -34.5q-15 -6 -40.5 -9.5t-39.5 -3.5z
M368 518q-43 0 -43 48v90q0 59 59 59q29 0 42.5 -16.5t8.5 -46.5l-16 -90q-7 -44 -51 -44z" />
    <glyph glyph-name="Tbar" unicode="&#x166;" horiz-adv-x="657" 
d="M329 -10q-52 0 -80 28.5t-28 80.5v432h-136q-88 0 -88 87t88 87h487q88 0 88 -87t-88 -87h-136v-432q0 -52 -27 -80.5t-80 -28.5zM157 280q-37 0 -57.5 19.5t-20.5 55.5t20.5 55.5t57.5 19.5h339q38 0 58 -19.5t20 -55.5t-20 -55.5t-58 -19.5h-339z" />
    <glyph glyph-name="tbar" unicode="&#x167;" horiz-adv-x="449" 
d="M322 -12q-120 0 -177.5 54t-57.5 165v135h-23q-78 0 -78 76t78 76h23v46q0 51 27 78t77 27t77 -27t27 -78v-46h68q78 0 78 -76t-78 -76h-68v-130q0 -58 64 -58q12 0 25 3t25 3q18 1 29.5 -11t11.5 -55q0 -35 -10.5 -58.5t-37.5 -34.5q-15 -6 -40.5 -9.5t-39.5 -3.5z
M74 191q-61 0 -61 58t61 58h267q61 0 61 -58t-61 -58h-267z" />
    <glyph glyph-name="Utilde" unicode="&#x168;" horiz-adv-x="754" 
d="M379 -12q-159 0 -243 79.5t-84 239.5v299q0 53 28 81t80 28t79.5 -28t27.5 -81v-303q0 -67 29 -101.5t83 -34.5t83 34.5t29 101.5v303q0 53 27.5 81t78.5 28t78 -28t27 -81v-299q0 -160 -82 -239.5t-241 -79.5zM179 749q-24 2 -36.5 15.5t-7.5 38.5q14 63 56.5 96.5
t98.5 33.5q38 0 69 -11.5t58.5 -23.5t53.5 -12q34 0 51 20q14 17 25 27.5t32 8.5q24 -1 36.5 -15t7.5 -39q-13 -63 -56 -96.5t-99 -33.5q-38 0 -69 12t-58 23.5t-54 11.5q-34 0 -51 -20q-14 -17 -25 -27t-32 -9z" />
    <glyph glyph-name="utilde" unicode="&#x169;" horiz-adv-x="613" 
d="M232 -12q-97 0 -143.5 54t-46.5 165v192q0 51 27 78t77 27t77 -27t27 -78v-198q0 -55 47 -55q28 0 46 21.5t18 55.5v176q0 51 27 78t77 27t77 -27t27 -78v-304q0 -105 -101 -105q-82 0 -98 70q-24 -35 -58 -53.5t-80 -18.5zM133 570q-48 3 -41 55q2 16 10.5 37.5
t25.5 42.5t42 35t60 14t58 -11.5t43 -23.5t45 -12q29 0 44 19q14 18 25.5 28t31.5 9q26 -1 36 -16.5t7 -38.5t-18.5 -53.5t-45 -53t-74.5 -22.5q-34 0 -57.5 12t-43.5 23.5t-45 11.5q-28 0 -44 -19q-9 -10 -21 -24t-38 -13z" />
    <glyph glyph-name="Umacron" unicode="&#x16a;" horiz-adv-x="754" 
d="M379 -12q-159 0 -243 79.5t-84 239.5v299q0 53 28 81t80 28t79.5 -28t27.5 -81v-303q0 -67 29 -101.5t83 -34.5t83 34.5t29 101.5v303q0 53 27.5 81t78.5 28t78 -28t27 -81v-299q0 -160 -82 -239.5t-241 -79.5zM236 790q-57 0 -57 55t57 55h286q57 0 57 -55t-57 -55h-286
z" />
    <glyph glyph-name="umacron" unicode="&#x16b;" horiz-adv-x="613" 
d="M232 -12q-97 0 -143.5 54t-46.5 165v192q0 51 27 78t77 27t77 -27t27 -78v-198q0 -55 47 -55q28 0 46 21.5t18 55.5v176q0 51 27 78t77 27t77 -27t27 -78v-304q0 -105 -101 -105q-82 0 -98 70q-24 -35 -58 -53.5t-80 -18.5zM178 599q-57 0 -57 55t57 55h256q57 0 57 -55
t-57 -55h-256z" />
    <glyph glyph-name="Ubreve" unicode="&#x16c;" horiz-adv-x="754" 
d="M379 -12q-159 0 -243 79.5t-84 239.5v299q0 53 28 81t80 28t79.5 -28t27.5 -81v-303q0 -67 29 -101.5t83 -34.5t83 34.5t29 101.5v303q0 53 27.5 81t78.5 28t78 -28t27 -81v-299q0 -160 -82 -239.5t-241 -79.5zM379 760q-73 0 -125.5 32t-69.5 81q-13 31 1 50.5t40 22.5
q23 3 36.5 -5t22 -19.5t16.5 -20.5q26 -28 79 -28q27 0 46.5 7.5t32.5 20.5q9 9 17 20.5t21.5 19.5t36.5 5q26 -3 39 -22t2 -51q-16 -49 -69 -81t-126 -32z" />
    <glyph glyph-name="ubreve" unicode="&#x16d;" horiz-adv-x="613" 
d="M232 -12q-97 0 -143.5 54t-46.5 165v192q0 51 27 78t77 27t77 -27t27 -78v-198q0 -55 47 -55q28 0 46 21.5t18 55.5v176q0 51 27 78t77 27t77 -27t27 -78v-304q0 -105 -101 -105q-82 0 -98 70q-24 -35 -58 -53.5t-80 -18.5zM306 554q-55 0 -93.5 21t-60.5 53.5t-28 65.5
q-7 32 8 50.5t41 20.5q27 2 40 -12.5t27 -42.5q21 -40 66 -40t66 40q14 28 27 42.5t40 12.5q26 -2 41.5 -20.5t7.5 -50.5q-6 -33 -28 -65.5t-60.5 -53.5t-93.5 -21z" />
    <glyph glyph-name="Uring" unicode="&#x16e;" horiz-adv-x="754" 
d="M379 -12q-159 0 -243 79.5t-84 239.5v299q0 53 28 81t80 28t79.5 -28t27.5 -81v-303q0 -67 29 -101.5t83 -34.5t83 34.5t29 101.5v303q0 53 27.5 81t78.5 28t78 -28t27 -81v-299q0 -160 -82 -239.5t-241 -79.5zM379 750q-39 0 -71 17.5t-50.5 48.5t-18.5 69
q0 39 18.5 69.5t50.5 48t71 17.5q40 0 71.5 -17.5t50 -48t18.5 -69.5q0 -38 -18.5 -69t-50 -48.5t-71.5 -17.5zM379 832q22 0 37 15t15 38t-15 37.5t-37 14.5t-37 -14.5t-15 -37.5t15 -38t37 -15z" />
    <glyph glyph-name="uring" unicode="&#x16f;" horiz-adv-x="613" 
d="M232 -12q-97 0 -143.5 54t-46.5 165v192q0 51 27 78t77 27t77 -27t27 -78v-198q0 -55 47 -55q28 0 46 21.5t18 55.5v176q0 51 27 78t77 27t77 -27t27 -78v-304q0 -105 -101 -105q-82 0 -98 70q-24 -35 -58 -53.5t-80 -18.5zM306 544q-39 0 -71 17.5t-50.5 48.5t-18.5 69
q0 39 18.5 69.5t50.5 48t71 17.5q40 0 71.5 -17.5t50 -48t18.5 -69.5q0 -38 -18.5 -69t-50 -48.5t-71.5 -17.5zM306 626q22 0 37 15t15 38t-15 37.5t-37 14.5t-37 -14.5t-15 -37.5t15 -38t37 -15z" />
    <glyph glyph-name="Uhungarumlaut" unicode="&#x170;" horiz-adv-x="754" 
d="M379 -12q-159 0 -243 79.5t-84 239.5v299q0 53 28 81t80 28t79.5 -28t27.5 -81v-303q0 -67 29 -101.5t83 -34.5t83 34.5t29 101.5v303q0 53 27.5 81t78.5 28t78 -28t27 -81v-299q0 -160 -82 -239.5t-241 -79.5zM535 773q-16 -18 -35 -18.5t-33.5 10.5t-19.5 29t7 39
l55 94q13 23 34 29.5t41 0.5t34 -21t14.5 -35.5t-19.5 -42.5zM355 779q-16 -20 -36.5 -23t-37.5 6.5t-24 27t3 38.5l46 97q11 24 31.5 31t42 1.5t36.5 -20.5t17.5 -36t-15.5 -44z" />
    <glyph glyph-name="uhungarumlaut" unicode="&#x171;" horiz-adv-x="613" 
d="M232 -12q-97 0 -143.5 54t-46.5 165v192q0 51 27 78t77 27t77 -27t27 -78v-198q0 -55 47 -55q28 0 46 21.5t18 55.5v176q0 51 27 78t77 27t77 -27t27 -78v-304q0 -105 -101 -105q-82 0 -98 70q-24 -35 -58 -53.5t-80 -18.5zM457 575q-10 -21 -28.5 -28t-38 -2.5t-31 20
t-6.5 39.5l26 132q6 29 25 42t43 12t44 -13t28 -33t-5 -49zM269 575q-10 -21 -28.5 -28t-38 -2.5t-31 20t-6.5 39.5l26 132q6 29 25 42t43 12t44 -13t28 -33t-5 -49z" />
    <glyph glyph-name="Uogonek" unicode="&#x172;" horiz-adv-x="754" 
d="M379 -12q-159 0 -243 79.5t-84 239.5v299q0 53 28 81t80 28t79.5 -28t27.5 -81v-303q0 -67 29 -101.5t83 -34.5t83 34.5t29 101.5v303q0 53 27.5 81t78.5 28t78 -28t27 -81v-299q0 -160 -82 -239.5t-241 -79.5zM411 -200q-69 0 -105.5 31.5t-36.5 84.5q0 47 32 83.5
t82 52.5l54 -52q-28 -10 -38.5 -27t-10.5 -33q0 -19 15 -30t37 -11q6 0 12 0.5t12 1.5q27 3 41.5 -8t16 -28.5t-9 -33.5t-33.5 -23q-18 -5 -36 -6.5t-32 -1.5z" />
    <glyph glyph-name="uogonek" unicode="&#x173;" horiz-adv-x="613" 
d="M541 -192q-18 -5 -36 -6.5t-32 -1.5q-69 0 -105.5 31.5t-36.5 84.5q0 32 15.5 59.5t41.5 46.5q-13 17 -18 38q-24 -35 -58 -53.5t-80 -18.5q-97 0 -143.5 54t-46.5 165v192q0 51 27 78t77 27t77 -27t27 -78v-198q0 -55 47 -55q28 0 46 21.5t18 55.5v176q0 51 27 78t77 27
t77 -27t27 -78v-304q0 -95 -82 -104q-19 -2 -28 -19t-9 -32q0 -19 15 -30t37 -11q6 0 12 0.5t12 1.5q27 3 41.5 -8t16 -28.5t-9 -33.5t-33.5 -23z" />
    <glyph glyph-name="Wcircumflex" unicode="&#x174;" horiz-adv-x="1136" 
d="M346 -10q-43 0 -69.5 20t-42.5 63l-187 515q-19 53 6.5 90t89.5 37q44 0 68 -20.5t38 -63.5l107 -325l118 326q16 43 40 63t62 20t62 -20t38 -64l111 -335l114 335q14 43 37.5 63.5t66.5 20.5q55 0 79.5 -37t4.5 -90l-188 -516q-15 -42 -41 -62t-70 -20q-43 0 -69.5 20
t-41.5 63l-109 303l-113 -304q-16 -42 -41.5 -62t-69.5 -20zM507 776q-19 -20 -41.5 -21t-41 10.5t-24 31t9.5 40.5l44 61q44 62 115 62t115 -62l44 -61q15 -21 9.5 -40.5t-23.5 -31t-41 -10.5t-42 21l-62 65z" />
    <glyph glyph-name="wcircumflex" unicode="&#x175;" horiz-adv-x="877" 
d="M273 -10q-80 0 -114 78l-132 305q-15 35 -10.5 64.5t28 48t66.5 18.5q35 0 58.5 -17t42.5 -66l72 -179l78 203q11 30 30.5 44.5t50.5 14.5q32 0 51 -15t30 -44l81 -209l74 192q17 44 43 60t54 16q39 0 60 -18.5t24 -48.5t-12 -65l-130 -303q-34 -79 -114 -79
q-81 0 -113 79l-56 133l-51 -131q-32 -81 -111 -81zM600 625q13 -24 6 -43.5t-25 -30t-39.5 -7.5t-36.5 24l-66 93l-66 -93q-15 -21 -36.5 -24t-39.5 7.5t-25 30t6 43.5l50 92q18 34 46 53.5t65 19.5q38 0 65.5 -19.5t45.5 -53.5z" />
    <glyph glyph-name="Ycircumflex" unicode="&#x176;" horiz-adv-x="660" 
d="M330 -10q-52 0 -80 28.5t-28 82.5v205l-180 264q-19 28 -16 62t28 58.5t72 24.5q33 0 59.5 -16t50.5 -53l97 -148l97 149q24 37 50 52.5t60 15.5q45 0 69.5 -22.5t26.5 -56.5t-21 -68l-178 -262v-205q0 -111 -107 -111zM267 776q-19 -20 -41.5 -21t-41 10.5t-24 31
t9.5 40.5l44 61q44 62 115 62t115 -62l44 -61q15 -21 9.5 -40.5t-23.5 -31t-41 -10.5t-42 21l-62 65z" />
    <glyph glyph-name="ycircumflex" unicode="&#x177;" horiz-adv-x="549" 
d="M198 -190q-35 0 -57.5 18.5t-28 48.5t10.5 64l47 101l-146 331q-15 35 -9.5 64.5t31 48t69.5 18.5q37 0 59.5 -17t41.5 -67l64 -169l68 171q19 47 43 64.5t64 17.5q34 0 55 -18.5t26 -48t-11 -64.5l-218 -485q-20 -46 -45.5 -62t-63.5 -16zM436 625q13 -24 6 -43.5
t-25 -30t-39.5 -7.5t-36.5 24l-66 93l-66 -93q-15 -21 -36.5 -24t-39.5 7.5t-25 30t6 43.5l50 92q18 34 46 53.5t65 19.5q38 0 65.5 -19.5t45.5 -53.5z" />
    <glyph glyph-name="Ydieresis" unicode="&#x178;" horiz-adv-x="660" 
d="M330 -10q-52 0 -80 28.5t-28 82.5v205l-180 264q-19 28 -16 62t28 58.5t72 24.5q33 0 59.5 -16t50.5 -53l97 -148l97 149q24 37 50 52.5t60 15.5q45 0 69.5 -22.5t26.5 -56.5t-21 -68l-178 -262v-205q0 -111 -107 -111zM437 755q-43 0 -66.5 23.5t-23.5 66.5
q0 44 23.5 67t66.5 23q44 0 67 -23t23 -67q0 -90 -90 -90zM221 755q-43 0 -66.5 23.5t-23.5 66.5q0 44 23.5 67t66.5 23q44 0 67 -23t23 -67q0 -90 -90 -90z" />
    <glyph glyph-name="Zacute" unicode="&#x179;" horiz-adv-x="636" 
d="M142 0q-55 0 -83 31t-24 77.5t43 93.5l274 327h-227q-91 0 -91 88t91 88h377q55 0 83 -31t24.5 -77.5t-43.5 -93.5l-274 -327h243q91 0 91 -88t-91 -88h-393zM405 774q-20 -19 -42.5 -19t-40 13.5t-23 33.5t8.5 41l58 87q16 24 38.5 28.5t44 -4.5t36 -27t15.5 -39
t-19 -41z" />
    <glyph glyph-name="zacute" unicode="&#x17a;" horiz-adv-x="494" 
d="M112 0q-31 0 -50.5 16t-26.5 40.5t0 52.5t30 52l172 181h-132q-77 0 -77 76t77 76h275q35 0 56.5 -16t29.5 -40.5t1 -52.5t-30 -52l-172 -181h142q77 0 77 -76t-77 -76h-295zM324 567q-16 -21 -38.5 -23.5t-42 8.5t-28 31t3.5 45l60 123q13 27 36 35t46.5 1t41 -24
t21.5 -40t-15 -47z" />
    <glyph glyph-name="Zdotaccent" unicode="&#x17b;" horiz-adv-x="636" 
d="M142 0q-55 0 -83 31t-24 77.5t43 93.5l274 327h-227q-91 0 -91 88t91 88h377q55 0 83 -31t24.5 -77.5t-43.5 -93.5l-274 -327h243q91 0 91 -88t-91 -88h-393zM326 763q-46 0 -71 24t-25 67q0 44 25 67t71 23q47 0 71.5 -23t24.5 -67q0 -91 -96 -91z" />
    <glyph glyph-name="zdotaccent" unicode="&#x17c;" horiz-adv-x="494" 
d="M112 0q-31 0 -50.5 16t-26.5 40.5t0 52.5t30 52l172 181h-132q-77 0 -77 76t77 76h275q35 0 56.5 -16t29.5 -40.5t1 -52.5t-30 -52l-172 -181h142q77 0 77 -76t-77 -76h-295zM251 569q-46 0 -71 24t-25 67q0 44 25 67t71 23q47 0 71.5 -23t24.5 -67q0 -91 -96 -91z" />
    <glyph glyph-name="Zcaron" unicode="&#x17d;" horiz-adv-x="636" 
d="M142 0q-55 0 -83 31t-24 77.5t43 93.5l274 327h-227q-91 0 -91 88t91 88h377q55 0 83 -31t24.5 -77.5t-43.5 -93.5l-274 -327h243q91 0 91 -88t-91 -88h-393zM326 746q-71 0 -115 62l-44 61q-15 21 -9.5 40.5t24 31t41 10.5t41.5 -21l62 -65l62 65q19 20 42 21t41 -10.5
t23.5 -31t-9.5 -40.5l-44 -61q-44 -62 -115 -62z" />
    <glyph glyph-name="zcaron" unicode="&#x17e;" horiz-adv-x="494" 
d="M112 0q-31 0 -50.5 16t-26.5 40.5t0 52.5t30 52l172 181h-132q-77 0 -77 76t77 76h275q35 0 56.5 -16t29.5 -40.5t1 -52.5t-30 -52l-172 -181h142q77 0 77 -76t-77 -76h-295zM251 533q-37 0 -65 19.5t-46 53.5l-50 92q-13 24 -6 43.5t25 30t39.5 7.5t36.5 -24l66 -93
l66 93q15 21 36.5 24t39.5 -7.5t25 -30t-6 -43.5l-50 -92q-18 -34 -45.5 -53.5t-65.5 -19.5z" />
    <glyph glyph-name="uni0181" unicode="&#x181;" horiz-adv-x="909" 
d="M367 0q-54 0 -82.5 28.5t-28.5 82.5v450h-14q-71 0 -71 -65v-10q0 -12 -9 -28t-27.5 -27.5t-48.5 -11.5t-49 12t-28 29t-9 32v10q0 95 63.5 149t181.5 54h369q116 0 179 -49.5t63 -132.5q0 -54 -26.5 -94.5t-73.5 -60.5q119 -40 119 -166q0 -92 -68 -147t-184 -55h-256z
M461 436h113q42 0 60 13.5t18 43.5t-18 43t-60 13h-113v-113zM461 156h132q42 0 60.5 15.5t18.5 46.5t-18.5 46.5t-60.5 15.5h-132v-124z" />
    <glyph glyph-name="uni018A" unicode="&#x18a;" horiz-adv-x="999" 
d="M367 0q-54 0 -82.5 28.5t-28.5 82.5v450h-14q-71 0 -71 -65v-10q0 -12 -9 -28t-27.5 -27.5t-48.5 -11.5t-49 12t-28 29t-9 32v10q0 95 63.5 149t181.5 54h319q188 0 291 -92.5t103 -259.5t-103 -260t-291 -93h-197zM471 174h80q94 0 139 44t45 135q0 92 -45.5 135
t-138.5 43h-80v-357z" />
    <glyph glyph-name="uni018F" unicode="&#x18f;" horiz-adv-x="820" 
d="M419 -12q-122 0 -206.5 49t-128 135t-43.5 198q0 62 60 62h443q-36 106 -188 106q-32 0 -71 -6t-72 -17q-37 -13 -64.5 -4t-43.5 31t-18 49t12.5 51t48.5 37q46 17 109.5 27.5t127.5 10.5q118 0 206.5 -44.5t138 -126.5t49.5 -195q0 -109 -46.5 -191t-127.5 -127
t-186 -45zM408 158q56 0 91 27.5t49 85.5h-281q14 -58 49.5 -85.5t91.5 -27.5z" />
    <glyph glyph-name="florin" unicode="&#x192;" horiz-adv-x="600" 
d="M87 -192q-35 0 -58.5 23t-23.5 57q0 35 21.5 58t53.5 23h8q27 0 41 17.5t21 47.5l65 308h-14q-35 0 -58.5 21.5t-23.5 54.5t23.5 54.5t58.5 21.5h46q20 107 88.5 165t167.5 58h22q34 0 52 -22.5t18 -57.5t-16 -58t-41 -23h-10q-37 0 -53.5 -17t-22.5 -45h25
q35 0 58.5 -21.5t23.5 -54.5t-23.5 -54.5t-58.5 -21.5h-58l-66 -312q-22 -106 -87.5 -164t-158.5 -58h-20z" />
    <glyph glyph-name="Ohorn" unicode="&#x1a0;" horiz-adv-x="820" 
d="M410 -12q-109 0 -192.5 46t-130 128.5t-46.5 190.5q0 109 46.5 191t130 127.5t192.5 45.5q110 0 193 -45.5t129.5 -127.5t46.5 -191t-46.5 -191t-129.5 -128t-193 -46zM410 167q68 0 107 49.5t39 136.5t-39 136t-107 49t-107 -48.5t-39 -136.5t39 -137t107 -49zM503 615
l-33 94q15 -1 28 -2.5t23 -1.5q33 0 52.5 15t19.5 49q0 37 23.5 52.5t66.5 15.5t66 -19t23 -58q0 -37 -17.5 -70.5t-48 -54t-69.5 -20.5h-134z" />
    <glyph glyph-name="ohorn" unicode="&#x1a1;" horiz-adv-x="616" 
d="M308 -12q-85 0 -149 31t-99.5 89.5t-35.5 138.5q0 81 35.5 139t99.5 89t149 31q86 0 149.5 -31t99 -89t35.5 -139q0 -80 -35.5 -138.5t-99 -89.5t-149.5 -31zM308 140q32 0 53.5 24t21.5 83t-21.5 83t-53.5 24t-53.5 -24t-21.5 -83t21.5 -83t53.5 -24zM507 404l-127 77
v13q39 0 56.5 15.5t17.5 48.5q0 58 90 58q43 0 66 -14.5t23 -42.5q0 -58 -35.5 -102t-90.5 -53z" />
    <glyph glyph-name="Uhorn" unicode="&#x1af;" horiz-adv-x="754" 
d="M379 -12q-159 0 -243 79.5t-84 239.5v299q0 53 28 81t80 28t79.5 -28t27.5 -81v-303q0 -67 29 -101.5t83 -34.5t83 34.5t29 101.5v303q0 53 27.5 81t78.5 28t78 -28t27 -81v-299q0 -160 -82 -239.5t-241 -79.5zM684 615l-127 77v13q32 -1 53 13t21 54q0 32 23.5 48.5
t66.5 16.5t66 -16t23 -49q0 -39 -16.5 -72.5t-44.5 -56t-65 -28.5z" />
    <glyph glyph-name="uhorn" unicode="&#x1b0;" horiz-adv-x="613" 
d="M232 -12q-97 0 -143.5 54t-46.5 165v192q0 51 27 78t77 27t77 -27t27 -78v-198q0 -55 47 -55q28 0 46 21.5t18 55.5v168q0 51 25.5 77.5t68.5 30.5q16 2 29.5 14t13.5 45q0 58 90 58q43 0 66 -14.5t23 -42.5q0 -54 -30.5 -95.5t-77.5 -55.5v-313q0 -105 -101 -105
q-82 0 -98 70q-24 -35 -58 -53.5t-80 -18.5z" />
    <glyph glyph-name="uni01B3" unicode="&#x1b3;" horiz-adv-x="700" 
d="M330 -10q-52 0 -80 28.5t-28 82.5v205l-180 264q-19 28 -16 62t28 58.5t72 24.5q30 0 48.5 -7.5t34 -25.5t35.5 -49l88 -135l66 101q77 117 218 117q56 0 85.5 -16t29.5 -69q0 -34 -14.5 -50t-34.5 -16q-6 0 -12 1t-14 1q-20 0 -38.5 -10.5t-34.5 -33.5l-146 -216v-206
q0 -111 -107 -111z" />
    <glyph glyph-name="uni01B4" unicode="&#x1b4;" horiz-adv-x="609" 
d="M198 -190q-35 0 -57.5 18.5t-28 48.5t10.5 64l47 101l-145 331q-15 35 -10 64.5t30.5 48t69.5 18.5q37 0 59.5 -17t41.5 -67l64 -170l46 115q24 60 73 100.5t140 40.5q65 0 88 -22t23 -56q0 -40 -11.5 -61.5t-36.5 -21.5q-4 0 -12.5 1t-22.5 1q-23 0 -44.5 -14.5
t-35.5 -45.5l-180 -399q-21 -46 -46 -62t-63 -16z" />
    <glyph glyph-name="uni01C4" unicode="&#x1c4;" horiz-adv-x="1421" 
d="M168 0q-54 0 -82.5 28.5t-28.5 82.5v483q0 54 28.5 82.5t82.5 28.5h197q188 0 291 -92.5t103 -259.5t-103 -260t-291 -93h-197zM272 174h80q94 0 139 44t45 135q0 92 -45.5 135t-138.5 43h-80v-357zM927 0q-55 0 -83 31t-24 77.5t43 93.5l274 327h-227q-91 0 -91 88
t91 88h377q55 0 83 -31t24.5 -77.5t-43.5 -93.5l-274 -327h243q91 0 91 -88t-91 -88h-393zM1111 746q-71 0 -115 62l-44 61q-15 21 -9.5 40.5t24 31t41 10.5t41.5 -21l62 -65l62 65q19 20 42 21t41 -10.5t23.5 -31t-9.5 -40.5l-44 -61q-44 -62 -115 -62z" />
    <glyph glyph-name="uni01C5" unicode="&#x1c5;" horiz-adv-x="1294" 
d="M168 0q-54 0 -82.5 28.5t-28.5 82.5v483q0 54 28.5 82.5t82.5 28.5h197q188 0 291 -92.5t103 -259.5t-103 -260t-291 -93h-197zM272 174h80q94 0 139 44t45 135q0 92 -45.5 135t-138.5 43h-80v-357zM912 0q-31 0 -50.5 16t-26.5 40.5t0 52.5t30 52l172 181h-132
q-77 0 -77 76t77 76h275q35 0 56.5 -16t29.5 -40.5t1 -52.5t-30 -52l-172 -181h142q77 0 77 -76t-77 -76h-295zM1051 533q-37 0 -65 19.5t-46 53.5l-50 92q-13 24 -6 43.5t25 30t39.5 7.5t36.5 -24l66 -93l66 93q15 21 36.5 24t39.5 -7.5t25 -30t-6 -43.5l-50 -92
q-18 -34 -45.5 -53.5t-65.5 -19.5z" />
    <glyph glyph-name="uni01C6" unicode="&#x1c6;" horiz-adv-x="1126" 
d="M239 -12q-62 0 -111 31t-76.5 89.5t-27.5 138.5q0 81 27.5 139t76 89t111.5 31q44 0 82 -17.5t59 -46.5v168q0 51 27 78t77 27t77 -27t27 -78v-515q0 -51 -26 -78t-76 -27q-84 0 -100 73q-19 -34 -59 -54.5t-88 -20.5zM308 140q32 0 53.5 24t21.5 83t-21.5 83t-53.5 24
t-53.5 -24t-21.5 -83t21.5 -83t53.5 -24zM744 0q-31 0 -50.5 16t-26.5 40.5t0 52.5t30 52l172 181h-132q-77 0 -77 76t77 76h275q35 0 56.5 -16t29.5 -40.5t1 -52.5t-30 -52l-172 -181h142q77 0 77 -76t-77 -76h-295zM883 533q-37 0 -65 19.5t-46 53.5l-50 92
q-13 24 -6 43.5t25 30t39.5 7.5t36.5 -24l66 -93l66 93q15 21 36.5 24t39.5 -7.5t25 -30t-6 -43.5l-50 -92q-18 -34 -45.5 -53.5t-65.5 -19.5z" />
    <glyph glyph-name="uni01C7" unicode="&#x1c7;" horiz-adv-x="1049" 
d="M166 0q-52 0 -80.5 28.5t-28.5 80.5v487q0 53 28 81t80 28t79.5 -28t27.5 -81v-418h219q44 0 67.5 -23t23.5 -66t-23.5 -66t-67.5 -23h-325zM718 -9q-46 -2 -71 24t-25 67q0 32 17.5 55t51.5 25l27 2q32 2 45.5 12.5t13.5 40.5v389q0 53 28 81t80 28t79.5 -28t27.5 -81
v-385q0 -109 -58.5 -165t-178.5 -63z" />
    <glyph glyph-name="uni01C8" unicode="&#x1c8;" horiz-adv-x="901" 
d="M166 0q-52 0 -80.5 28.5t-28.5 80.5v487q0 53 28 81t80 28t79.5 -28t27.5 -81v-418h219q44 0 67.5 -23t23.5 -66t-23.5 -66t-67.5 -23h-325zM751 562q-55 0 -84 25t-29 72t29 72t84 25t84 -25t29 -72t-29 -72t-84 -25zM631 -186q-36 0 -57 14t-28.5 34.5t-3.5 42t19 36.5
t38 17q49 4 49 50v391q0 51 27 78t77 27t77 -27t27 -78v-370q0 -104 -54.5 -159.5t-170.5 -55.5z" />
    <glyph glyph-name="uni01C9" unicode="&#x1c9;" horiz-adv-x="667" 
d="M243 -12q-104 0 -151.5 54t-47.5 165v403q0 51 27 78t77 27t77 -27t27 -78v-398q0 -31 12 -45t27 -14q7 0 15 2t17 2q20 0 30 -15t10 -62q0 -40 -16 -59.5t-48 -26.5l-24.5 -3.5t-31.5 -2.5zM517 562q-55 0 -84 25t-29 72t29 72t84 25t84 -25t29 -72t-29 -72t-84 -25z
M397 -186q-36 0 -57 14t-28.5 34.5t-3.5 42t19 36.5t38 17q49 4 49 50v391q0 51 27 78t77 27t77 -27t27 -78v-370q0 -104 -54.5 -159.5t-170.5 -55.5z" />
    <glyph glyph-name="uni01CA" unicode="&#x1ca;" horiz-adv-x="1174" 
d="M157 -10q-49 0 -74.5 26t-25.5 75v518q0 51 25.5 78.5t68.5 27.5q36 0 57.5 -14.5t47.5 -46.5l250 -303v263q0 49 25.5 75t74.5 26t74.5 -26t25.5 -75v-528q0 -43 -23.5 -69.5t-63.5 -26.5t-63 14.5t-49 46.5l-250 303v-263q0 -49 -25.5 -75t-74.5 -26zM843 -9
q-46 -2 -71 24t-25 67q0 32 17.5 55t51.5 25l27 2q32 2 45.5 12.5t13.5 40.5v389q0 53 28 81t80 28t79.5 -28t27.5 -81v-385q0 -109 -58.5 -165t-178.5 -63z" />
    <glyph glyph-name="uni01CB" unicode="&#x1cb;" horiz-adv-x="1066" 
d="M157 -10q-49 0 -74.5 26t-25.5 75v518q0 51 25.5 78.5t68.5 27.5q36 0 57.5 -14.5t47.5 -46.5l250 -303v263q0 49 25.5 75t74.5 26t74.5 -26t25.5 -75v-528q0 -43 -23.5 -69.5t-63.5 -26.5t-63 14.5t-49 46.5l-250 303v-263q0 -49 -25.5 -75t-74.5 -26zM916 562
q-55 0 -84 25t-29 72t29 72t84 25t84 -25t29 -72t-29 -72t-84 -25zM796 -186q-36 0 -57 14t-28.5 34.5t-3.5 42t19 36.5t38 17q49 4 49 50v391q0 51 27 78t77 27t77 -27t27 -78v-370q0 -104 -54.5 -159.5t-170.5 -55.5z" />
    <glyph glyph-name="uni01CC" unicode="&#x1cc;" horiz-adv-x="921" 
d="M148 -10q-50 0 -77 27t-27 78v304q0 51 26.5 78t75.5 27q84 0 98 -76q26 37 67.5 57.5t91.5 20.5q88 0 130.5 -53.5t42.5 -165.5v-192q0 -51 -27 -78t-77 -27t-77 27t-27 78v184q0 38 -12 53.5t-34 15.5q-31 0 -50.5 -20.5t-19.5 -55.5v-177q0 -105 -104 -105zM771 562
q-55 0 -84 25t-29 72t29 72t84 25t84 -25t29 -72t-29 -72t-84 -25zM651 -186q-36 0 -57 14t-28.5 34.5t-3.5 42t19 36.5t38 17q49 4 49 50v391q0 51 27 78t77 27t77 -27t27 -78v-370q0 -104 -54.5 -159.5t-170.5 -55.5z" />
    <glyph glyph-name="uni01CD" unicode="&#x1cd;" horiz-adv-x="773" 
d="M105 -10q-36 0 -60.5 17t-31 46.5t10.5 66.5l241 508q21 45 51.5 66t70.5 21t70 -21t51 -66l241 -508q18 -38 12.5 -67.5t-29 -46t-58.5 -16.5q-46 0 -71 21t-45 68l-22 52h-299l-22 -52q-20 -47 -42 -68t-68 -21zM385 483l-78 -188h159l-79 188h-2zM386 746
q-71 0 -115 62l-44 61q-15 21 -9.5 40.5t24 31t41 10.5t41.5 -21l62 -65l62 65q19 20 42 21t41 -10.5t23.5 -31t-9.5 -40.5l-44 -61q-44 -62 -115 -62z" />
    <glyph glyph-name="uni01CE" unicode="&#x1ce;" horiz-adv-x="580" 
d="M221 -12q-59 0 -104 21.5t-70 59t-25 85.5q0 54 28 85t90 44.5t163 13.5h39v9q0 29 -16 39.5t-57 10.5q-22 0 -49.5 -4.5t-65.5 -16.5q-31 -10 -53 -1.5t-33.5 27.5t-11 42t15.5 43.5t46 31.5q48 17 88 22.5t73 5.5q131 0 195 -55.5t64 -174.5v-181q0 -51 -24.5 -78
t-71.5 -27q-84 0 -95 81q-11 -38 -44 -60.5t-82 -22.5zM270 121q29 0 50.5 19t21.5 50v16h-40q-39 0 -61 -12t-22 -32q0 -18 12.5 -29.5t38.5 -11.5zM293 533q-37 0 -65 19.5t-46 53.5l-50 92q-13 24 -6 43.5t25 30t39.5 7.5t36.5 -24l66 -93l66 93q15 21 36.5 24t39.5 -7.5
t25 -30t-6 -43.5l-50 -92q-18 -34 -45.5 -53.5t-65.5 -19.5z" />
    <glyph glyph-name="uni01D4" unicode="&#x1d4;" horiz-adv-x="613" 
d="M232 -12q-97 0 -143.5 54t-46.5 165v192q0 51 27 78t77 27t77 -27t27 -78v-198q0 -55 47 -55q28 0 46 21.5t18 55.5v176q0 51 27 78t77 27t77 -27t27 -78v-304q0 -105 -101 -105q-82 0 -98 70q-24 -35 -58 -53.5t-80 -18.5zM306 533q-37 0 -65 19.5t-46 53.5l-50 92
q-13 24 -6 43.5t25 30t39.5 7.5t36.5 -24l66 -93l66 93q15 21 36.5 24t39.5 -7.5t25 -30t-6 -43.5l-50 -92q-18 -34 -45.5 -53.5t-65.5 -19.5z" />
    <glyph glyph-name="uni01E5" unicode="&#x1e5;" horiz-adv-x="638" 
d="M297 -192q-76 0 -140 14t-97 33q-27 16 -32 43t7 51.5t36.5 35t55.5 -6.5q34 -17 77.5 -27t71.5 -10q65 0 92 26h-66q-41 0 -41 40q0 39 41 39h90v81q-21 -29 -62 -47t-86 -18q-64 0 -114 27t-78 77t-28 117q0 68 28 118t78 77.5t114 27.5q46 0 87.5 -19t62.5 -50
q18 67 98 67q50 0 76 -27t26 -78v-324v-12.5t-1 -16.5h12q41 0 41 -39q0 -40 -41 -40h-28q-27 -79 -98.5 -119t-181.5 -40zM311 210q35 0 56.5 18.5t21.5 52.5q0 35 -21.5 54t-56.5 19t-56.5 -19t-21.5 -54t22 -53t56 -18z" />
    <glyph glyph-name="Gcaron" unicode="&#x1e6;" horiz-adv-x="754" 
d="M429 -12q-124 0 -210.5 46t-132 127t-45.5 187q0 112 48.5 195t139.5 128.5t219 45.5q47 0 96 -7.5t100 -29.5q30 -13 42 -37.5t9 -52.5t-18.5 -51t-42 -32t-60.5 5q-25 10 -57.5 16t-66.5 6q-95 0 -140.5 -47t-45.5 -139q0 -90 45.5 -135.5t132.5 -45.5q36 0 85 11v80
h-47q-83 0 -83 74t83 74h138q83 0 83 -83v-209q0 -35 -14.5 -59t-46.5 -35q-101 -32 -211 -32zM419 746q-71 0 -115 62l-44 61q-15 21 -9.5 40.5t24 31t41 10.5t41.5 -21l62 -65l62 65q19 20 42 21t41 -10.5t23.5 -31t-9.5 -40.5l-44 -61q-44 -62 -115 -62z" />
    <glyph glyph-name="gcaron" unicode="&#x1e7;" horiz-adv-x="638" 
d="M297 -192q-55 0 -101.5 6.5t-78.5 16.5q-34 10 -49 31.5t-15.5 46t11 45t32 30.5t45.5 1q44 -15 78 -20t57 -5q59 0 87.5 21.5t28.5 70.5v32q-21 -31 -62 -51t-87 -20q-65 0 -114.5 30.5t-77 86t-27.5 129.5q0 75 27.5 130.5t77 86t114.5 30.5q49 0 90 -20.5t59 -53.5
q17 72 100 72q50 0 76 -27t26 -78v-324q0 -133 -77 -200t-220 -67zM311 165q35 0 56.5 24t21.5 70t-21.5 70.5t-56.5 24.5t-56.5 -24.5t-21.5 -70.5t21.5 -70t56.5 -24zM317 533q-37 0 -65 19.5t-46 53.5l-50 92q-13 24 -6 43.5t25 30t39.5 7.5t36.5 -24l66 -93l66 93
q15 21 36.5 24t39.5 -7.5t25 -30t-6 -43.5l-50 -92q-18 -34 -45.5 -53.5t-65.5 -19.5z" />
    <glyph glyph-name="uni01E9" unicode="&#x1e9;" horiz-adv-x="605" 
d="M148 -10q-50 0 -77 27t-27 78v515q0 51 27 78t77 27t77 -27t27 -78v-308h2l99 133q27 36 52.5 52.5t68.5 16.5t66.5 -21t25 -52.5t-23.5 -63.5l-83 -108l98 -139q24 -33 19 -63t-30.5 -48.5t-64.5 -18.5q-47 0 -75 16.5t-54 53.5l-98 138h-2v-103q0 -105 -104 -105z
M310 746q-71 0 -115 62l-44 61q-15 21 -9.5 40.5t24 31t41 10.5t41.5 -21l62 -65l62 65q19 20 42 21t41 -10.5t23.5 -31t-9.5 -40.5l-44 -61q-44 -62 -115 -62z" />
    <glyph glyph-name="uni01EA" unicode="&#x1ea;" horiz-adv-x="820" 
d="M410 -12q-109 0 -192.5 46t-130 128.5t-46.5 190.5q0 109 46.5 191t130 127.5t192.5 45.5q110 0 193 -45.5t129.5 -127.5t46.5 -191t-46.5 -191t-129.5 -128t-193 -46zM410 167q68 0 107 49.5t39 136.5t-39 136t-107 49t-107 -48.5t-39 -136.5t39 -137t107 -49zM447 -200
q-69 0 -105.5 31.5t-36.5 84.5q0 47 32 83.5t82 52.5l54 -52q-28 -10 -38.5 -27t-10.5 -33q0 -19 15 -30t37 -11q6 0 12 0.5t12 1.5q27 3 41.5 -8t16 -28.5t-9 -33.5t-33.5 -23q-18 -5 -36 -6.5t-32 -1.5z" />
    <glyph glyph-name="uni01EB" unicode="&#x1eb;" horiz-adv-x="616" 
d="M308 -12q-85 0 -149 31t-99.5 89.5t-35.5 138.5q0 81 35.5 139t99.5 89t149 31q86 0 149.5 -31t99 -89t35.5 -139q0 -80 -35.5 -138.5t-99 -89.5t-149.5 -31zM308 140q32 0 53.5 24t21.5 83t-21.5 83t-53.5 24t-53.5 -24t-21.5 -83t21.5 -83t53.5 -24zM341 -200
q-69 0 -105.5 31.5t-36.5 84.5q0 47 32 83.5t82 52.5l54 -52q-28 -10 -38.5 -27t-10.5 -33q0 -19 15 -30t37 -11q6 0 12 0.5t12 1.5q27 3 41.5 -8t16 -28.5t-9 -33.5t-33.5 -23q-18 -5 -36 -6.5t-32 -1.5z" />
    <glyph glyph-name="uni01EF" unicode="&#x1ef;" horiz-adv-x="557" 
d="M241 -192q-54 0 -100 7.5t-83 20.5q-33 12 -48.5 34.5t-15.5 47t14 44t39 26.5t59 -7q21 -8 51.5 -13t54.5 -5q115 0 115 67q0 37 -29 54t-92 17h-44q-27 0 -41.5 18t-12.5 43t24 45l147 135h-184q-80 0 -80 76t80 76h328q34 0 56 -16t30 -41t1 -52t-32 -49l-121 -107
q83 -12 129.5 -60t46.5 -123q0 -71 -36.5 -125t-102 -83.5t-153.5 -29.5zM263 533q-37 0 -65 19.5t-46 53.5l-50 92q-13 24 -6 43.5t25 30t39.5 7.5t36.5 -24l66 -93l66 93q15 21 36.5 24t39.5 -7.5t25 -30t-6 -43.5l-50 -92q-18 -34 -45.5 -53.5t-65.5 -19.5z" />
    <glyph glyph-name="Aringacute" unicode="&#x1fa;" horiz-adv-x="773" 
d="M105 -10q-36 0 -60.5 17t-31 46.5t10.5 66.5l241 508q21 45 51.5 66t70.5 21t70 -21t51 -66l241 -508q18 -38 12.5 -67.5t-29 -46t-58.5 -16.5q-46 0 -71 21t-45 68l-22 52h-299l-22 -52q-20 -47 -42 -68t-68 -21zM385 483l-78 -188h159l-79 188h-2zM386 750
q-36 0 -65.5 16.5t-47 45t-17.5 63.5q0 36 17.5 64t47 44.5t65.5 16.5q16 0 31 -3.5t28 -9.5l59 54q17 16 36 14t32 -14.5t14.5 -30.5t-16.5 -33l-63 -55q9 -22 9 -47q0 -35 -17.5 -63.5t-46.5 -45t-66 -16.5zM386 822q22 0 37 15t15 38t-15 37.5t-37 14.5t-37 -14.5
t-15 -37.5t15 -38t37 -15z" />
    <glyph glyph-name="aringacute" unicode="&#x1fb;" horiz-adv-x="580" 
d="M221 -12q-59 0 -104 21.5t-70 59t-25 85.5q0 54 28 85t90 44.5t163 13.5h39v9q0 29 -16 39.5t-57 10.5q-22 0 -49.5 -4.5t-65.5 -16.5q-31 -10 -53 -1.5t-33.5 27.5t-11 42t15.5 43.5t46 31.5q48 17 88 22.5t73 5.5q131 0 195 -55.5t64 -174.5v-181q0 -51 -24.5 -78
t-71.5 -27q-84 0 -95 81q-11 -38 -44 -60.5t-82 -22.5zM270 121q29 0 50.5 19t21.5 50v16h-40q-39 0 -61 -12t-22 -32q0 -18 12.5 -29.5t38.5 -11.5zM293 534q-36 0 -65.5 16.5t-47 45t-17.5 63.5q0 36 17.5 64t47 44.5t65.5 16.5q16 0 31 -3.5t28 -9.5l59 54q17 16 36 14
t32 -14.5t14.5 -30.5t-16.5 -33l-63 -55q9 -22 9 -47q0 -35 -17.5 -63.5t-46.5 -45t-66 -16.5zM293 606q22 0 37 15t15 38t-15 37.5t-37 14.5t-37 -14.5t-15 -37.5t15 -38t37 -15z" />
    <glyph glyph-name="AEacute" unicode="&#x1fc;" horiz-adv-x="1014" 
d="M76 -10q-46 0 -69 19t-23 49t20 62l343 531q34 54 100 54h441q83 0 83 -82t-83 -82h-278l22 -101h233q83 0 83 -82t-83 -82h-197l26 -112h194q83 0 83 -82t-83 -82h-272q-75 0 -91 73l-13 58h-284l-46 -77q-19 -31 -42 -47.5t-64 -16.5zM433 476l-108 -181h151l-41 181
h-2zM569 774q-20 -19 -42.5 -19t-40 13.5t-23 33.5t8.5 41l58 87q16 24 38.5 28.5t44 -4.5t36 -27t15.5 -39t-19 -41z" />
    <glyph glyph-name="aeacute" unicode="&#x1fd;" horiz-adv-x="873" 
d="M238 -12q-102 0 -159 47t-57 119q0 54 28.5 85t91.5 44.5t166 13.5h29v12q0 26 -15 36.5t-53 10.5q-22 0 -49.5 -4.5t-65.5 -16.5q-31 -10 -53 -1.5t-33.5 27.5t-11 42t15.5 43.5t46 31.5q48 17 88 22.5t73 5.5q52 0 97.5 -10.5t75.5 -36.5q30 25 67.5 36t81.5 11
q74 0 130.5 -31t89 -87t32.5 -132v-10q0 -17 -8 -28.5t-37 -11.5h-269q8 -37 33.5 -52t73.5 -15q22 0 47.5 4.5t49.5 12.5q29 10 49.5 1.5t32 -28t11.5 -42.5t-12.5 -43t-38.5 -29q-34 -12 -70 -19.5t-77 -7.5q-72 0 -128.5 21.5t-91.5 64.5q-50 -86 -180 -86zM611 373
q-32 0 -51 -18t-24 -58h147q-3 40 -21 58t-51 18zM270 121q29 0 48 19t19 52v14h-35q-39 0 -61 -12t-22 -32q0 -18 12.5 -29.5t38.5 -11.5zM487 567q-16 -21 -38.5 -23.5t-42 8.5t-28 31t3.5 45l60 123q13 27 36 35t46.5 1t41 -24t21.5 -40t-15 -47z" />
    <glyph glyph-name="Oslashacute" unicode="&#x1fe;" horiz-adv-x="820" 
d="M410 -12q-109 0 -192.5 46t-130 128.5t-46.5 190.5q0 109 46.5 191t130 127.5t192.5 45.5q110 0 193 -45.5t129.5 -127.5t46.5 -191t-46.5 -191t-129.5 -128t-193 -46zM410 167q68 0 107 49.5t39 136.5t-39 136t-107 49t-107 -48.5t-39 -136.5t39 -137t107 -49zM274 -34
q-16 -26 -39 -34.5t-46.5 -2.5t-40.5 23.5t-20.5 42t13.5 53.5l51 86l69 85l202 347l29 85l52 88q16 26 39 34.5t46.5 2.5t40.5 -23.5t20.5 -42t-13.5 -53.5l-52 -86l-69 -85l-202 -347l-29 -85zM487 774q-20 -19 -42.5 -19t-40 13.5t-23 33.5t8.5 41l58 87q16 24 38.5 28.5
t44 -4.5t36 -27t15.5 -39t-19 -41z" />
    <glyph glyph-name="oslashacute" unicode="&#x1ff;" horiz-adv-x="616" 
d="M198 -41q-13 -21 -33 -24.5t-37.5 6.5t-24 29t7.5 43l15 25q-48 33 -75 86t-27 123q0 81 35.5 139t99.5 89t149 31q47 0 88 -10l22 38q13 22 33 25t37.5 -7.5t24.5 -30t-7 -42.5l-14 -24q47 -34 73.5 -86.5t26.5 -121.5q0 -80 -35.5 -138.5t-99 -89.5t-149.5 -31
q-46 0 -87 10zM210 248q0 -31 7 -55l103 175q-5 1 -12 1q-43 0 -70.5 -29t-27.5 -92zM309 125q43 0 70 29.5t27 93.5q0 29 -6 52l-103 -174q6 -1 12 -1zM380 567q-16 -21 -38.5 -23.5t-42 8.5t-28 31t3.5 45l60 123q13 27 36 35t46.5 1t41 -24t21.5 -40t-15 -47z" />
    <glyph glyph-name="uni0200" unicode="&#x200;" horiz-adv-x="773" 
d="M105 -10q-36 0 -60.5 17t-31 46.5t10.5 66.5l241 508q21 45 51.5 66t70.5 21t70 -21t51 -66l241 -508q18 -38 12.5 -67.5t-29 -46t-58.5 -16.5q-46 0 -71 21t-45 68l-22 52h-299l-22 -52q-20 -47 -42 -68t-68 -21zM385 483l-78 -188h159l-79 188h-2zM230 773l-78 85
q-20 22 -19.5 42.5t14.5 35.5t34 21t41 -0.5t34 -29.5l55 -94q12 -21 7 -39t-19.5 -29t-33.5 -10.5t-35 18.5zM410 779l-63 78q-18 23 -15.5 44t17.5 36t36.5 20.5t42 -1.5t31.5 -31l46 -97q10 -21 3 -38.5t-24 -27t-37.5 -6.5t-36.5 23z" />
    <glyph glyph-name="uni0201" unicode="&#x201;" horiz-adv-x="580" 
d="M221 -12q-59 0 -104 21.5t-70 59t-25 85.5q0 54 28 85t90 44.5t163 13.5h39v9q0 29 -16 39.5t-57 10.5q-22 0 -49.5 -4.5t-65.5 -16.5q-31 -10 -53 -1.5t-33.5 27.5t-11 42t15.5 43.5t46 31.5q48 17 88 22.5t73 5.5q131 0 195 -55.5t64 -174.5v-181q0 -51 -24.5 -78
t-71.5 -27q-84 0 -95 81q-11 -38 -44 -60.5t-82 -22.5zM270 121q29 0 50.5 19t21.5 50v16h-40q-39 0 -61 -12t-22 -32q0 -18 12.5 -29.5t38.5 -11.5zM330 575l-57 120q-13 28 -5 49t28 33t44 13t43 -12t25 -42l26 -132q5 -24 -6.5 -39.5t-31 -20t-38 2.5t-28.5 28zM142 575
l-57 120q-13 28 -5 49t28 33t44 13t43 -12t25 -42l26 -132q5 -24 -6.5 -39.5t-31 -20t-38 2.5t-28.5 28z" />
    <glyph glyph-name="uni0202" unicode="&#x202;" horiz-adv-x="773" 
d="M105 -10q-36 0 -60.5 17t-31 46.5t10.5 66.5l241 508q21 45 51.5 66t70.5 21t70 -21t51 -66l241 -508q18 -38 12.5 -67.5t-29 -46t-58.5 -16.5q-46 0 -71 21t-45 68l-22 52h-299l-22 -52q-20 -47 -42 -68t-68 -21zM385 483l-78 -188h159l-79 188h-2zM231 761
q-28 3 -39.5 23.5t-1.5 49.5q17 50 71 81.5t124 31.5t124 -31.5t71 -81.5q11 -28 -0.5 -49t-40.5 -24q-23 -3 -36.5 5t-21.5 20t-17 20q-27 28 -79 28q-51 0 -79 -28q-8 -8 -16.5 -20t-22 -19.5t-36.5 -5.5z" />
    <glyph glyph-name="uni0203" unicode="&#x203;" horiz-adv-x="580" 
d="M221 -12q-59 0 -104 21.5t-70 59t-25 85.5q0 54 28 85t90 44.5t163 13.5h39v9q0 29 -16 39.5t-57 10.5q-22 0 -49.5 -4.5t-65.5 -16.5q-31 -10 -53 -1.5t-33.5 27.5t-11 42t15.5 43.5t46 31.5q48 17 88 22.5t73 5.5q131 0 195 -55.5t64 -174.5v-181q0 -51 -24.5 -78
t-71.5 -27q-84 0 -95 81q-11 -38 -44 -60.5t-82 -22.5zM270 121q29 0 50.5 19t21.5 50v16h-40q-39 0 -61 -12t-22 -32q0 -18 12.5 -29.5t38.5 -11.5zM160 552q-26 2 -40.5 21t-8.5 50q7 33 29 65.5t60 53.5t93 21t92.5 -21.5t59.5 -53.5t30 -65q8 -31 -7.5 -50t-41.5 -21
q-27 -2 -40 12.5t-27 42.5q-21 40 -66 40t-66 -40q-14 -28 -27 -42.5t-40 -12.5z" />
    <glyph glyph-name="uni0204" unicode="&#x204;" horiz-adv-x="624" 
d="M168 0q-54 0 -82.5 28.5t-28.5 82.5v483q0 54 28.5 82.5t82.5 28.5h330q83 0 83 -82t-83 -82h-236v-101h213q83 0 83 -82t-83 -82h-213v-112h236q83 0 83 -82t-83 -82h-330zM180 773l-78 85q-20 22 -19.5 42.5t14.5 35.5t34 21t41 -0.5t34 -29.5l55 -94q12 -21 7 -39
t-19.5 -29t-33.5 -10.5t-35 18.5zM360 779l-63 78q-18 23 -15.5 44t17.5 36t36.5 20.5t42 -1.5t31.5 -31l46 -97q10 -21 3 -38.5t-24 -27t-37.5 -6.5t-36.5 23z" />
    <glyph glyph-name="uni0205" unicode="&#x205;" horiz-adv-x="563" 
d="M328 -12q-94 0 -162.5 32t-105 90.5t-36.5 137.5q0 76 34.5 134t95 91t137.5 33t133.5 -32t87.5 -90.5t31 -137.5q0 -40 -45 -40h-275q9 -37 36.5 -51.5t74.5 -14.5q20 0 46.5 4.5t50.5 11.5q29 9 50 0t32 -27.5t11.5 -41.5t-11.5 -43t-38 -30q-65 -26 -147 -26zM301 373
q-32 0 -53 -18t-28 -58h153q-3 40 -21.5 58t-50.5 18zM330 575l-57 120q-13 28 -5 49t28 33t44 13t43 -12t25 -42l26 -132q5 -24 -6.5 -39.5t-31 -20t-38 2.5t-28.5 28zM142 575l-57 120q-13 28 -5 49t28 33t44 13t43 -12t25 -42l26 -132q5 -24 -6.5 -39.5t-31 -20t-38 2.5
t-28.5 28z" />
    <glyph glyph-name="uni0206" unicode="&#x206;" horiz-adv-x="624" 
d="M168 0q-54 0 -82.5 28.5t-28.5 82.5v483q0 54 28.5 82.5t82.5 28.5h330q83 0 83 -82t-83 -82h-236v-101h213q83 0 83 -82t-83 -82h-213v-112h236q83 0 83 -82t-83 -82h-330zM181 761q-28 3 -39.5 23.5t-1.5 49.5q17 50 71 81.5t124 31.5t124 -31.5t71 -81.5
q11 -28 -0.5 -49t-40.5 -24q-23 -3 -36.5 5t-21.5 20t-17 20q-27 28 -79 28q-51 0 -79 -28q-8 -8 -16.5 -20t-22 -19.5t-36.5 -5.5z" />
    <glyph glyph-name="uni0207" unicode="&#x207;" horiz-adv-x="563" 
d="M328 -12q-94 0 -162.5 32t-105 90.5t-36.5 137.5q0 76 34.5 134t95 91t137.5 33t133.5 -32t87.5 -90.5t31 -137.5q0 -40 -45 -40h-275q9 -37 36.5 -51.5t74.5 -14.5q20 0 46.5 4.5t50.5 11.5q29 9 50 0t32 -27.5t11.5 -41.5t-11.5 -43t-38 -30q-65 -26 -147 -26zM301 373
q-32 0 -53 -18t-28 -58h153q-3 40 -21.5 58t-50.5 18zM160 552q-26 2 -40.5 21t-8.5 50q7 33 29 65.5t60 53.5t93 21t92.5 -21.5t59.5 -53.5t30 -65q8 -31 -7.5 -50t-41.5 -21q-27 -2 -40 12.5t-27 42.5q-21 40 -66 40t-66 -40q-14 -28 -27 -42.5t-40 -12.5z" />
    <glyph glyph-name="uni0208" unicode="&#x208;" horiz-adv-x="329" 
d="M165 -10q-52 0 -80 28.5t-28 81.5v505q0 53 28 81.5t80 28.5t79.5 -28.5t27.5 -81.5v-505q0 -53 -27 -81.5t-80 -28.5zM8 773l-78 85q-20 22 -19.5 42.5t14.5 35.5t34 21t41 -0.5t34 -29.5l55 -94q12 -21 7 -39t-19.5 -29t-33.5 -10.5t-35 18.5zM188 779l-63 78
q-18 23 -15.5 44t17.5 36t36.5 20.5t42 -1.5t31.5 -31l46 -97q10 -21 3 -38.5t-24 -27t-37.5 -6.5t-36.5 23z" />
    <glyph glyph-name="uni0209" unicode="&#x209;" horiz-adv-x="296" 
d="M148 -10q-50 0 -77 29t-27 84v288q0 55 27 84t77 29t77 -29t27 -84v-288q0 -55 -26.5 -84t-77.5 -29zM185 575l-57 120q-13 28 -5 49t28 33t44 13t43 -12t25 -42l26 -132q5 -24 -6.5 -39.5t-31 -20t-38 2.5t-28.5 28zM-3 575l-57 120q-13 28 -5 49t28 33t44 13t43 -12
t25 -42l26 -132q5 -24 -6.5 -39.5t-31 -20t-38 2.5t-28.5 28z" />
    <glyph glyph-name="uni020A" unicode="&#x20a;" horiz-adv-x="329" 
d="M165 -10q-52 0 -80 28.5t-28 81.5v505q0 53 28 81.5t80 28.5t79.5 -28.5t27.5 -81.5v-505q0 -53 -27 -81.5t-80 -28.5zM9 761q-28 3 -39.5 23.5t-1.5 49.5q17 50 71 81.5t124 31.5t124 -31.5t71 -81.5q11 -28 -0.5 -49t-40.5 -24q-23 -3 -36.5 5t-21.5 20t-17 20
q-27 28 -79 28q-51 0 -79 -28q-8 -8 -16.5 -20t-22 -19.5t-36.5 -5.5z" />
    <glyph glyph-name="uni020B" unicode="&#x20b;" horiz-adv-x="296" 
d="M148 -10q-50 0 -77 29t-27 84v288q0 55 27 84t77 29t77 -29t27 -84v-288q0 -55 -26.5 -84t-77.5 -29zM15 552q-26 2 -40.5 21t-8.5 50q7 33 29 65.5t60 53.5t93 21t92.5 -21.5t59.5 -53.5t30 -65q8 -31 -7.5 -50t-41.5 -21q-27 -2 -40 12.5t-27 42.5q-21 40 -66 40
t-66 -40q-14 -28 -27 -42.5t-40 -12.5z" />
    <glyph glyph-name="uni020C" unicode="&#x20c;" horiz-adv-x="820" 
d="M410 -12q-109 0 -192.5 46t-130 128.5t-46.5 190.5q0 109 46.5 191t130 127.5t192.5 45.5q110 0 193 -45.5t129.5 -127.5t46.5 -191t-46.5 -191t-129.5 -128t-193 -46zM410 167q68 0 107 49.5t39 136.5t-39 136t-107 49t-107 -48.5t-39 -136.5t39 -137t107 -49zM252 773
l-78 85q-20 22 -19.5 42.5t14.5 35.5t34 21t41 -0.5t34 -29.5l55 -94q12 -21 7 -39t-19.5 -29t-33.5 -10.5t-35 18.5zM432 779l-63 78q-18 23 -15.5 44t17.5 36t36.5 20.5t42 -1.5t31.5 -31l46 -97q10 -21 3 -38.5t-24 -27t-37.5 -6.5t-36.5 23z" />
    <glyph glyph-name="uni020D" unicode="&#x20d;" horiz-adv-x="616" 
d="M308 -12q-85 0 -149 31t-99.5 89.5t-35.5 138.5q0 81 35.5 139t99.5 89t149 31q86 0 149.5 -31t99 -89t35.5 -139q0 -80 -35.5 -138.5t-99 -89.5t-149.5 -31zM308 140q32 0 53.5 24t21.5 83t-21.5 83t-53.5 24t-53.5 -24t-21.5 -83t21.5 -83t53.5 -24zM345 575l-57 120
q-13 28 -5 49t28 33t44 13t43 -12t25 -42l26 -132q5 -24 -6.5 -39.5t-31 -20t-38 2.5t-28.5 28zM157 575l-57 120q-13 28 -5 49t28 33t44 13t43 -12t25 -42l26 -132q5 -24 -6.5 -39.5t-31 -20t-38 2.5t-28.5 28z" />
    <glyph glyph-name="uni020E" unicode="&#x20e;" horiz-adv-x="820" 
d="M410 -12q-109 0 -192.5 46t-130 128.5t-46.5 190.5q0 109 46.5 191t130 127.5t192.5 45.5q110 0 193 -45.5t129.5 -127.5t46.5 -191t-46.5 -191t-129.5 -128t-193 -46zM410 167q68 0 107 49.5t39 136.5t-39 136t-107 49t-107 -48.5t-39 -136.5t39 -137t107 -49zM253 761
q-28 3 -39.5 23.5t-1.5 49.5q17 50 71 81.5t124 31.5t124 -31.5t71 -81.5q11 -28 -0.5 -49t-40.5 -24q-23 -3 -36.5 5t-21.5 20t-17 20q-27 28 -79 28q-51 0 -79 -28q-8 -8 -16.5 -20t-22 -19.5t-36.5 -5.5z" />
    <glyph glyph-name="uni020F" unicode="&#x20f;" horiz-adv-x="616" 
d="M308 -12q-85 0 -149 31t-99.5 89.5t-35.5 138.5q0 81 35.5 139t99.5 89t149 31q86 0 149.5 -31t99 -89t35.5 -139q0 -80 -35.5 -138.5t-99 -89.5t-149.5 -31zM308 140q32 0 53.5 24t21.5 83t-21.5 83t-53.5 24t-53.5 -24t-21.5 -83t21.5 -83t53.5 -24zM175 552
q-26 2 -40.5 21t-8.5 50q7 33 29 65.5t60 53.5t93 21t92.5 -21.5t59.5 -53.5t30 -65q8 -31 -7.5 -50t-41.5 -21q-27 -2 -40 12.5t-27 42.5q-21 40 -66 40t-66 -40q-14 -28 -27 -42.5t-40 -12.5z" />
    <glyph glyph-name="uni0210" unicode="&#x210;" horiz-adv-x="718" 
d="M165 -10q-52 0 -80 28.5t-28 80.5v497q0 53 28.5 81t80.5 28h249q122 0 188.5 -60.5t66.5 -165.5q0 -79 -39 -134t-112 -77q60 -15 94 -77l35 -63q19 -34 17.5 -65.5t-25 -52t-70.5 -20.5q-45 0 -74 18.5t-51 58.5l-86 157q-8 15 -23 21.5t-31 6.5h-33v-153
q0 -52 -27 -80.5t-80 -28.5zM272 402h103q44 0 67.5 17t23.5 53q0 35 -23.5 52t-67.5 17h-103v-139zM206 773l-78 85q-20 22 -19.5 42.5t14.5 35.5t34 21t41 -0.5t34 -29.5l55 -94q12 -21 7 -39t-19.5 -29t-33.5 -10.5t-35 18.5zM386 779l-63 78q-18 23 -15.5 44t17.5 36
t36.5 20.5t42 -1.5t31.5 -31l46 -97q10 -21 3 -38.5t-24 -27t-37.5 -6.5t-36.5 23z" />
    <glyph glyph-name="uni0211" unicode="&#x211;" horiz-adv-x="457" 
d="M151 -10q-107 0 -107 105v304q0 51 26.5 78t75.5 27q94 0 101 -93q16 43 53.5 69t86.5 26q33 0 48.5 -17.5t15.5 -67.5q0 -43 -16 -67t-66 -29l-24 -2q-48 -4 -68.5 -24.5t-20.5 -63.5v-140q0 -51 -27 -78t-78 -27zM286 575l-57 120q-13 28 -5 49t28 33t44 13t43 -12
t25 -42l26 -132q5 -24 -6.5 -39.5t-31 -20t-38 2.5t-28.5 28zM98 575l-57 120q-13 28 -5 49t28 33t44 13t43 -12t25 -42l26 -132q5 -24 -6.5 -39.5t-31 -20t-38 2.5t-28.5 28z" />
    <glyph glyph-name="uni0212" unicode="&#x212;" horiz-adv-x="718" 
d="M165 -10q-52 0 -80 28.5t-28 80.5v497q0 53 28.5 81t80.5 28h249q122 0 188.5 -60.5t66.5 -165.5q0 -79 -39 -134t-112 -77q60 -15 94 -77l35 -63q19 -34 17.5 -65.5t-25 -52t-70.5 -20.5q-45 0 -74 18.5t-51 58.5l-86 157q-8 15 -23 21.5t-31 6.5h-33v-153
q0 -52 -27 -80.5t-80 -28.5zM272 402h103q44 0 67.5 17t23.5 53q0 35 -23.5 52t-67.5 17h-103v-139zM207 761q-28 3 -39.5 23.5t-1.5 49.5q17 50 71 81.5t124 31.5t124 -31.5t71 -81.5q11 -28 -0.5 -49t-40.5 -24q-23 -3 -36.5 5t-21.5 20t-17 20q-27 28 -79 28
q-51 0 -79 -28q-8 -8 -16.5 -20t-22 -19.5t-36.5 -5.5z" />
    <glyph glyph-name="uni0213" unicode="&#x213;" horiz-adv-x="457" 
d="M151 -10q-107 0 -107 105v304q0 51 26.5 78t75.5 27q94 0 101 -93q16 43 53.5 69t86.5 26q33 0 48.5 -17.5t15.5 -67.5q0 -43 -16 -67t-66 -29l-24 -2q-48 -4 -68.5 -24.5t-20.5 -63.5v-140q0 -51 -27 -78t-78 -27zM116 552q-26 2 -40.5 21t-8.5 50q7 33 29 65.5t60 53.5
t93 21t92.5 -21.5t59.5 -53.5t30 -65q8 -31 -7.5 -50t-41.5 -21q-27 -2 -40 12.5t-27 42.5q-21 40 -66 40t-66 -40q-14 -28 -27 -42.5t-40 -12.5z" />
    <glyph glyph-name="uni0214" unicode="&#x214;" horiz-adv-x="754" 
d="M379 -12q-159 0 -243 79.5t-84 239.5v299q0 53 28 81t80 28t79.5 -28t27.5 -81v-303q0 -67 29 -101.5t83 -34.5t83 34.5t29 101.5v303q0 53 27.5 81t78.5 28t78 -28t27 -81v-299q0 -160 -82 -239.5t-241 -79.5zM223 773l-78 85q-20 22 -19.5 42.5t14.5 35.5t34 21
t41 -0.5t34 -29.5l55 -94q12 -21 7 -39t-19.5 -29t-33.5 -10.5t-35 18.5zM403 779l-63 78q-18 23 -15.5 44t17.5 36t36.5 20.5t42 -1.5t31.5 -31l46 -97q10 -21 3 -38.5t-24 -27t-37.5 -6.5t-36.5 23z" />
    <glyph glyph-name="uni0215" unicode="&#x215;" horiz-adv-x="613" 
d="M232 -12q-97 0 -143.5 54t-46.5 165v192q0 51 27 78t77 27t77 -27t27 -78v-198q0 -55 47 -55q28 0 46 21.5t18 55.5v176q0 51 27 78t77 27t77 -27t27 -78v-304q0 -105 -101 -105q-82 0 -98 70q-24 -35 -58 -53.5t-80 -18.5zM343 575l-57 120q-13 28 -5 49t28 33t44 13
t43 -12t25 -42l26 -132q5 -24 -6.5 -39.5t-31 -20t-38 2.5t-28.5 28zM155 575l-57 120q-13 28 -5 49t28 33t44 13t43 -12t25 -42l26 -132q5 -24 -6.5 -39.5t-31 -20t-38 2.5t-28.5 28z" />
    <glyph glyph-name="uni0216" unicode="&#x216;" horiz-adv-x="754" 
d="M379 -12q-159 0 -243 79.5t-84 239.5v299q0 53 28 81t80 28t79.5 -28t27.5 -81v-303q0 -67 29 -101.5t83 -34.5t83 34.5t29 101.5v303q0 53 27.5 81t78.5 28t78 -28t27 -81v-299q0 -160 -82 -239.5t-241 -79.5zM224 761q-28 3 -39.5 23.5t-1.5 49.5q17 50 71 81.5
t124 31.5t124 -31.5t71 -81.5q11 -28 -0.5 -49t-40.5 -24q-23 -3 -36.5 5t-21.5 20t-17 20q-27 28 -79 28q-51 0 -79 -28q-8 -8 -16.5 -20t-22 -19.5t-36.5 -5.5z" />
    <glyph glyph-name="uni0217" unicode="&#x217;" horiz-adv-x="613" 
d="M232 -12q-97 0 -143.5 54t-46.5 165v192q0 51 27 78t77 27t77 -27t27 -78v-198q0 -55 47 -55q28 0 46 21.5t18 55.5v176q0 51 27 78t77 27t77 -27t27 -78v-304q0 -105 -101 -105q-82 0 -98 70q-24 -35 -58 -53.5t-80 -18.5zM173 552q-26 2 -40.5 21t-8.5 50q7 33 29 65.5
t60 53.5t93 21t92.5 -21.5t59.5 -53.5t30 -65q8 -31 -7.5 -50t-41.5 -21q-27 -2 -40 12.5t-27 42.5q-21 40 -66 40t-66 -40q-14 -28 -27 -42.5t-40 -12.5z" />
    <glyph glyph-name="uni0218" unicode="&#x218;" horiz-adv-x="663" 
d="M330 -12q-38 0 -81 5.5t-82.5 15t-70.5 21.5q-32 13 -45 37.5t-10 52.5t19 50t43 30.5t61 -5.5q35 -14 82.5 -23t83.5 -9q58 0 79 13t21 30q0 16 -14.5 26.5t-53.5 18.5l-120 26q-191 41 -191 203q0 72 39 125t109 82.5t163 29.5q47 0 100 -10t91 -29q27 -13 39.5 -37
t10.5 -50t-16.5 -46.5t-40.5 -28t-63 5.5q-25 9 -60 14.5t-64 5.5q-49 0 -73.5 -14t-24.5 -37q0 -13 14 -23.5t54 -18.5l120 -26q191 -42 191 -199q0 -71 -38.5 -124.5t-108 -82.5t-163.5 -29zM384 -278q-13 -15 -30.5 -17.5t-31.5 5.5t-17.5 24t10.5 36q6 9 11 21
q-91 4 -91 80q0 79 99 79q98 0 98 -90q0 -37 -11.5 -73t-36.5 -65z" />
    <glyph glyph-name="uni0219" unicode="&#x219;" horiz-adv-x="501" 
d="M251 -12q-46 0 -89.5 5.5t-80.5 18.5q-30 10 -43 29.5t-13 41.5t11.5 40.5t31.5 27t46 0.5q42 -13 75 -19t62 -6q31 0 43 7.5t12 18.5t-8 16t-20 6l-117 18q-62 10 -97 45.5t-35 93.5q0 54 31 93t85.5 60.5t124.5 21.5q46 0 82 -5.5t71 -19.5q25 -10 36 -29t9.5 -41
t-13 -40t-32 -25.5t-47.5 1.5q-34 11 -58 16t-44 5q-37 0 -50 -7.5t-13 -18.5q0 -16 26 -21l117 -18q64 -10 99 -44t35 -93q0 -85 -65 -131.5t-172 -46.5zM301 -278q-13 -15 -30.5 -17.5t-31.5 5.5t-17.5 24t10.5 36q6 9 11 21q-91 4 -91 80q0 79 99 79q98 0 98 -90
q0 -37 -11.5 -73t-36.5 -65z" />
    <glyph glyph-name="uni021A" unicode="&#x21a;" horiz-adv-x="657" 
d="M329 -10q-52 0 -80 28.5t-28 80.5v432h-136q-88 0 -88 87t88 87h487q88 0 88 -87t-88 -87h-136v-432q0 -52 -27 -80.5t-80 -28.5zM378 -278q-13 -15 -30.5 -17.5t-31.5 5.5t-17.5 24t10.5 36q6 9 11 21q-91 4 -91 80q0 79 99 79q98 0 98 -90q0 -37 -11.5 -73t-36.5 -65z
" />
    <glyph glyph-name="uni021B" unicode="&#x21b;" horiz-adv-x="449" 
d="M322 -12q-120 0 -177.5 54t-57.5 165v135h-23q-78 0 -78 76t78 76h23v46q0 51 27 78t77 27t77 -27t27 -78v-46h68q78 0 78 -76t-78 -76h-68v-130q0 -58 64 -58q12 0 25 3t25 3q18 1 29.5 -11t11.5 -55q0 -35 -10.5 -58.5t-37.5 -34.5q-15 -6 -40.5 -9.5t-39.5 -3.5z
M306 -278q-13 -15 -30.5 -17.5t-31.5 5.5t-17.5 24t10.5 36q6 9 11 21q-91 4 -91 80q0 79 99 79q98 0 98 -90q0 -37 -11.5 -73t-36.5 -65z" />
    <glyph glyph-name="uni021F" unicode="&#x21f;" horiz-adv-x="618" 
d="M148 -10q-50 0 -77 27t-27 78v515q0 51 27 78t77 27t77 -27t27 -78v-172q26 32 65 50t86 18q88 0 130.5 -53.5t42.5 -165.5v-192q0 -51 -27 -78t-77 -27t-77 27t-27 78v184q0 38 -12 53.5t-34 15.5q-31 0 -50.5 -20.5t-19.5 -55.5v-177q0 -105 -104 -105zM310 746
q-71 0 -115 62l-44 61q-15 21 -9.5 40.5t24 31t41 10.5t41.5 -21l62 -65l62 65q19 20 42 21t41 -10.5t23.5 -31t-9.5 -40.5l-44 -61q-44 -62 -115 -62z" />
    <glyph glyph-name="uni0226" unicode="&#x226;" horiz-adv-x="773" 
d="M105 -10q-36 0 -60.5 17t-31 46.5t10.5 66.5l241 508q21 45 51.5 66t70.5 21t70 -21t51 -66l241 -508q18 -38 12.5 -67.5t-29 -46t-58.5 -16.5q-46 0 -71 21t-45 68l-22 52h-299l-22 -52q-20 -47 -42 -68t-68 -21zM385 483l-78 -188h159l-79 188h-2zM386 763
q-46 0 -71 24t-25 67q0 44 25 67t71 23q47 0 71.5 -23t24.5 -67q0 -91 -96 -91z" />
    <glyph glyph-name="uni0227" unicode="&#x227;" horiz-adv-x="580" 
d="M221 -12q-59 0 -104 21.5t-70 59t-25 85.5q0 54 28 85t90 44.5t163 13.5h39v9q0 29 -16 39.5t-57 10.5q-22 0 -49.5 -4.5t-65.5 -16.5q-31 -10 -53 -1.5t-33.5 27.5t-11 42t15.5 43.5t46 31.5q48 17 88 22.5t73 5.5q131 0 195 -55.5t64 -174.5v-181q0 -51 -24.5 -78
t-71.5 -27q-84 0 -95 81q-11 -38 -44 -60.5t-82 -22.5zM270 121q29 0 50.5 19t21.5 50v16h-40q-39 0 -61 -12t-22 -32q0 -18 12.5 -29.5t38.5 -11.5zM293 569q-46 0 -71 24t-25 67q0 44 25 67t71 23q47 0 71.5 -23t24.5 -67q0 -91 -96 -91z" />
    <glyph glyph-name="uni0228" unicode="&#x228;" horiz-adv-x="624" 
d="M168 0q-54 0 -82.5 28.5t-28.5 82.5v483q0 54 28.5 82.5t82.5 28.5h330q83 0 83 -82t-83 -82h-236v-101h213q83 0 83 -82t-83 -82h-213v-112h236q83 0 83 -82t-83 -82h-330zM332 -200q-21 0 -43 2.5t-43 7.5q-22 6 -31 21t-6 31.5t17 26t36 3.5q27 -7 46 -7q26 0 36.5 4
t10.5 13q0 14 -36 14q-6 0 -12 -0.5t-12 -1.5t-11.5 0.5t-10.5 6.5q-9 10 -6 29l10 70h95l-7 -48q48 -1 73.5 -21.5t25.5 -56.5q0 -43 -37 -68.5t-95 -25.5z" />
    <glyph glyph-name="uni022A" unicode="&#x22a;" horiz-adv-x="820" 
d="M410 -12q-109 0 -192.5 46t-130 128.5t-46.5 190.5q0 109 46.5 191t130 127.5t192.5 45.5q110 0 193 -45.5t129.5 -127.5t46.5 -191t-46.5 -191t-129.5 -128t-193 -46zM410 167q68 0 107 49.5t39 136.5t-39 136t-107 49t-107 -48.5t-39 -136.5t39 -137t107 -49zM289 921
q-62 0 -62 55t62 55h238q62 0 62 -55t-62 -55h-238zM300 763q-43 0 -67 16.5t-24 47.5t24 47t67 16q90 0 90 -63q0 -64 -90 -64zM516 763q-90 0 -90 64q0 63 90 63t90 -63q0 -64 -90 -64z" />
    <glyph glyph-name="uni022B" unicode="&#x22b;" horiz-adv-x="616" 
d="M308 -12q-85 0 -149 31t-99.5 89.5t-35.5 138.5q0 81 35.5 139t99.5 89t149 31q86 0 149.5 -31t99 -89t35.5 -139q0 -80 -35.5 -138.5t-99 -89.5t-149.5 -31zM308 140q32 0 53.5 24t21.5 83t-21.5 83t-53.5 24t-53.5 -24t-21.5 -83t21.5 -83t53.5 -24zM189 710
q-62 0 -62 55t62 55h238q62 0 62 -55t-62 -55h-238zM200 552q-43 0 -67 16.5t-24 47.5t24 47t67 16q90 0 90 -63q0 -64 -90 -64zM416 552q-90 0 -90 64q0 63 90 63t90 -63q0 -64 -90 -64z" />
    <glyph glyph-name="uni022C" unicode="&#x22c;" horiz-adv-x="820" 
d="M410 -12q-109 0 -192.5 46t-130 128.5t-46.5 190.5q0 109 46.5 191t130 127.5t192.5 45.5q110 0 193 -45.5t129.5 -127.5t46.5 -191t-46.5 -191t-129.5 -128t-193 -46zM410 167q68 0 107 49.5t39 136.5t-39 136t-107 49t-107 -48.5t-39 -136.5t39 -137t107 -49zM289 921
q-62 0 -62 55t62 55h238q62 0 62 -55t-62 -55h-238zM255 762q-22 1 -33.5 15t-3.5 36q14 36 45.5 56.5t75.5 20.5q27 0 50.5 -7t44 -14t36.5 -7q11 0 20 1t15 5q17 11 27.5 19.5t28.5 6.5q23 -1 34 -14.5t3 -36.5q-13 -37 -44.5 -57.5t-76.5 -20.5q-26 0 -50 7.5t-44 14.5
t-37 7q-22 0 -35 -7q-16 -9 -27 -17.5t-29 -7.5z" />
    <glyph glyph-name="uni022D" unicode="&#x22d;" horiz-adv-x="616" 
d="M308 -12q-85 0 -149 31t-99.5 89.5t-35.5 138.5q0 81 35.5 139t99.5 89t149 31q86 0 149.5 -31t99 -89t35.5 -139q0 -80 -35.5 -138.5t-99 -89.5t-149.5 -31zM308 140q32 0 53.5 24t21.5 83t-21.5 83t-53.5 24t-53.5 -24t-21.5 -83t21.5 -83t53.5 -24zM189 710
q-62 0 -62 55t62 55h238q62 0 62 -55t-62 -55h-238zM155 551q-22 1 -33.5 15t-3.5 36q13 36 45 56.5t76 20.5q27 0 50.5 -7t44 -14t36.5 -7q22 0 35 6q17 10 27.5 18.5t28.5 7.5q23 -1 34 -14.5t3 -36.5q-12 -37 -44 -57.5t-77 -20.5q-26 0 -50 7.5t-44 14.5t-37 7
q-22 0 -35 -7q-16 -9 -27 -17.5t-29 -7.5z" />
    <glyph glyph-name="uni0230" unicode="&#x230;" horiz-adv-x="820" 
d="M410 -12q-109 0 -192.5 46t-130 128.5t-46.5 190.5q0 109 46.5 191t130 127.5t192.5 45.5q110 0 193 -45.5t129.5 -127.5t46.5 -191t-46.5 -191t-129.5 -128t-193 -46zM410 167q68 0 107 49.5t39 136.5t-39 136t-107 49t-107 -48.5t-39 -136.5t39 -137t107 -49zM289 921
q-62 0 -62 55t62 55h238q62 0 62 -55t-62 -55h-238zM409 763q-43 0 -67 16.5t-24 47.5t24 47t67 16q90 0 90 -63q0 -64 -90 -64z" />
    <glyph glyph-name="uni0231" unicode="&#x231;" horiz-adv-x="616" 
d="M308 -12q-85 0 -149 31t-99.5 89.5t-35.5 138.5q0 81 35.5 139t99.5 89t149 31q86 0 149.5 -31t99 -89t35.5 -139q0 -80 -35.5 -138.5t-99 -89.5t-149.5 -31zM308 140q32 0 53.5 24t21.5 83t-21.5 83t-53.5 24t-53.5 -24t-21.5 -83t21.5 -83t53.5 -24zM189 710
q-62 0 -62 55t62 55h238q62 0 62 -55t-62 -55h-238zM309 552q-43 0 -67 16.5t-24 47.5t24 47t67 16q90 0 90 -63q0 -64 -90 -64z" />
    <glyph glyph-name="uni0232" unicode="&#x232;" horiz-adv-x="660" 
d="M330 -10q-52 0 -80 28.5t-28 82.5v205l-180 264q-19 28 -16 62t28 58.5t72 24.5q33 0 59.5 -16t50.5 -53l97 -148l97 149q24 37 50 52.5t60 15.5q45 0 69.5 -22.5t26.5 -56.5t-21 -68l-178 -262v-205q0 -111 -107 -111zM186 790q-57 0 -57 55t57 55h286q57 0 57 -55
t-57 -55h-286z" />
    <glyph glyph-name="uni0233" unicode="&#x233;" horiz-adv-x="549" 
d="M198 -190q-35 0 -57.5 18.5t-28 48.5t10.5 64l47 101l-146 331q-15 35 -9.5 64.5t31 48t69.5 18.5q37 0 59.5 -17t41.5 -67l64 -169l68 171q19 47 43 64.5t64 17.5q34 0 55 -18.5t26 -48t-11 -64.5l-218 -485q-20 -46 -45.5 -62t-63.5 -16zM147 599q-57 0 -57 55t57 55
h256q57 0 57 -55t-57 -55h-256z" />
    <glyph glyph-name="uni0237" unicode="&#x237;" horiz-adv-x="303" 
d="M33 -186q-36 0 -57 14t-28.5 34.5t-3.5 42t19 36.5t38 17q49 4 49 50v391q0 51 27 78t77 27t77 -27t27 -78v-370q0 -104 -54.5 -159.5t-170.5 -55.5z" />
    <glyph glyph-name="uni0253" unicode="&#x253;" horiz-adv-x="632" 
d="M393 -12q-48 0 -88 20.5t-59 54.5q-16 -73 -99 -73q-103 0 -103 105v383q0 107 61.5 172t181.5 65q58 0 79.5 -22t21.5 -56q0 -40 -11.5 -61.5t-36.5 -21.5q-4 0 -11.5 1t-16.5 1q-28 0 -44 -18t-16 -59v-37q21 29 59 46.5t82 17.5q63 0 111.5 -31t76 -89t27.5 -139
q0 -80 -27.5 -138.5t-76 -89.5t-111.5 -31zM324 140q32 0 53.5 24t21.5 83t-21.5 83t-53.5 24t-53.5 -24t-21.5 -83t21.5 -83t53.5 -24z" />
    <glyph glyph-name="uni0257" unicode="&#x257;" horiz-adv-x="632" 
d="M239 -12q-62 0 -111 31t-76.5 89.5t-27.5 138.5q0 81 27.5 139t76 89t111.5 31q44 0 82 -17.5t59 -46.5v36q0 107 60.5 172t172.5 65q65 0 88 -22t23 -56q0 -40 -11.5 -61.5t-36.5 -21.5q-4 0 -11.5 1t-16.5 1q-28 0 -44 -18t-16 -59v-384q0 -51 -26 -78t-76 -27
q-84 0 -100 73q-19 -34 -59 -54.5t-88 -20.5zM308 140q32 0 53.5 24t21.5 83t-21.5 83t-53.5 24t-53.5 -24t-21.5 -83t21.5 -83t53.5 -24z" />
    <glyph glyph-name="uni0259" unicode="&#x259;" horiz-adv-x="563" 
d="M276 -12q-119 0 -187.5 67.5t-68.5 182.5q0 27 12 38.5t34 11.5h275q-9 37 -35 52t-69 15q-20 0 -47.5 -4.5t-51.5 -12.5q-29 -9 -51 -1t-35 26.5t-14 41t11 42.5t39 30q36 14 78 21.5t79 7.5q90 0 156 -32t102 -90.5t36 -137.5q0 -76 -34.5 -134t-94 -91t-134.5 -33z
M262 121q33 0 54 18.5t27 57.5h-147q3 -40 21 -58t45 -18z" />
    <glyph glyph-name="uni0292" unicode="&#x292;" horiz-adv-x="557" 
d="M241 -192q-54 0 -100 7.5t-83 20.5q-33 12 -48.5 34.5t-15.5 47t14 44t39 26.5t59 -7q21 -8 51.5 -13t54.5 -5q115 0 115 67q0 37 -29 54t-92 17h-44q-27 0 -41.5 18t-12.5 43t24 45l147 135h-184q-80 0 -80 76t80 76h328q34 0 56 -16t30 -41t1 -52t-32 -49l-121 -107
q83 -12 129.5 -60t46.5 -123q0 -71 -36.5 -125t-102 -83.5t-153.5 -29.5z" />
    <glyph glyph-name="uni02B9" unicode="&#x2b9;" horiz-adv-x="283" 
d="M142 379q-31 0 -54 21.5t-28 57.5l-18 138q-7 50 22 84.5t78 34.5t78 -34.5t22 -84.5l-19 -138q-4 -35 -27 -57t-54 -22z" />
    <glyph glyph-name="uni02BA" unicode="&#x2ba;" horiz-adv-x="553" 
d="M142 379q-31 0 -53.5 21.5t-27.5 57.5l-20 138q-7 50 22.5 84.5t78.5 34.5t79 -34.5t22 -84.5l-21 -138q-5 -35 -27 -57t-53 -22zM412 379q-31 0 -53.5 21.5t-27.5 57.5l-20 138q-7 50 22.5 84.5t78.5 34.5t79 -34.5t22 -84.5l-21 -138q-5 -35 -27 -57t-53 -22z" />
    <glyph glyph-name="uni02BB" unicode="&#x2bb;" horiz-adv-x="500" 
d="M250 548q-98 0 -98 90q0 38 11.5 74t36.5 64q14 15 31 17.5t31 -5.5t17.5 -24t-10.5 -36q-6 -9 -11 -21q91 -4 91 -80q0 -79 -99 -79z" />
    <glyph glyph-name="uni02BC" unicode="&#x2bc;" horiz-adv-x="400" 
d="M249 577q-13 -15 -30.5 -17.5t-31.5 5.5t-17.5 24t10.5 36q6 9 11 21q-91 4 -91 80q0 79 99 79q98 0 98 -90q0 -37 -11.5 -73t-36.5 -65z" />
    <glyph glyph-name="uni02BE" unicode="&#x2be;" horiz-adv-x="500" 
d="M289 553q-22 -7 -35.5 3t-13.5 27q0 19 10 26.5t25 19.5q14 11 14 32q0 20 -13 32q-15 14 -25.5 20.5t-10.5 25.5q0 17 13 28t35 3q36 -12 57 -41.5t21 -67.5q0 -37 -20.5 -67t-56.5 -41z" />
    <glyph glyph-name="uni02BF" unicode="&#x2bf;" horiz-adv-x="500" 
d="M212 553q-36 12 -57 42t-21 67t20.5 66.5t56.5 41.5q23 7 36 -3t13 -27q0 -19 -10 -26.5t-25 -19.5q-14 -11 -14 -32q0 -20 13 -32q15 -13 25.5 -20t10.5 -26q0 -17 -13 -27.5t-35 -3.5z" />
    <glyph glyph-name="circumflex" unicode="&#x2c6;" horiz-adv-x="500" 
d="M411 625q13 -24 6 -43.5t-25 -30t-39.5 -7.5t-36.5 24l-66 93l-66 -93q-15 -21 -36.5 -24t-39.5 7.5t-25 30t6 43.5l50 92q18 34 46 53.5t65 19.5q38 0 65.5 -19.5t45.5 -53.5z" />
    <glyph glyph-name="caron" unicode="&#x2c7;" horiz-adv-x="500" 
d="M250 533q-37 0 -65 19.5t-46 53.5l-50 92q-13 24 -6 43.5t25 30t39.5 7.5t36.5 -24l66 -93l66 93q15 21 36.5 24t39.5 -7.5t25 -30t-6 -43.5l-50 -92q-18 -34 -45.5 -53.5t-65.5 -19.5z" />
    <glyph glyph-name="uni02C8" unicode="&#x2c8;" horiz-adv-x="500" 
d="M250 582q-60 0 -60 62v104q0 62 60 62t60 -62v-104q0 -62 -60 -62z" />
    <glyph glyph-name="uni02C9" unicode="&#x2c9;" horiz-adv-x="500" 
d="M122 599q-57 0 -57 55t57 55h256q57 0 57 -55t-57 -55h-256z" />
    <glyph glyph-name="uni02CA" unicode="&#x2ca;" horiz-adv-x="500" 
d="M323 567q-16 -21 -38.5 -23.5t-42 8.5t-28 31t3.5 45l60 123q13 27 36 35t46.5 1t41 -24t21.5 -40t-15 -47z" />
    <glyph glyph-name="uni02CB" unicode="&#x2cb;" horiz-adv-x="500" 
d="M177 567l-85 109q-19 24 -15 47t21.5 40t41 24t46.5 -1t36 -35l60 -123q12 -25 3.5 -45t-28 -31t-42 -8.5t-38.5 23.5z" />
    <glyph glyph-name="uni02CC" unicode="&#x2cc;" horiz-adv-x="500" 
d="M250 -280q-60 0 -60 62v104q0 62 60 62t60 -62v-104q0 -62 -60 -62z" />
    <glyph glyph-name="breve" unicode="&#x2d8;" horiz-adv-x="500" 
d="M250 554q-55 0 -93.5 21t-60.5 53.5t-28 65.5q-7 32 8 50.5t41 20.5q27 2 40 -12.5t27 -42.5q21 -40 66 -40t66 40q14 28 27 42.5t40 12.5q26 -2 41.5 -20.5t7.5 -50.5q-6 -33 -28 -65.5t-60.5 -53.5t-93.5 -21z" />
    <glyph glyph-name="dotaccent" unicode="&#x2d9;" horiz-adv-x="500" 
d="M250 569q-46 0 -71 24t-25 67q0 44 25 67t71 23q47 0 71.5 -23t24.5 -67q0 -91 -96 -91z" />
    <glyph glyph-name="ring" unicode="&#x2da;" horiz-adv-x="500" 
d="M250 544q-39 0 -71 17.5t-50.5 48.5t-18.5 69q0 39 18.5 69.5t50.5 48t71 17.5q40 0 71.5 -17.5t50 -48t18.5 -69.5q0 -38 -18.5 -69t-50 -48.5t-71.5 -17.5zM250 626q22 0 37 15t15 38t-15 37.5t-37 14.5t-37 -14.5t-15 -37.5t15 -38t37 -15z" />
    <glyph glyph-name="ogonek" unicode="&#x2db;" horiz-adv-x="500" 
d="M224 -200q-69 0 -105.5 31.5t-36.5 84.5q0 47 32 83.5t82 52.5l54 -52q-28 -10 -38.5 -27t-10.5 -33q0 -19 15 -30t37 -11q6 0 12 0.5t12 1.5q27 3 41.5 -8t16 -28.5t-9 -33.5t-33.5 -23q-18 -5 -36 -6.5t-32 -1.5z" />
    <glyph glyph-name="tilde" unicode="&#x2dc;" horiz-adv-x="500" 
d="M77 570q-48 3 -41 55q2 16 10.5 37.5t25.5 42.5t42 35t60 14t58 -11.5t43 -23.5t45 -12q29 0 44 19q14 18 25.5 28t31.5 9q26 -1 36 -16.5t7 -38.5t-18.5 -53.5t-45 -53t-74.5 -22.5q-34 0 -57.5 12t-43.5 23.5t-45 11.5q-28 0 -44 -19q-9 -10 -21 -24t-38 -13z" />
    <glyph glyph-name="hungarumlaut" unicode="&#x2dd;" horiz-adv-x="500" 
d="M401 575q-10 -21 -28.5 -28t-38 -2.5t-31 20t-6.5 39.5l26 132q6 29 25 42t43 12t44 -13t28 -33t-5 -49zM213 575q-10 -21 -28.5 -28t-38 -2.5t-31 20t-6.5 39.5l26 132q6 29 25 42t43 12t44 -13t28 -33t-5 -49z" />
    <glyph glyph-name="gravecomb" unicode="&#x300;" 
d="M-73 567l-85 109q-19 24 -15 47t21.5 40t41 24t46.5 -1t36 -35l60 -123q12 -25 3.5 -45t-28 -31t-42 -8.5t-38.5 23.5z" />
    <glyph glyph-name="acutecomb" unicode="&#x301;" 
d="M73 567q-16 -21 -38.5 -23.5t-42 8.5t-28 31t3.5 45l60 123q13 27 36 35t46.5 1t41 -24t21.5 -40t-15 -47z" />
    <glyph glyph-name="uni0302" unicode="&#x302;" 
d="M161 625q13 -24 6 -43.5t-25 -30t-39.5 -7.5t-36.5 24l-66 93l-66 -93q-15 -21 -36.5 -24t-39.5 7.5t-25 30t6 43.5l50 92q18 34 46 53.5t65 19.5q38 0 65.5 -19.5t45.5 -53.5z" />
    <glyph glyph-name="tildecomb" unicode="&#x303;" 
d="M-173 570q-48 3 -41 55q2 16 10.5 37.5t25.5 42.5t42 35t60 14t58 -11.5t43 -23.5t45 -12q29 0 44 19q14 18 25.5 28t31.5 9q26 -1 36 -16.5t7 -38.5t-18.5 -53.5t-45 -53t-74.5 -22.5q-34 0 -57.5 12t-43.5 23.5t-45 11.5q-28 0 -44 -19q-9 -10 -21 -24t-38 -13z" />
    <glyph glyph-name="uni0304" unicode="&#x304;" 
d="M-128 599q-57 0 -57 55t57 55h256q57 0 57 -55t-57 -55h-256z" />
    <glyph glyph-name="uni0306" unicode="&#x306;" 
d="M0 554q-55 0 -93.5 21t-60.5 53.5t-28 65.5q-7 32 8 50.5t41 20.5q27 2 40 -12.5t27 -42.5q21 -40 66 -40t66 40q14 28 27 42.5t40 12.5q26 -2 41.5 -20.5t7.5 -50.5q-6 -33 -28 -65.5t-60.5 -53.5t-93.5 -21z" />
    <glyph glyph-name="uni0307" unicode="&#x307;" 
d="M0 569q-46 0 -71 24t-25 67q0 44 25 67t71 23q47 0 71.5 -23t24.5 -67q0 -91 -96 -91z" />
    <glyph glyph-name="uni0308" unicode="&#x308;" 
d="M108 568q-43 0 -66.5 24t-23.5 67q0 44 23.5 67t66.5 23q44 0 67 -23t23 -67q0 -91 -90 -91zM-108 568q-43 0 -66.5 24t-23.5 67q0 44 23.5 67t66.5 23q44 0 67 -23t23 -67q0 -91 -90 -91z" />
    <glyph glyph-name="hookabovecomb" unicode="&#x309;" 
d="M0 548q-58 0 -58 33q0 23 11 36.5t22 24.5t11 24q0 11 -8 15.5t-20 4.5h-9.5t-12.5 -2q-23 -4 -36 -1t-21 22q-7 19 -0.5 34.5t29.5 22.5q42 13 101 13t92 -20t33 -58q0 -26 -11.5 -42t-26.5 -27.5t-26.5 -23t-11.5 -27.5q0 -13 -14.5 -21t-43.5 -8z" />
    <glyph glyph-name="uni030A" unicode="&#x30a;" 
d="M0 544q-39 0 -71 17.5t-50.5 48.5t-18.5 69q0 39 18.5 69.5t50.5 48t71 17.5q40 0 71.5 -17.5t50 -48t18.5 -69.5q0 -38 -18.5 -69t-50 -48.5t-71.5 -17.5zM0 626q22 0 37 15t15 38t-15 37.5t-37 14.5t-37 -14.5t-15 -37.5t15 -38t37 -15z" />
    <glyph glyph-name="uni030B" unicode="&#x30b;" 
d="M151 575q-10 -21 -28.5 -28t-38 -2.5t-31 20t-6.5 39.5l26 132q6 29 25 42t43 12t44 -13t28 -33t-5 -49zM-37 575q-10 -21 -28.5 -28t-38 -2.5t-31 20t-6.5 39.5l26 132q6 29 25 42t43 12t44 -13t28 -33t-5 -49z" />
    <glyph glyph-name="uni030C" unicode="&#x30c;" 
d="M0 533q-37 0 -65 19.5t-46 53.5l-50 92q-13 24 -6 43.5t25 30t39.5 7.5t36.5 -24l66 -93l66 93q15 21 36.5 24t39.5 -7.5t25 -30t-6 -43.5l-50 -92q-18 -34 -45.5 -53.5t-65.5 -19.5z" />
    <glyph glyph-name="uni030F" unicode="&#x30f;" 
d="M37 575l-57 120q-13 28 -5 49t28 33t44 13t43 -12t25 -42l26 -132q5 -24 -6.5 -39.5t-31 -20t-38 2.5t-28.5 28zM-151 575l-57 120q-13 28 -5 49t28 33t44 13t43 -12t25 -42l26 -132q5 -24 -6.5 -39.5t-31 -20t-38 2.5t-28.5 28z" />
    <glyph glyph-name="uni0311" unicode="&#x311;" 
d="M-133 552q-26 2 -40.5 21t-8.5 50q7 33 29 65.5t60 53.5t93 21t92.5 -21.5t59.5 -53.5t30 -65q8 -31 -7.5 -50t-41.5 -21q-27 -2 -40 12.5t-27 42.5q-21 40 -66 40t-66 -40q-14 -28 -27 -42.5t-40 -12.5z" />
    <glyph glyph-name="uni0312" unicode="&#x312;" 
d="M0 548q-98 0 -98 90q0 38 11.5 74t36.5 64q14 15 31 17.5t31 -5.5t17.5 -24t-10.5 -36q-6 -9 -11 -21q91 -4 91 -80q0 -79 -99 -79z" />
    <glyph glyph-name="uni031B" unicode="&#x31b;" 
d="M127 404l-127 77v13q39 0 56.5 15.5t17.5 48.5q0 58 90 58q43 0 66 -14.5t23 -42.5q0 -58 -35.5 -102t-90.5 -53z" />
    <glyph glyph-name="dotbelowcomb" unicode="&#x323;" 
d="M0 -242q-46 0 -71 24t-25 67q0 44 25 67t71 23q47 0 71.5 -23t24.5 -67q0 -91 -96 -91z" />
    <glyph glyph-name="uni0324" unicode="&#x324;" 
d="M108 -219q-43 0 -66.5 24t-23.5 67q0 44 23.5 67t66.5 23q44 0 67 -23t23 -67q0 -91 -90 -91zM-108 -219q-43 0 -66.5 24t-23.5 67q0 44 23.5 67t66.5 23q44 0 67 -23t23 -67q0 -91 -90 -91z" />
    <glyph glyph-name="uni0326" unicode="&#x326;" 
d="M49 -278q-13 -15 -30.5 -17.5t-31.5 5.5t-17.5 24t10.5 36q6 9 11 21q-91 4 -91 80q0 79 99 79q98 0 98 -90q0 -37 -11.5 -73t-36.5 -65z" />
    <glyph glyph-name="uni0327" unicode="&#x327;" 
d="M-4 -200q-21 0 -43 2.5t-43 7.5q-22 6 -31 21t-6 31.5t17 26t36 3.5q27 -7 46 -7q26 0 36.5 4t10.5 13q0 14 -36 14q-6 0 -12 -0.5t-12 -1.5t-11.5 0.5t-10.5 6.5q-9 10 -6 29l10 70h95l-7 -48q48 -1 73.5 -21.5t25.5 -56.5q0 -43 -37 -68.5t-95 -25.5z" />
    <glyph glyph-name="uni0328" unicode="&#x328;" 
d="M-26 -200q-69 0 -105.5 31.5t-36.5 84.5q0 47 32 83.5t82 52.5l54 -52q-28 -10 -38.5 -27t-10.5 -33q0 -19 15 -30t37 -11q6 0 12 0.5t12 1.5q27 3 41.5 -8t16 -28.5t-9 -33.5t-33.5 -23q-18 -5 -36 -6.5t-32 -1.5z" />
    <glyph glyph-name="uni032E" unicode="&#x32e;" 
d="M0 -215q-65 0 -112.5 26.5t-65.5 75.5q-12 32 2.5 51t39.5 21q26 2 40 -9t34 -31q21 -21 62 -21t62 21q20 20 34.5 31t39.5 9q26 -2 40 -21t2 -51q-18 -49 -65.5 -75.5t-112.5 -26.5z" />
    <glyph glyph-name="uni0331" unicode="&#x331;" 
d="M-128 -181q-57 0 -57 55t57 55h256q57 0 57 -55t-57 -55h-256z" />
    <glyph glyph-name="uni0335" unicode="&#x335;" 
d="M-170 540q-74 0 -74 70t74 70h340q74 0 74 -70t-74 -70h-340z" />
    <glyph glyph-name="uni0337" unicode="&#x337;" 
d="M-97 211q-29 -17 -54.5 -13.5t-43 20t-23 40t4 47.5t38.5 41l272 159q29 17 54.5 13.5t43 -20t23 -40t-4 -47.5t-38.5 -41z" />
    <glyph glyph-name="uni0338" unicode="&#x338;" 
d="M-111 -41q-13 -21 -33 -24.5t-37.5 6.5t-24 29t7.5 43l307 521q13 22 33 25t37.5 -7.5t24.5 -30t-7 -42.5z" />
    <glyph glyph-name="uni0394" unicode="&#x394;" horiz-adv-x="773" 
d="M140 0q-76 0 -96 50.5t16 128.5l204 444q38 82 123 82q83 0 121 -82l205 -444q37 -79 15.5 -129t-95.5 -50h-493zM385 484l-134 -320h271l-135 320h-2z" />
    <glyph glyph-name="Sigma" unicode="&#x3a3;" horiz-adv-x="600" 
d="M124 -180q-55 0 -82.5 31.5t-23 80t44.5 97.5l189 234l-189 233q-41 51 -45 99t24 79t82 31h362q53 0 81 -22.5t28 -64.5t-28 -64.5t-81 -22.5h-208l144 -175q41 -49 41.5 -92t-41.5 -95l-144 -175h208q53 0 81 -22.5t28 -64.5t-28 -64.5t-81 -22.5h-362z" />
    <glyph glyph-name="uni03A9" unicode="&#x3a9;" horiz-adv-x="838" 
d="M105 0q-86 0 -86 85t86 85h56q-67 44 -94.5 104.5t-27.5 137.5q0 94 50.5 162t136.5 105t193 37t193 -37t136.5 -105t50.5 -162q0 -77 -27.5 -137.5t-94.5 -104.5h56q41 0 63.5 -22t22.5 -63q0 -85 -86 -85h-182q-47 0 -72 28.5t-25 65.5q0 35 14 61t43 55q35 35 50 78.5
t15 89.5q0 77 -43 118t-114 41t-114 -41t-43 -118q0 -39 15 -87t50 -81q30 -28 44 -53.5t14 -60.5q0 -38 -25.5 -67t-72.5 -29h-182z" />
    <glyph glyph-name="uni03BC" unicode="&#x3bc;" horiz-adv-x="613" 
d="M146 -190q-50 0 -77 27t-27 78v484q0 51 27 78t77 27t77 -27t27 -78v-198q0 -55 47 -55q28 0 46 21.5t18 55.5v176q0 51 27 78t77 27t77 -27t27 -78v-304q0 -105 -101 -105q-49 0 -75.5 24.5t-26.5 60.5v8h-4q-4 -46 -26 -70.5t-45 -24.5q-20 0 -31.5 8.5t-21.5 23.5h-4
l7 -101q4 -52 -20.5 -80.5t-74.5 -28.5z" />
    <glyph glyph-name="pi" unicode="&#x3c0;" horiz-adv-x="677" 
d="M151 -10q-55 0 -78.5 32t-10.5 88q16 68 24 124.5t9 107.5h-20q-38 0 -60 20t-22 56q0 76 86 76h490q86 0 86 -76q0 -37 -22 -56.5t-59 -19.5h-20v-94q0 -49 18 -71.5t55 -22.5h12q18 0 28 -11t10 -49q0 -61 -24.5 -83.5t-72.5 -22.5q-123 0 -178.5 63t-55.5 175v116h-45
q-1 -74 -9 -139.5t-23 -124.5q-12 -46 -41.5 -67t-76.5 -21z" />
    <glyph glyph-name="uni0400" unicode="&#x400;" horiz-adv-x="624" 
d="M168 0q-54 0 -82.5 28.5t-28.5 82.5v483q0 54 28.5 82.5t82.5 28.5h330q83 0 83 -82t-83 -82h-236v-101h213q83 0 83 -82t-83 -82h-213v-112h236q83 0 83 -82t-83 -82h-330zM257 774l-76 73q-20 20 -19 41t15.5 39t36 27t44 4.5t38.5 -28.5l58 -87q14 -21 8.5 -41
t-23 -33.5t-40 -13.5t-42.5 19z" />
    <glyph glyph-name="uni0401" unicode="&#x401;" horiz-adv-x="624" 
d="M168 0q-54 0 -82.5 28.5t-28.5 82.5v483q0 54 28.5 82.5t82.5 28.5h330q83 0 83 -82t-83 -82h-236v-101h213q83 0 83 -82t-83 -82h-213v-112h236q83 0 83 -82t-83 -82h-330zM444 755q-43 0 -66.5 23.5t-23.5 66.5q0 44 23.5 67t66.5 23q44 0 67 -23t23 -67q0 -90 -90 -90
zM228 755q-43 0 -66.5 23.5t-23.5 66.5q0 44 23.5 67t66.5 23q44 0 67 -23t23 -67q0 -90 -90 -90z" />
    <glyph glyph-name="uni0402" unicode="&#x402;" horiz-adv-x="923" 
d="M612 -192q-11 0 -35.5 1.5t-40.5 4.5q-34 6 -50 25.5t-18 44t7.5 47t29.5 35.5t46 9q10 -1 16.5 -1.5t16.5 -0.5q36 0 58.5 25.5t22.5 68.5v73q0 74 -39.5 105t-101.5 31q-20 0 -44 -3.5t-44 -10.5v-163q0 -52 -27 -80.5t-80 -28.5q-52 0 -80 28.5t-28 80.5v432h-136
q-88 0 -88 87t88 87h487q88 0 88 -87t-88 -87h-136v-92q19 6 51.5 11t64.5 5q154 0 241 -75.5t87 -233.5v-69q0 -85 -34.5 -145.5t-95 -92t-138.5 -31.5z" />
    <glyph glyph-name="uni0403" unicode="&#x403;" horiz-adv-x="591" 
d="M165 -10q-52 0 -80 28.5t-28 80.5v495q0 54 28.5 82.5t82.5 28.5h326q88 0 88 -87t-88 -87h-222v-432q0 -52 -27 -80.5t-80 -28.5zM364 774q-20 -19 -42.5 -19t-40 13.5t-23 33.5t8.5 41l58 87q16 24 38.5 28.5t44 -4.5t36 -27t15.5 -39t-19 -41z" />
    <glyph glyph-name="uni0404" unicode="&#x404;" horiz-adv-x="692" 
d="M429 -12q-121 0 -208 45.5t-133.5 127.5t-46.5 192t46.5 191.5t133.5 127t208 45.5q43 0 88 -9t85 -26q34 -15 48.5 -40.5t12.5 -53.5t-18.5 -50.5t-44.5 -31t-64 4.5q-52 19 -99 19q-58 0 -98.5 -22t-59.5 -67h169q41 0 63.5 -21t22.5 -61q0 -82 -86 -82h-173
q18 -55 60.5 -78.5t101.5 -23.5q24 0 52 5.5t51 15.5q37 17 64.5 9t43.5 -30.5t19 -51.5t-10.5 -55.5t-45.5 -40.5q-86 -39 -182 -39z" />
    <glyph glyph-name="uni0405" unicode="&#x405;" horiz-adv-x="663" 
d="M330 -12q-38 0 -81 5.5t-82.5 15t-70.5 21.5q-32 13 -45 37.5t-10 52.5t19 50t43 30.5t61 -5.5q35 -14 82.5 -23t83.5 -9q58 0 79 13t21 30q0 16 -14.5 26.5t-53.5 18.5l-120 26q-191 41 -191 203q0 72 39 125t109 82.5t163 29.5q47 0 100 -10t91 -29q27 -13 39.5 -37
t10.5 -50t-16.5 -46.5t-40.5 -28t-63 5.5q-25 9 -60 14.5t-64 5.5q-49 0 -73.5 -14t-24.5 -37q0 -13 14 -23.5t54 -18.5l120 -26q191 -42 191 -199q0 -71 -38.5 -124.5t-108 -82.5t-163.5 -29z" />
    <glyph glyph-name="uni0406" unicode="&#x406;" horiz-adv-x="329" 
d="M165 -10q-52 0 -80 28.5t-28 81.5v505q0 53 28 81.5t80 28.5t79.5 -28.5t27.5 -81.5v-505q0 -53 -27 -81.5t-80 -28.5z" />
    <glyph glyph-name="uni0407" unicode="&#x407;" horiz-adv-x="329" 
d="M165 -10q-52 0 -80 28.5t-28 81.5v505q0 53 28 81.5t80 28.5t79.5 -28.5t27.5 -81.5v-505q0 -53 -27 -81.5t-80 -28.5zM272 755q-43 0 -66.5 23.5t-23.5 66.5q0 44 23.5 67t66.5 23q44 0 67 -23t23 -67q0 -90 -90 -90zM56 755q-43 0 -66.5 23.5t-23.5 66.5q0 44 23.5 67
t66.5 23q44 0 67 -23t23 -67q0 -90 -90 -90z" />
    <glyph glyph-name="uni0408" unicode="&#x408;" horiz-adv-x="411" 
d="M80 -9q-46 -2 -71 24t-25 67q0 32 17.5 55t51.5 25l27 2q32 2 45.5 12.5t13.5 40.5v389q0 53 28 81t80 28t79.5 -28t27.5 -81v-385q0 -109 -58.5 -165t-178.5 -63z" />
    <glyph glyph-name="uni0409" unicode="&#x409;" horiz-adv-x="1140" 
d="M611 0q-54 0 -82.5 28.5t-28.5 82.5v420h-145v-101q0 -137 -47 -246.5t-136 -172.5q-34 -25 -71 -19.5t-65 40.5t-19.5 71.5t42.5 65.5q56 49 77.5 130.5t21.5 186.5v108q0 54 28.5 82.5t82.5 28.5h335q54 0 82.5 -28.5t28.5 -82.5v-152h152q116 0 184 -57.5t68 -163.5
t-68 -163.5t-184 -57.5h-256zM715 160h122q42 0 60.5 15t18.5 46t-18.5 46t-60.5 15h-122v-122z" />
    <glyph glyph-name="uni040A" unicode="&#x40a;" horiz-adv-x="1162" 
d="M165 -10q-52 0 -80 28.5t-28 81.5v505q0 53 28 81.5t80 28.5t79.5 -28.5t27.5 -81.5v-160h250v160q0 53 28 81.5t80 28.5t79.5 -28.5t27.5 -81.5v-163h152q116 0 184 -57.5t68 -163.5t-68 -163.5t-184 -57.5h-256q-54 0 -82.5 28.5t-28.5 82.5v158h-250v-169
q0 -53 -27 -81.5t-80 -28.5zM737 160h122q42 0 60.5 15t18.5 46t-18.5 46t-60.5 15h-122v-122z" />
    <glyph glyph-name="uni040B" unicode="&#x40b;" horiz-adv-x="899" 
d="M329 -10q-52 0 -80 28.5t-28 80.5v432h-136q-88 0 -88 87t88 87h487q88 0 88 -87t-88 -87h-136v-92q20 6 52 11t64 5q145 0 224.5 -75.5t79.5 -233.5v-46q0 -53 -28 -81.5t-80 -28.5t-79.5 28.5t-27.5 81.5v40q0 74 -29 105t-88 31q-20 0 -44 -3.5t-44 -10.5v-163
q0 -52 -27 -80.5t-80 -28.5z" />
    <glyph glyph-name="uni040C" unicode="&#x40c;" horiz-adv-x="739" 
d="M165 -10q-52 0 -80 28.5t-28 80.5v507q0 53 28 81t80 28t79.5 -28t27.5 -81v-173h53l130 227q21 36 51.5 48.5t60.5 5.5t51.5 -29t25.5 -54t-20 -70l-108 -173q63 -38 105 -126l58 -119q21 -44 13.5 -77t-33 -52.5t-58.5 -23t-63.5 12.5t-47.5 54l-62 138
q-16 35 -40.5 49.5t-65.5 14.5h-50v-160q0 -52 -27 -80.5t-80 -28.5zM441 774q-20 -19 -42.5 -19t-40 13.5t-23 33.5t8.5 41l58 87q16 24 38.5 28.5t44 -4.5t36 -27t15.5 -39t-19 -41z" />
    <glyph glyph-name="uni040D" unicode="&#x40d;" horiz-adv-x="763" 
d="M151 -10q-43 0 -68.5 27.5t-25.5 78.5v518q0 49 25.5 75t74.5 26t74.5 -26t25.5 -75v-263l250 303q26 32 49 46.5t63 14.5t63.5 -26t23.5 -70v-528q0 -49 -25.5 -75t-74.5 -26t-74.5 26t-25.5 75v263l-250 -303q-26 -32 -47.5 -46.5t-57.5 -14.5zM303 774l-76 73
q-20 20 -19 41t15.5 39t36 27t44 4.5t38.5 -28.5l58 -87q14 -21 8.5 -41t-23 -33.5t-40 -13.5t-42.5 19z" />
    <glyph glyph-name="uni040E" unicode="&#x40e;" horiz-adv-x="693" 
d="M296 -10q-38 0 -63.5 18.5t-31.5 51t14 73.5l42 83l-218 362q-21 35 -16 66.5t31 51t68 19.5t63 -20.5t43 -58.5l129 -223l111 222q14 29 37 54.5t70 25.5q38 0 64 -18t32.5 -50t-15.5 -75l-252 -502q-14 -29 -37.5 -54.5t-70.5 -25.5zM352 760q-86 0 -136 31.5t-70 77.5
q-12 27 -1 45.5t34 25.5q23 8 38.5 -2.5t33.5 -33.5q32 -41 101 -41t101 41q18 23 33.5 33.5t38.5 2.5q23 -7 33.5 -25.5t-0.5 -45.5q-19 -46 -69.5 -77.5t-136.5 -31.5z" />
    <glyph glyph-name="uni040F" unicode="&#x40f;" horiz-adv-x="786" 
d="M394 -190q-93 0 -93 94v96h-133q-54 0 -82.5 28.5t-28.5 82.5v494q0 53 28 81.5t80 28.5t79.5 -28.5t27.5 -81.5v-431h242v431q0 53 28 81.5t80 28.5t79.5 -28.5t27.5 -81.5v-494q0 -54 -28.5 -82.5t-82.5 -28.5h-132v-96q0 -94 -92 -94z" />
    <glyph glyph-name="uni0410" unicode="&#x410;" horiz-adv-x="773" 
d="M105 -10q-36 0 -60.5 17t-31 46.5t10.5 66.5l241 508q21 45 51.5 66t70.5 21t70 -21t51 -66l241 -508q18 -38 12.5 -67.5t-29 -46t-58.5 -16.5q-46 0 -71 21t-45 68l-22 52h-299l-22 -52q-20 -47 -42 -68t-68 -21zM385 483l-78 -188h159l-79 188h-2z" />
    <glyph glyph-name="uni0411" unicode="&#x411;" horiz-adv-x="697" 
d="M168 0q-54 0 -82.5 28.5t-28.5 82.5v483q0 54 28.5 82.5t82.5 28.5h361q83 0 83 -82t-83 -82h-267v-99h162q116 0 184 -57.5t68 -163.5t-68 -163.5t-184 -57.5h-256zM262 160h132q42 0 60.5 15t18.5 46t-18.5 46t-60.5 15h-132v-122z" />
    <glyph glyph-name="uni0412" unicode="&#x412;" horiz-adv-x="710" 
d="M168 0q-54 0 -82.5 28.5t-28.5 82.5v483q0 54 28.5 82.5t82.5 28.5h247q116 0 179 -49.5t63 -132.5q0 -54 -26.5 -94.5t-73.5 -60.5q119 -40 119 -166q0 -92 -68 -147t-184 -55h-256zM262 436h113q42 0 60 13.5t18 43.5t-18 43t-60 13h-113v-113zM262 156h132
q42 0 60.5 15.5t18.5 46.5t-18.5 46.5t-60.5 15.5h-132v-124z" />
    <glyph glyph-name="uni0413" unicode="&#x413;" horiz-adv-x="591" 
d="M165 -10q-52 0 -80 28.5t-28 80.5v495q0 54 28.5 82.5t82.5 28.5h326q88 0 88 -87t-88 -87h-222v-432q0 -52 -27 -80.5t-80 -28.5z" />
    <glyph glyph-name="uni0414" unicode="&#x414;" horiz-adv-x="838" 
d="M102 -190q-93 0 -93 94v167q0 80 70 92q80 99 80 353v78q0 54 28.5 82.5t82.5 28.5h335q54 0 82.5 -28.5t28.5 -82.5v-429h6q94 0 94 -94v-167q0 -94 -92 -94q-93 0 -93 94v96h-437v-96q0 -94 -92 -94zM293 165h208v376h-145v-49q0 -111 -16 -192.5t-47 -134.5z" />
    <glyph glyph-name="uni0415" unicode="&#x415;" horiz-adv-x="624" 
d="M168 0q-54 0 -82.5 28.5t-28.5 82.5v483q0 54 28.5 82.5t82.5 28.5h330q83 0 83 -82t-83 -82h-236v-101h213q83 0 83 -82t-83 -82h-213v-112h236q83 0 83 -82t-83 -82h-330z" />
    <glyph glyph-name="uni0416" unicode="&#x416;" horiz-adv-x="1100" 
d="M551 -10q-50 0 -76.5 28.5t-26.5 80.5v160h-30q-41 0 -65.5 -14.5t-40.5 -49.5l-62 -138q-17 -38 -47.5 -54t-63.5 -12.5t-58.5 23t-33 52.5t13.5 77l58 119q42 88 105 126l-108 173q-24 38 -20 70t25 54t51.5 29t61 -5.5t51.5 -48.5l130 -227h33v173q0 53 27 81t76 28
q50 0 76 -28t26 -81v-173h33l130 227q21 36 51.5 48.5t60.5 5.5t51.5 -29t25.5 -54t-20 -70l-108 -173q63 -38 105 -126l58 -119q21 -44 13.5 -77t-33 -52.5t-58.5 -23t-63.5 12.5t-47.5 54l-62 138q-16 35 -40.5 49.5t-65.5 14.5h-30v-160q0 -52 -26 -80.5t-76 -28.5z" />
    <glyph glyph-name="uni0417" unicode="&#x417;" horiz-adv-x="624" 
d="M289 -12q-61 0 -112.5 9.5t-96.5 28.5q-34 14 -48.5 38.5t-13 50.5t17 46.5t42 28.5t60.5 -6q29 -11 63.5 -16t66.5 -5q59 0 86.5 15t27.5 49q0 24 -18.5 36.5t-60.5 12.5h-93q-86 0 -86 82t86 82h74q42 0 60 11t18 37q0 23 -20.5 38.5t-70.5 15.5q-27 0 -57 -4.5
t-57 -14.5q-35 -13 -62 -5.5t-43 28.5t-18.5 46.5t11.5 49.5t46 37q93 38 208 38q92 0 152.5 -25.5t90 -69.5t29.5 -99q0 -54 -26.5 -94.5t-73.5 -60.5q119 -40 119 -166q0 -61 -32.5 -109.5t-99.5 -76.5t-169 -28z" />
    <glyph glyph-name="uni0418" unicode="&#x418;" horiz-adv-x="763" 
d="M151 -10q-43 0 -68.5 27.5t-25.5 78.5v518q0 49 25.5 75t74.5 26t74.5 -26t25.5 -75v-263l250 303q26 32 49 46.5t63 14.5t63.5 -26t23.5 -70v-528q0 -49 -25.5 -75t-74.5 -26t-74.5 26t-25.5 75v263l-250 -303q-26 -32 -47.5 -46.5t-57.5 -14.5z" />
    <glyph glyph-name="uni0419" unicode="&#x419;" horiz-adv-x="763" 
d="M151 -10q-43 0 -68.5 27.5t-25.5 78.5v518q0 49 25.5 75t74.5 26t74.5 -26t25.5 -75v-263l250 303q26 32 49 46.5t63 14.5t63.5 -26t23.5 -70v-528q0 -49 -25.5 -75t-74.5 -26t-74.5 26t-25.5 75v263l-250 -303q-26 -32 -47.5 -46.5t-57.5 -14.5zM382 760
q-86 0 -136 31.5t-70 77.5q-12 27 -1 45.5t34 25.5q23 8 38.5 -2.5t33.5 -33.5q32 -41 101 -41t101 41q18 23 33.5 33.5t38.5 2.5q23 -7 33.5 -25.5t-0.5 -45.5q-19 -46 -69.5 -77.5t-136.5 -31.5z" />
    <glyph glyph-name="uni041A" unicode="&#x41a;" horiz-adv-x="739" 
d="M165 -10q-52 0 -80 28.5t-28 80.5v507q0 53 28 81t80 28t79.5 -28t27.5 -81v-173h53l130 227q21 36 51.5 48.5t60.5 5.5t51.5 -29t25.5 -54t-20 -70l-108 -173q63 -38 105 -126l58 -119q21 -44 13.5 -77t-33 -52.5t-58.5 -23t-63.5 12.5t-47.5 54l-62 138
q-16 35 -40.5 49.5t-65.5 14.5h-50v-160q0 -52 -27 -80.5t-80 -28.5z" />
    <glyph glyph-name="uni041B" unicode="&#x41b;" horiz-adv-x="772" 
d="M608 -10q-52 0 -80 28.5t-28 81.5v431h-145v-101q0 -137 -47 -246t-136 -173q-34 -25 -71 -19.5t-65 40.5t-19.5 71.5t42.5 65.5q56 49 77.5 130.5t21.5 186.5v108q0 54 28.5 82.5t82.5 28.5h335q54 0 82.5 -28.5t28.5 -82.5v-494q0 -53 -27.5 -81.5t-79.5 -28.5z" />
    <glyph glyph-name="uni041C" unicode="&#x41c;" horiz-adv-x="893" 
d="M156 -10q-47 0 -72 25.5t-25 72.5v529q0 47 27 72.5t76 25.5q41 0 65 -16t44 -52l178 -314l178 314q20 36 44.5 52t64.5 16q47 0 72.5 -25.5t25.5 -72.5v-529q0 -47 -25 -72.5t-72 -25.5t-72 25.5t-25 72.5v244l-114 -189q-15 -25 -33.5 -37.5t-47.5 -12.5t-47.5 12.5
t-33.5 37.5l-111 184v-239q0 -47 -25 -72.5t-72 -25.5z" />
    <glyph glyph-name="uni041D" unicode="&#x41d;" horiz-adv-x="794" 
d="M165 -10q-52 0 -80 28.5t-28 81.5v505q0 53 28 81.5t80 28.5t79.5 -28.5t27.5 -81.5v-160h250v160q0 53 28 81.5t80 28.5t79.5 -28.5t27.5 -81.5v-505q0 -53 -27.5 -81.5t-79.5 -28.5t-80 28.5t-28 81.5v169h-250v-169q0 -53 -27 -81.5t-80 -28.5z" />
    <glyph glyph-name="uni041E" unicode="&#x41e;" horiz-adv-x="820" 
d="M410 -12q-109 0 -192.5 46t-130 128.5t-46.5 190.5q0 109 46.5 191t130 127.5t192.5 45.5q110 0 193 -45.5t129.5 -127.5t46.5 -191t-46.5 -191t-129.5 -128t-193 -46zM410 167q68 0 107 49.5t39 136.5t-39 136t-107 49t-107 -48.5t-39 -136.5t39 -137t107 -49z" />
    <glyph glyph-name="uni041F" unicode="&#x41f;" horiz-adv-x="786" 
d="M165 -10q-52 0 -80 28.5t-28 81.5v494q0 54 28.5 82.5t82.5 28.5h450q54 0 82.5 -28.5t28.5 -82.5v-494q0 -53 -27.5 -81.5t-79.5 -28.5t-80 28.5t-28 81.5v431h-242v-431q0 -53 -27 -81.5t-80 -28.5z" />
    <glyph glyph-name="uni0420" unicode="&#x420;" horiz-adv-x="689" 
d="M165 -10q-52 0 -80 28.5t-28 80.5v497q0 53 28.5 81t80.5 28h249q122 0 188.5 -63.5t66.5 -173.5t-66.5 -173.5t-188.5 -63.5h-143v-132q0 -52 -27 -80.5t-80 -28.5zM272 395h103q44 0 67.5 18t23.5 55q0 38 -23.5 55.5t-67.5 17.5h-103v-146z" />
    <glyph glyph-name="uni0421" unicode="&#x421;" horiz-adv-x="692" 
d="M429 -12q-121 0 -208 45.5t-133.5 127.5t-46.5 192t46.5 191.5t133.5 127t208 45.5q41 0 88.5 -9t83.5 -26q33 -16 46 -42t10 -54t-18 -50.5t-39 -32t-53 2.5t-55 18t-55 6q-85 0 -127 -45.5t-42 -131.5q0 -87 42 -132.5t127 -45.5q20 0 46 4.5t52 14.5q34 14 61 5.5
t43.5 -30.5t20 -50t-9 -53.5t-43.5 -40.5q-32 -16 -81.5 -26.5t-96.5 -10.5z" />
    <glyph glyph-name="uni0422" unicode="&#x422;" horiz-adv-x="657" 
d="M329 -10q-52 0 -80 28.5t-28 80.5v432h-136q-88 0 -88 87t88 87h487q88 0 88 -87t-88 -87h-136v-432q0 -52 -27 -80.5t-80 -28.5z" />
    <glyph glyph-name="uni0423" unicode="&#x423;" horiz-adv-x="693" 
d="M296 -10q-38 0 -63.5 18.5t-31.5 51t14 73.5l42 83l-218 362q-21 35 -16 66.5t31 51t68 19.5t63 -20.5t43 -58.5l129 -223l111 222q14 29 37 54.5t70 25.5q38 0 64 -18t32.5 -50t-15.5 -75l-252 -502q-14 -29 -37.5 -54.5t-70.5 -25.5z" />
    <glyph glyph-name="uni0424" unicode="&#x424;" horiz-adv-x="959" 
d="M480 -40q-48 0 -75.5 24t-31.5 69q-154 5 -243 81.5t-89 223.5t87.5 223.5t244.5 81.5q12 87 107 87q94 0 106 -87q157 -5 244.5 -81.5t87.5 -223.5t-89 -223.5t-243 -81.5q-8 -93 -106 -93zM258 358q0 -55 17.5 -87.5t44 -47t54.5 -14.5v298q-31 -1 -57.5 -15.5
t-42.5 -47t-16 -86.5zM701 358q0 80 -34.5 113.5t-80.5 35.5v-298q29 1 55.5 16t43 47.5t16.5 85.5z" />
    <glyph glyph-name="uni0425" unicode="&#x425;" horiz-adv-x="713" 
d="M145 -10q-41 0 -68 22t-31 56t23 70l165 217l-161 212q-27 36 -23 70t31 56t68 22q34 0 60 -16.5t51 -52.5l96 -136l98 136q26 37 51.5 53t59.5 16q42 0 68.5 -22t31 -56t-23.5 -70l-162 -213l165 -216q28 -36 23.5 -70t-31 -56t-68.5 -22q-34 0 -59.5 16t-51.5 53
l-100 140l-101 -140q-26 -37 -51.5 -53t-59.5 -16z" />
    <glyph glyph-name="uni0426" unicode="&#x426;" horiz-adv-x="851" 
d="M737 -190q-93 0 -93 94v96h-476q-54 0 -82.5 28.5t-28.5 82.5v484q0 53 28 81.5t80 28.5t79.5 -28.5t27.5 -81.5v-421h242v421q0 53 28 81.5t80 28.5t79.5 -28.5t27.5 -81.5v-421h6q94 0 94 -94v-176q0 -94 -92 -94z" />
    <glyph glyph-name="uni0427" unicode="&#x427;" horiz-adv-x="735" 
d="M571 -10q-52 0 -80 28.5t-28 81.5v132q-19 -6 -51.5 -11t-64.5 -5q-145 0 -224.5 76t-79.5 233v80q0 53 28 81.5t80 28.5t79.5 -28.5t27.5 -81.5v-74q0 -74 29.5 -105t87.5 -31q20 0 44.5 3.5t43.5 10.5v196q0 53 28 81.5t80 28.5t79.5 -28.5t27.5 -81.5v-505
q0 -53 -27 -81.5t-80 -28.5z" />
    <glyph glyph-name="uni0428" unicode="&#x428;" horiz-adv-x="1101" 
d="M168 0q-54 0 -82.5 28.5t-28.5 82.5v494q0 53 27.5 81.5t78.5 28.5t78 -28.5t27 -81.5v-431h177v431q0 53 27.5 81.5t78.5 28.5t78 -28.5t27 -81.5v-431h177v431q0 53 27.5 81.5t78.5 28.5t78 -28.5t27 -81.5v-494q0 -54 -28.5 -82.5t-82.5 -28.5h-765z" />
    <glyph glyph-name="uni0429" unicode="&#x429;" horiz-adv-x="1166" 
d="M1052 -190q-93 0 -93 94v96h-791q-54 0 -82.5 28.5t-28.5 82.5v494q0 53 27.5 81.5t78.5 28.5t78 -28.5t27 -81.5v-431h177v431q0 53 27.5 81.5t78.5 28.5t78 -28.5t27 -81.5v-431h177v431q0 53 27.5 81.5t78.5 28.5t78 -28.5t27 -81.5v-431h6q94 0 94 -94v-176
q0 -94 -92 -94z" />
    <glyph glyph-name="uni042A" unicode="&#x42a;" horiz-adv-x="837" 
d="M308 0q-54 0 -82.5 28.5t-28.5 82.5v420h-110q-43 0 -66.5 22.5t-23.5 64.5t23.5 64.5t66.5 22.5h214q54 0 82.5 -28.5t28.5 -82.5v-152h152q116 0 184 -57.5t68 -163.5t-68 -163.5t-184 -57.5h-256zM412 160h122q42 0 60.5 15t18.5 46t-18.5 46t-60.5 15h-122v-122z" />
    <glyph glyph-name="uni042B" unicode="&#x42b;" horiz-adv-x="988" 
d="M168 0q-54 0 -82.5 28.5t-28.5 82.5v494q0 53 28 81.5t80 28.5t79.5 -28.5t27.5 -81.5v-163h122q116 0 184 -57.5t68 -163.5t-68 -163.5t-184 -57.5h-226zM824 -10q-52 0 -80 28.5t-28 81.5v505q0 53 28 81.5t80 28.5t79.5 -28.5t27.5 -81.5v-505q0 -53 -27 -81.5
t-80 -28.5zM272 160h92q42 0 60.5 15t18.5 46t-18.5 46t-60.5 15h-92v-122z" />
    <glyph glyph-name="uni042C" unicode="&#x42c;" horiz-adv-x="697" 
d="M168 0q-54 0 -82.5 28.5t-28.5 82.5v494q0 53 28 81.5t80 28.5t79.5 -28.5t27.5 -81.5v-163h152q116 0 184 -57.5t68 -163.5t-68 -163.5t-184 -57.5h-256zM272 160h122q42 0 60.5 15t18.5 46t-18.5 46t-60.5 15h-122v-122z" />
    <glyph glyph-name="uni042D" unicode="&#x42d;" horiz-adv-x="692" 
d="M263 -12q-43 0 -88 9t-85 26q-34 15 -48.5 40.5t-12.5 53.5t18.5 50.5t44.5 31t64 -4.5q52 -19 99 -19q62 0 104 25.5t59 76.5h-174q-41 0 -63.5 14.5t-22.5 54.5t22 67.5t64 27.5h168q-20 47 -60.5 68t-96.5 21q-24 0 -51.5 -5.5t-50.5 -16.5q-37 -16 -64.5 -8.5
t-43.5 30.5t-18 51.5t11.5 55t45.5 40.5q41 18 89 29t95 11q121 0 206.5 -45.5t131 -127.5t45.5 -192q0 -109 -46.5 -191t-133.5 -127.5t-208 -45.5z" />
    <glyph glyph-name="uni042E" unicode="&#x42e;" horiz-adv-x="1110" 
d="M709 -12q-92 0 -165 34.5t-120.5 98t-64.5 148.5h-87v-169q0 -53 -27 -81.5t-80 -28.5q-52 0 -80 28.5t-28 81.5v505q0 53 28 81.5t80 28.5t79.5 -28.5t27.5 -81.5v-160h88q18 83 65.5 144t120 94.5t163.5 33.5q108 0 189 -45.5t126 -127.5t45 -191t-45 -191.5t-126 -128
t-189 -45.5zM710 167q64 0 100 49.5t36 136.5t-36 136t-100 49t-100 -48.5t-36 -136.5t36 -137t100 -49z" />
    <glyph glyph-name="uni042F" unicode="&#x42f;" horiz-adv-x="722" 
d="M558 -10q-52 0 -80 28.5t-28 81.5v152h-23q-16 0 -31 -7t-23 -21l-94 -171q-21 -39 -52.5 -53t-63.5 -8t-55 27.5t-29 54t15 71.5l25 46q32 57 90 75q-76 22 -116.5 77t-40.5 136q0 105 67 165.5t188 60.5h247q54 0 82.5 -28.5t28.5 -82.5v-494q0 -53 -27.5 -81.5
t-79.5 -28.5zM347 402h103v139h-103q-43 0 -67 -17t-24 -52q0 -36 24 -53t67 -17z" />
    <glyph glyph-name="uni0430" unicode="&#x430;" horiz-adv-x="600" 
d="M231 -12q-59 0 -104 21.5t-70 59t-25 85.5q0 54 28 85t90 44.5t163 13.5h39v9q0 29 -16 39.5t-57 10.5q-22 0 -49.5 -4.5t-65.5 -16.5q-31 -10 -53 -1.5t-33.5 27.5t-11 42t15.5 43.5t46 31.5q48 17 88 22.5t73 5.5q131 0 195 -55.5t64 -174.5v-181q0 -51 -24.5 -78
t-71.5 -27q-84 0 -95 81q-11 -38 -44 -60.5t-82 -22.5zM280 121q29 0 50.5 19t21.5 50v16h-40q-39 0 -61 -12t-22 -32q0 -18 12.5 -29.5t38.5 -11.5z" />
    <glyph glyph-name="uni0431" unicode="&#x431;" horiz-adv-x="636" 
d="M327 -12q-135 0 -214 74t-79 224v68q0 153 80.5 234.5t232.5 109.5l98 18q42 8 71 -8t37 -57q8 -40 -13 -65.5t-63 -33.5l-113 -20q-64 -11 -100 -44.5t-36 -93.5v-7q22 38 62 63t104 25q58 0 105 -28t75 -80t28 -125q0 -78 -35 -135t-97 -88t-143 -31zM319 140
q74 0 74 91q0 93 -75 93t-75 -93q0 -91 76 -91z" />
    <glyph glyph-name="uni0432" unicode="&#x432;" horiz-adv-x="609" 
d="M153 0q-48 0 -73.5 25.5t-25.5 73.5v296q0 48 25.5 73.5t73.5 25.5h215q74 0 117 -16t61.5 -45t18.5 -68q0 -36 -20 -63.5t-54 -41.5q51 -13 72.5 -43.5t21.5 -75.5q0 -64 -52.5 -102.5t-156.5 -38.5h-223zM244 311h97q39 0 39 34q0 32 -39 32h-97v-66zM244 117h106
q50 0 50 39q0 38 -50 38h-106v-77z" />
    <glyph glyph-name="uni0433" unicode="&#x433;" horiz-adv-x="500" 
d="M158 -10q-50 0 -77 27t-27 78v284q0 56 30 85.5t85 29.5h235q85 0 85 -80t-85 -80h-142v-239q0 -105 -104 -105z" />
    </font>
</defs>
</svg>
