<svg width="18" height="18" viewBox="0 0 18 18" fill="none" xmlns="http://www.w3.org/2000/svg">
<path d="M4.50373 11.8089C7.22818 15.2996 13.8674 18.6448 15.47 17.8933C17.0726 17.1419 17.4161 15.5178 17.3474 14.7664C17.2788 14.0149 13.6386 11.7121 12.7228 11.2756C11.8071 10.8394 10.7539 12.2452 10.2502 12.8512C9.72372 13.433 7.709 11.6634 6.83898 10.7665C6.83898 10.7665 4.54956 8.05156 5.07609 7.46973C5.60261 6.88791 6.90766 5.72439 6.44982 4.779C5.99214 3.83378 3.67987 0.0520296 2.94718 0.00354783C2.2375 -0.0449815 0.726445 0.391441 0.0854091 2.11246C-0.555627 3.83365 2.51215 10.4028 5.92342 13.1421" fill="white"/>
</svg>
