<svg width="14" height="12" viewBox="0 0 14 12" fill="none" xmlns="http://www.w3.org/2000/svg">
<path d="M5.25 4.125H7.66992V5.36914H7.71094C7.875 5.06836 8.15755 4.78581 8.55859 4.52148C8.96875 4.25716 9.47917 4.125 10.0898 4.125C10.737 4.125 11.2565 4.2207 11.6484 4.41211C12.0404 4.5944 12.3457 4.84961 12.5645 5.17773C12.7832 5.50586 12.929 5.89323 13.002 6.33984C13.084 6.78646 13.125 7.26953 13.125 7.78906V12H10.5957V8.26758C10.5957 7.82096 10.5365 7.36979 10.418 6.91406C10.3086 6.45833 9.93034 6.23047 9.2832 6.23047C8.62695 6.23047 8.21224 6.43555 8.03906 6.8457C7.86589 7.24674 7.7793 7.69792 7.7793 8.19922V12H5.25V4.125ZM0.875 4.125H3.5V12H0.875V4.125ZM3.5 1.9375C3.5 2.30208 3.3724 2.61198 3.11719 2.86719C2.86198 3.1224 2.55208 3.25 2.1875 3.25C1.82292 3.25 1.51302 3.1224 1.25781 2.86719C1.0026 2.61198 0.875 2.30208 0.875 1.9375C0.875 1.57292 1.0026 1.26302 1.25781 1.00781C1.51302 0.752604 1.82292 0.625 2.1875 0.625C2.55208 0.625 2.86198 0.752604 3.11719 1.00781C3.3724 1.26302 3.5 1.57292 3.5 1.9375Z" fill="white"/>
</svg>
