<svg width="14" height="11" viewBox="0 0 14 11" fill="none" xmlns="http://www.w3.org/2000/svg">
<path d="M13.8633 3.07227C13.8633 3.07227 13.8223 2.89453 13.7402 2.53906C13.6582 2.18359 13.5124 1.90104 13.3027 1.69141C13.0384 1.40885 12.7695 1.24479 12.4961 1.19922C12.2318 1.14453 12.0312 1.10807 11.8945 1.08984C11.4115 1.05339 10.8828 1.02604 10.3086 1.00781C9.73438 0.989583 9.20117 0.975911 8.70898 0.966797C8.22591 0.957682 7.82031 0.953125 7.49219 0.953125C7.16406 0.953125 7 0.953125 7 0.953125C7 0.953125 6.83594 0.953125 6.50781 0.953125C6.17969 0.953125 5.76953 0.957682 5.27734 0.966797C4.79427 0.975911 4.26562 0.989583 3.69141 1.00781C3.11719 1.02604 2.58854 1.05339 2.10547 1.08984C1.96875 1.10807 1.76367 1.14453 1.49023 1.19922C1.22591 1.24479 0.961589 1.40885 0.697266 1.69141C0.48763 1.90104 0.341797 2.18359 0.259766 2.53906C0.177734 2.89453 0.136719 3.07227 0.136719 3.07227C0.136719 3.07227 0.113932 3.30924 0.0683594 3.7832C0.0227865 4.25716 0 4.77669 0 5.3418V6.4082C0 6.97331 0.0227865 7.49284 0.0683594 7.9668C0.113932 8.43164 0.136719 8.66406 0.136719 8.66406C0.136719 8.66406 0.177734 8.84635 0.259766 9.21094C0.341797 9.56641 0.48763 9.84896 0.697266 10.0586C0.961589 10.3411 1.24414 10.5052 1.54492 10.5508C1.85482 10.5964 2.08724 10.6328 2.24219 10.6602C2.52474 10.6875 2.93034 10.7103 3.45898 10.7285C3.98763 10.7467 4.51172 10.7604 5.03125 10.7695C5.5599 10.7786 6.02018 10.7878 6.41211 10.7969C6.80404 10.7969 7 10.7969 7 10.7969C7 10.7969 7.16406 10.7969 7.49219 10.7969C7.82031 10.7969 8.22591 10.7923 8.70898 10.7832C9.20117 10.765 9.73438 10.7467 10.3086 10.7285C10.8828 10.7103 11.416 10.6829 11.9082 10.6465C12.0449 10.6374 12.2454 10.61 12.5098 10.5645C12.7741 10.5098 13.0384 10.3411 13.3027 10.0586C13.5124 9.84896 13.6582 9.56641 13.7402 9.21094C13.8223 8.84635 13.8633 8.66406 13.8633 8.66406C13.8633 8.66406 13.8861 8.43164 13.9316 7.9668C13.9772 7.49284 14 6.97331 14 6.4082V5.3418C14 4.77669 13.9772 4.25716 13.9316 3.7832C13.8861 3.30924 13.8633 3.07227 13.8633 3.07227ZM5.55078 7.69336V3.75586L9.33789 5.72461L5.55078 7.69336Z" fill="white"/>
</svg>
